%TF.GenerationSoftware,KiCad,Pcbnew,(5.1.5)-3*%
%TF.CreationDate,2020-07-28T11:43:05+08:00*%
%TF.ProjectId,2in1kicad,32696e31-6b69-4636-9164-2e6b69636164,rev?*%
%TF.SameCoordinates,Original*%
%TF.FileFunction,Copper,L2,Bot*%
%TF.FilePolarity,Positive*%
%FSLAX46Y46*%
G04 Gerber Fmt 4.6, Leading zero omitted, Abs format (unit mm)*
G04 Created by KiCad (PCBNEW (5.1.5)-3) date 2020-07-28 11:43:05*
%MOMM*%
%LPD*%
G04 APERTURE LIST*
%ADD10O,1.700000X1.700000*%
%ADD11R,1.700000X1.700000*%
%ADD12O,1.350000X1.350000*%
%ADD13R,1.350000X1.350000*%
%ADD14C,1.600000*%
%ADD15R,1.600000X1.600000*%
%ADD16O,1.600000X1.600000*%
%ADD17C,1.800000*%
%ADD18C,1.500000*%
%ADD19C,5.000000*%
%ADD20C,0.400000*%
%ADD21C,0.800000*%
%ADD22C,0.300000*%
%ADD23C,0.200000*%
%ADD24C,0.250000*%
%ADD25C,0.254000*%
%ADD26C,0.350000*%
%ADD27C,0.300000*%
G04 APERTURE END LIST*
D10*
X116500000Y-99500000D03*
X116500000Y-102040000D03*
X116500000Y-104580000D03*
D11*
X116500000Y-107120000D03*
D10*
X71080000Y-72250000D03*
X68540000Y-72250000D03*
D11*
X66000000Y-72250000D03*
D12*
X88750000Y-76250000D03*
X88750000Y-78250000D03*
X88750000Y-80250000D03*
X88750000Y-82250000D03*
X88750000Y-84250000D03*
X88750000Y-86250000D03*
D13*
X88750000Y-88250000D03*
D14*
X94750000Y-46000000D03*
D15*
X102350000Y-46000000D03*
D16*
X116750000Y-93040000D03*
D14*
X116750000Y-90500000D03*
D17*
X116500000Y-70500000D03*
D10*
X51630000Y-113000000D03*
X54170000Y-113000000D03*
X56710000Y-113000000D03*
D11*
X59250000Y-113000000D03*
D10*
X53880000Y-72390000D03*
X56420000Y-72390000D03*
X58960000Y-72390000D03*
D11*
X61500000Y-72390000D03*
D18*
X62250000Y-97265000D03*
X57370000Y-97265000D03*
D10*
X41500000Y-104260000D03*
D11*
X41500000Y-101720000D03*
D10*
X46210000Y-104385000D03*
D11*
X46210000Y-101845000D03*
D10*
X42250000Y-90490000D03*
X42250000Y-87950000D03*
X42250000Y-85410000D03*
X42250000Y-82870000D03*
X42250000Y-80330000D03*
X42250000Y-77790000D03*
D11*
X42250000Y-75250000D03*
D10*
X66130000Y-112910000D03*
X68670000Y-112910000D03*
X71210000Y-112910000D03*
D11*
X73750000Y-112910000D03*
D17*
X116860000Y-79820000D03*
D10*
X59760000Y-46310000D03*
X57220000Y-46310000D03*
X54680000Y-46310000D03*
X52140000Y-46310000D03*
X49600000Y-46310000D03*
D11*
X47060000Y-46310000D03*
D17*
X116860000Y-83720000D03*
X106750000Y-116250000D03*
X92000000Y-116250000D03*
D10*
X41810000Y-55480000D03*
D11*
X41810000Y-52940000D03*
D19*
X120250000Y-38500000D03*
X35250000Y-118500000D03*
X35250000Y-39250000D03*
X120250000Y-118250000D03*
D20*
X104000000Y-98250000D03*
X99750000Y-69750000D03*
X87000000Y-50250000D03*
X103250000Y-62500000D03*
X87500000Y-98750000D03*
X70750000Y-80750000D03*
X87500000Y-108500000D03*
X94000000Y-98500000D03*
X56250000Y-86250000D03*
X75250000Y-80000000D03*
X62000000Y-78000000D03*
X62750000Y-89500000D03*
X61000000Y-88000000D03*
X48000000Y-68500000D03*
X81500000Y-105750000D03*
X87250000Y-106000000D03*
X60750000Y-62500000D03*
X107000000Y-84750000D03*
X69750000Y-85250000D03*
X71500000Y-87250000D03*
X65000000Y-80000000D03*
X86000000Y-100750000D03*
X77750000Y-70000000D03*
X75250000Y-86750000D03*
X101500000Y-100000000D03*
X108750000Y-92750000D03*
X69500000Y-87500000D03*
X92250000Y-59500000D03*
X96750000Y-106000000D03*
D21*
X99250000Y-109750000D03*
X70250000Y-98250000D03*
D20*
X92500000Y-78250000D03*
X101750000Y-78250000D03*
X79250000Y-61000000D03*
X69500000Y-82750000D03*
X57000000Y-79750000D03*
X57750000Y-79500000D03*
X55500000Y-81750000D03*
X55750000Y-81000000D03*
X56250000Y-80000000D03*
D22*
X102250000Y-46100000D02*
X102350000Y-46000000D01*
X103250000Y-62500000D02*
X102250000Y-61500000D01*
X102250000Y-61500000D02*
X102250000Y-46100000D01*
D23*
X61500000Y-77500000D02*
X61500000Y-72390000D01*
X62000000Y-78000000D02*
X61500000Y-77500000D01*
X62500000Y-89500000D02*
X62750000Y-89500000D01*
X61000000Y-88000000D02*
X62500000Y-89500000D01*
X76500000Y-80000000D02*
X75250000Y-80000000D01*
X77750000Y-70000000D02*
X77750000Y-78750000D01*
X77750000Y-78750000D02*
X76500000Y-80000000D01*
X75250000Y-80000000D02*
X75250000Y-86750000D01*
X86750000Y-100000000D02*
X86000000Y-100750000D01*
X101500000Y-100000000D02*
X86750000Y-100000000D01*
X101500000Y-100000000D02*
X108750000Y-100000000D01*
X108750000Y-92750000D02*
X108750000Y-100000000D01*
X108750000Y-100000000D02*
X116000000Y-107250000D01*
X116370000Y-107250000D02*
X116500000Y-107120000D01*
X116000000Y-107250000D02*
X116370000Y-107250000D01*
X82250000Y-100750000D02*
X86000000Y-100750000D01*
X75250000Y-86750000D02*
X75250000Y-93750000D01*
X75250000Y-93750000D02*
X82250000Y-100750000D01*
X64000000Y-87750000D02*
X69250000Y-87750000D01*
X69250000Y-87750000D02*
X69500000Y-87500000D01*
X62750000Y-89500000D02*
X62750000Y-89000000D01*
X62750000Y-89000000D02*
X64000000Y-87750000D01*
X57220000Y-45780000D02*
X57220000Y-46310000D01*
X58750000Y-44250000D02*
X57220000Y-45780000D01*
X86750000Y-44250000D02*
X58750000Y-44250000D01*
X92250000Y-59500000D02*
X92250000Y-49750000D01*
X92250000Y-49750000D02*
X86750000Y-44250000D01*
D22*
X87250000Y-106000000D02*
X96750000Y-106000000D01*
X78750000Y-105750000D02*
X81500000Y-105750000D01*
X48000000Y-70500000D02*
X51750000Y-74250000D01*
X51750000Y-74250000D02*
X57250000Y-74250000D01*
X48000000Y-68500000D02*
X48000000Y-70500000D01*
X71250000Y-98250000D02*
X78750000Y-105750000D01*
X57250000Y-74250000D02*
X71250000Y-88250000D01*
X71250000Y-88250000D02*
X71250000Y-98250000D01*
D24*
X99250000Y-109750000D02*
X99250000Y-109750000D01*
X81750000Y-109750000D02*
X99250000Y-109750000D01*
X70250000Y-98250000D02*
X81750000Y-109750000D01*
D23*
X101750000Y-78250000D02*
X92500000Y-78250000D01*
X77000000Y-63250000D02*
X79250000Y-61000000D01*
X77000000Y-73250000D02*
X77000000Y-63250000D01*
X69500000Y-82750000D02*
X69500000Y-80750000D01*
X69500000Y-80750000D02*
X77000000Y-73250000D01*
X59000000Y-108170000D02*
X54170000Y-113000000D01*
X55500000Y-81750000D02*
X59000000Y-85250000D01*
X59000000Y-85250000D02*
X59000000Y-108170000D01*
X59500000Y-110210000D02*
X56710000Y-113000000D01*
X55750000Y-81000000D02*
X59500000Y-84750000D01*
X59500000Y-84750000D02*
X59500000Y-110210000D01*
X56250000Y-80000000D02*
X60000000Y-83750000D01*
X60000000Y-83750000D02*
X60000000Y-112250000D01*
D25*
G36*
X118765021Y-35721799D02*
G01*
X118251554Y-36064886D01*
X117814886Y-36501554D01*
X117471799Y-37015021D01*
X117235476Y-37585554D01*
X117115000Y-38191229D01*
X117115000Y-38808771D01*
X117235476Y-39414446D01*
X117471799Y-39984979D01*
X117814886Y-40498446D01*
X118251554Y-40935114D01*
X118765021Y-41278201D01*
X119335554Y-41514524D01*
X119941229Y-41635000D01*
X120558771Y-41635000D01*
X121164446Y-41514524D01*
X121734979Y-41278201D01*
X122248446Y-40935114D01*
X122685114Y-40498446D01*
X123028201Y-39984979D01*
X123264524Y-39414446D01*
X123385000Y-38808771D01*
X123385000Y-38191229D01*
X123264524Y-37585554D01*
X123028201Y-37015021D01*
X122685114Y-36501554D01*
X122248446Y-36064886D01*
X121734979Y-35721799D01*
X121585783Y-35660000D01*
X124340000Y-35660000D01*
X124340001Y-121840000D01*
X30660000Y-121840000D01*
X30660000Y-118191229D01*
X32115000Y-118191229D01*
X32115000Y-118808771D01*
X32235476Y-119414446D01*
X32471799Y-119984979D01*
X32814886Y-120498446D01*
X33251554Y-120935114D01*
X33765021Y-121278201D01*
X34335554Y-121514524D01*
X34941229Y-121635000D01*
X35558771Y-121635000D01*
X36164446Y-121514524D01*
X36734979Y-121278201D01*
X37248446Y-120935114D01*
X37685114Y-120498446D01*
X38028201Y-119984979D01*
X38264524Y-119414446D01*
X38385000Y-118808771D01*
X38385000Y-118191229D01*
X38335273Y-117941229D01*
X117115000Y-117941229D01*
X117115000Y-118558771D01*
X117235476Y-119164446D01*
X117471799Y-119734979D01*
X117814886Y-120248446D01*
X118251554Y-120685114D01*
X118765021Y-121028201D01*
X119335554Y-121264524D01*
X119941229Y-121385000D01*
X120558771Y-121385000D01*
X121164446Y-121264524D01*
X121734979Y-121028201D01*
X122248446Y-120685114D01*
X122685114Y-120248446D01*
X123028201Y-119734979D01*
X123264524Y-119164446D01*
X123385000Y-118558771D01*
X123385000Y-117941229D01*
X123264524Y-117335554D01*
X123028201Y-116765021D01*
X122685114Y-116251554D01*
X122248446Y-115814886D01*
X121734979Y-115471799D01*
X121164446Y-115235476D01*
X120558771Y-115115000D01*
X119941229Y-115115000D01*
X119335554Y-115235476D01*
X118765021Y-115471799D01*
X118251554Y-115814886D01*
X117814886Y-116251554D01*
X117471799Y-116765021D01*
X117235476Y-117335554D01*
X117115000Y-117941229D01*
X38335273Y-117941229D01*
X38264524Y-117585554D01*
X38028201Y-117015021D01*
X37685114Y-116501554D01*
X37282376Y-116098816D01*
X90465000Y-116098816D01*
X90465000Y-116401184D01*
X90523989Y-116697743D01*
X90639701Y-116977095D01*
X90807688Y-117228505D01*
X91021495Y-117442312D01*
X91272905Y-117610299D01*
X91552257Y-117726011D01*
X91848816Y-117785000D01*
X92151184Y-117785000D01*
X92447743Y-117726011D01*
X92727095Y-117610299D01*
X92978505Y-117442312D01*
X93192312Y-117228505D01*
X93360299Y-116977095D01*
X93476011Y-116697743D01*
X93535000Y-116401184D01*
X93535000Y-116098816D01*
X105215000Y-116098816D01*
X105215000Y-116401184D01*
X105273989Y-116697743D01*
X105389701Y-116977095D01*
X105557688Y-117228505D01*
X105771495Y-117442312D01*
X106022905Y-117610299D01*
X106302257Y-117726011D01*
X106598816Y-117785000D01*
X106901184Y-117785000D01*
X107197743Y-117726011D01*
X107477095Y-117610299D01*
X107728505Y-117442312D01*
X107942312Y-117228505D01*
X108110299Y-116977095D01*
X108226011Y-116697743D01*
X108285000Y-116401184D01*
X108285000Y-116098816D01*
X108226011Y-115802257D01*
X108110299Y-115522905D01*
X107942312Y-115271495D01*
X107728505Y-115057688D01*
X107477095Y-114889701D01*
X107197743Y-114773989D01*
X106901184Y-114715000D01*
X106598816Y-114715000D01*
X106302257Y-114773989D01*
X106022905Y-114889701D01*
X105771495Y-115057688D01*
X105557688Y-115271495D01*
X105389701Y-115522905D01*
X105273989Y-115802257D01*
X105215000Y-116098816D01*
X93535000Y-116098816D01*
X93476011Y-115802257D01*
X93360299Y-115522905D01*
X93192312Y-115271495D01*
X92978505Y-115057688D01*
X92727095Y-114889701D01*
X92447743Y-114773989D01*
X92151184Y-114715000D01*
X91848816Y-114715000D01*
X91552257Y-114773989D01*
X91272905Y-114889701D01*
X91021495Y-115057688D01*
X90807688Y-115271495D01*
X90639701Y-115522905D01*
X90523989Y-115802257D01*
X90465000Y-116098816D01*
X37282376Y-116098816D01*
X37248446Y-116064886D01*
X36734979Y-115721799D01*
X36164446Y-115485476D01*
X35558771Y-115365000D01*
X34941229Y-115365000D01*
X34335554Y-115485476D01*
X33765021Y-115721799D01*
X33251554Y-116064886D01*
X32814886Y-116501554D01*
X32471799Y-117015021D01*
X32235476Y-117585554D01*
X32115000Y-118191229D01*
X30660000Y-118191229D01*
X30660000Y-113356891D01*
X50188519Y-113356891D01*
X50285843Y-113631252D01*
X50434822Y-113881355D01*
X50629731Y-114097588D01*
X50863080Y-114271641D01*
X51125901Y-114396825D01*
X51273110Y-114441476D01*
X51503000Y-114320155D01*
X51503000Y-113127000D01*
X50309186Y-113127000D01*
X50188519Y-113356891D01*
X30660000Y-113356891D01*
X30660000Y-112643109D01*
X50188519Y-112643109D01*
X50309186Y-112873000D01*
X51503000Y-112873000D01*
X51503000Y-111679845D01*
X51273110Y-111558524D01*
X51125901Y-111603175D01*
X50863080Y-111728359D01*
X50629731Y-111902412D01*
X50434822Y-112118645D01*
X50285843Y-112368748D01*
X50188519Y-112643109D01*
X30660000Y-112643109D01*
X30660000Y-104616890D01*
X40058524Y-104616890D01*
X40103175Y-104764099D01*
X40228359Y-105026920D01*
X40402412Y-105260269D01*
X40618645Y-105455178D01*
X40868748Y-105604157D01*
X41143109Y-105701481D01*
X41373000Y-105580814D01*
X41373000Y-104387000D01*
X41627000Y-104387000D01*
X41627000Y-105580814D01*
X41856891Y-105701481D01*
X42131252Y-105604157D01*
X42381355Y-105455178D01*
X42597588Y-105260269D01*
X42771641Y-105026920D01*
X42896825Y-104764099D01*
X42903561Y-104741890D01*
X44768524Y-104741890D01*
X44813175Y-104889099D01*
X44938359Y-105151920D01*
X45112412Y-105385269D01*
X45328645Y-105580178D01*
X45578748Y-105729157D01*
X45853109Y-105826481D01*
X46083000Y-105705814D01*
X46083000Y-104512000D01*
X46337000Y-104512000D01*
X46337000Y-105705814D01*
X46566891Y-105826481D01*
X46841252Y-105729157D01*
X47091355Y-105580178D01*
X47307588Y-105385269D01*
X47481641Y-105151920D01*
X47606825Y-104889099D01*
X47651476Y-104741890D01*
X47530155Y-104512000D01*
X46337000Y-104512000D01*
X46083000Y-104512000D01*
X44889845Y-104512000D01*
X44768524Y-104741890D01*
X42903561Y-104741890D01*
X42941476Y-104616890D01*
X42820155Y-104387000D01*
X41627000Y-104387000D01*
X41373000Y-104387000D01*
X40179845Y-104387000D01*
X40058524Y-104616890D01*
X30660000Y-104616890D01*
X30660000Y-100870000D01*
X40011928Y-100870000D01*
X40011928Y-102570000D01*
X40024188Y-102694482D01*
X40060498Y-102814180D01*
X40119463Y-102924494D01*
X40198815Y-103021185D01*
X40295506Y-103100537D01*
X40405820Y-103159502D01*
X40486466Y-103183966D01*
X40402412Y-103259731D01*
X40228359Y-103493080D01*
X40103175Y-103755901D01*
X40058524Y-103903110D01*
X40179845Y-104133000D01*
X41373000Y-104133000D01*
X41373000Y-104113000D01*
X41627000Y-104113000D01*
X41627000Y-104133000D01*
X42820155Y-104133000D01*
X42941476Y-103903110D01*
X42896825Y-103755901D01*
X42771641Y-103493080D01*
X42597588Y-103259731D01*
X42513534Y-103183966D01*
X42594180Y-103159502D01*
X42704494Y-103100537D01*
X42801185Y-103021185D01*
X42880537Y-102924494D01*
X42939502Y-102814180D01*
X42975812Y-102694482D01*
X42988072Y-102570000D01*
X42988072Y-100995000D01*
X44721928Y-100995000D01*
X44721928Y-102695000D01*
X44734188Y-102819482D01*
X44770498Y-102939180D01*
X44829463Y-103049494D01*
X44908815Y-103146185D01*
X45005506Y-103225537D01*
X45115820Y-103284502D01*
X45196466Y-103308966D01*
X45112412Y-103384731D01*
X44938359Y-103618080D01*
X44813175Y-103880901D01*
X44768524Y-104028110D01*
X44889845Y-104258000D01*
X46083000Y-104258000D01*
X46083000Y-104238000D01*
X46337000Y-104238000D01*
X46337000Y-104258000D01*
X47530155Y-104258000D01*
X47651476Y-104028110D01*
X47606825Y-103880901D01*
X47481641Y-103618080D01*
X47307588Y-103384731D01*
X47223534Y-103308966D01*
X47304180Y-103284502D01*
X47414494Y-103225537D01*
X47511185Y-103146185D01*
X47590537Y-103049494D01*
X47649502Y-102939180D01*
X47685812Y-102819482D01*
X47698072Y-102695000D01*
X47698072Y-100995000D01*
X47685812Y-100870518D01*
X47649502Y-100750820D01*
X47590537Y-100640506D01*
X47511185Y-100543815D01*
X47414494Y-100464463D01*
X47304180Y-100405498D01*
X47184482Y-100369188D01*
X47060000Y-100356928D01*
X45360000Y-100356928D01*
X45235518Y-100369188D01*
X45115820Y-100405498D01*
X45005506Y-100464463D01*
X44908815Y-100543815D01*
X44829463Y-100640506D01*
X44770498Y-100750820D01*
X44734188Y-100870518D01*
X44721928Y-100995000D01*
X42988072Y-100995000D01*
X42988072Y-100870000D01*
X42975812Y-100745518D01*
X42939502Y-100625820D01*
X42880537Y-100515506D01*
X42801185Y-100418815D01*
X42704494Y-100339463D01*
X42594180Y-100280498D01*
X42474482Y-100244188D01*
X42350000Y-100231928D01*
X40650000Y-100231928D01*
X40525518Y-100244188D01*
X40405820Y-100280498D01*
X40295506Y-100339463D01*
X40198815Y-100418815D01*
X40119463Y-100515506D01*
X40060498Y-100625820D01*
X40024188Y-100745518D01*
X40011928Y-100870000D01*
X30660000Y-100870000D01*
X30660000Y-76100000D01*
X40761928Y-76100000D01*
X40774188Y-76224482D01*
X40810498Y-76344180D01*
X40869463Y-76454494D01*
X40948815Y-76551185D01*
X41045506Y-76630537D01*
X41155820Y-76689502D01*
X41228380Y-76711513D01*
X41096525Y-76843368D01*
X40934010Y-77086589D01*
X40822068Y-77356842D01*
X40765000Y-77643740D01*
X40765000Y-77936260D01*
X40822068Y-78223158D01*
X40934010Y-78493411D01*
X41096525Y-78736632D01*
X41303368Y-78943475D01*
X41477760Y-79060000D01*
X41303368Y-79176525D01*
X41096525Y-79383368D01*
X40934010Y-79626589D01*
X40822068Y-79896842D01*
X40765000Y-80183740D01*
X40765000Y-80476260D01*
X40822068Y-80763158D01*
X40934010Y-81033411D01*
X41096525Y-81276632D01*
X41303368Y-81483475D01*
X41477760Y-81600000D01*
X41303368Y-81716525D01*
X41096525Y-81923368D01*
X40934010Y-82166589D01*
X40822068Y-82436842D01*
X40765000Y-82723740D01*
X40765000Y-83016260D01*
X40822068Y-83303158D01*
X40934010Y-83573411D01*
X41096525Y-83816632D01*
X41303368Y-84023475D01*
X41477760Y-84140000D01*
X41303368Y-84256525D01*
X41096525Y-84463368D01*
X40934010Y-84706589D01*
X40822068Y-84976842D01*
X40765000Y-85263740D01*
X40765000Y-85556260D01*
X40822068Y-85843158D01*
X40934010Y-86113411D01*
X41096525Y-86356632D01*
X41303368Y-86563475D01*
X41477760Y-86680000D01*
X41303368Y-86796525D01*
X41096525Y-87003368D01*
X40934010Y-87246589D01*
X40822068Y-87516842D01*
X40765000Y-87803740D01*
X40765000Y-88096260D01*
X40822068Y-88383158D01*
X40934010Y-88653411D01*
X41096525Y-88896632D01*
X41303368Y-89103475D01*
X41477760Y-89220000D01*
X41303368Y-89336525D01*
X41096525Y-89543368D01*
X40934010Y-89786589D01*
X40822068Y-90056842D01*
X40765000Y-90343740D01*
X40765000Y-90636260D01*
X40822068Y-90923158D01*
X40934010Y-91193411D01*
X41096525Y-91436632D01*
X41303368Y-91643475D01*
X41546589Y-91805990D01*
X41816842Y-91917932D01*
X42103740Y-91975000D01*
X42396260Y-91975000D01*
X42683158Y-91917932D01*
X42953411Y-91805990D01*
X43196632Y-91643475D01*
X43403475Y-91436632D01*
X43565990Y-91193411D01*
X43677932Y-90923158D01*
X43735000Y-90636260D01*
X43735000Y-90343740D01*
X43677932Y-90056842D01*
X43565990Y-89786589D01*
X43403475Y-89543368D01*
X43196632Y-89336525D01*
X43022240Y-89220000D01*
X43196632Y-89103475D01*
X43403475Y-88896632D01*
X43565990Y-88653411D01*
X43677932Y-88383158D01*
X43735000Y-88096260D01*
X43735000Y-87803740D01*
X43677932Y-87516842D01*
X43565990Y-87246589D01*
X43403475Y-87003368D01*
X43196632Y-86796525D01*
X43022240Y-86680000D01*
X43196632Y-86563475D01*
X43403475Y-86356632D01*
X43565990Y-86113411D01*
X43677932Y-85843158D01*
X43735000Y-85556260D01*
X43735000Y-85263740D01*
X43677932Y-84976842D01*
X43565990Y-84706589D01*
X43403475Y-84463368D01*
X43196632Y-84256525D01*
X43022240Y-84140000D01*
X43196632Y-84023475D01*
X43403475Y-83816632D01*
X43565990Y-83573411D01*
X43677932Y-83303158D01*
X43735000Y-83016260D01*
X43735000Y-82723740D01*
X43677932Y-82436842D01*
X43565990Y-82166589D01*
X43403475Y-81923368D01*
X43196632Y-81716525D01*
X43022240Y-81600000D01*
X43196632Y-81483475D01*
X43403475Y-81276632D01*
X43565990Y-81033411D01*
X43677932Y-80763158D01*
X43735000Y-80476260D01*
X43735000Y-80183740D01*
X43677932Y-79896842D01*
X43565990Y-79626589D01*
X43403475Y-79383368D01*
X43196632Y-79176525D01*
X43022240Y-79060000D01*
X43196632Y-78943475D01*
X43403475Y-78736632D01*
X43565990Y-78493411D01*
X43677932Y-78223158D01*
X43735000Y-77936260D01*
X43735000Y-77643740D01*
X43677932Y-77356842D01*
X43565990Y-77086589D01*
X43403475Y-76843368D01*
X43271620Y-76711513D01*
X43344180Y-76689502D01*
X43454494Y-76630537D01*
X43551185Y-76551185D01*
X43630537Y-76454494D01*
X43689502Y-76344180D01*
X43725812Y-76224482D01*
X43738072Y-76100000D01*
X43735000Y-75535750D01*
X43576250Y-75377000D01*
X42377000Y-75377000D01*
X42377000Y-75397000D01*
X42123000Y-75397000D01*
X42123000Y-75377000D01*
X40923750Y-75377000D01*
X40765000Y-75535750D01*
X40761928Y-76100000D01*
X30660000Y-76100000D01*
X30660000Y-74400000D01*
X40761928Y-74400000D01*
X40765000Y-74964250D01*
X40923750Y-75123000D01*
X42123000Y-75123000D01*
X42123000Y-73923750D01*
X42377000Y-73923750D01*
X42377000Y-75123000D01*
X43576250Y-75123000D01*
X43735000Y-74964250D01*
X43738072Y-74400000D01*
X43725812Y-74275518D01*
X43689502Y-74155820D01*
X43630537Y-74045506D01*
X43551185Y-73948815D01*
X43454494Y-73869463D01*
X43344180Y-73810498D01*
X43224482Y-73774188D01*
X43100000Y-73761928D01*
X42535750Y-73765000D01*
X42377000Y-73923750D01*
X42123000Y-73923750D01*
X41964250Y-73765000D01*
X41400000Y-73761928D01*
X41275518Y-73774188D01*
X41155820Y-73810498D01*
X41045506Y-73869463D01*
X40948815Y-73948815D01*
X40869463Y-74045506D01*
X40810498Y-74155820D01*
X40774188Y-74275518D01*
X40761928Y-74400000D01*
X30660000Y-74400000D01*
X30660000Y-68417760D01*
X47165000Y-68417760D01*
X47165000Y-68582240D01*
X47197089Y-68743560D01*
X47215000Y-68786802D01*
X47215001Y-70461437D01*
X47211203Y-70500000D01*
X47226359Y-70653886D01*
X47271246Y-70801859D01*
X47274809Y-70808524D01*
X47344139Y-70938233D01*
X47377070Y-70978359D01*
X47417655Y-71027812D01*
X47417659Y-71027816D01*
X47442237Y-71057764D01*
X47472185Y-71082342D01*
X51167653Y-74777810D01*
X51192236Y-74807764D01*
X51311767Y-74905862D01*
X51421005Y-74964250D01*
X51448140Y-74978754D01*
X51596113Y-75023642D01*
X51671026Y-75031020D01*
X51711439Y-75035000D01*
X51711444Y-75035000D01*
X51750000Y-75038797D01*
X51788556Y-75035000D01*
X56924843Y-75035000D01*
X68854488Y-86964645D01*
X68851413Y-86967719D01*
X68819821Y-87015000D01*
X64036105Y-87015000D01*
X64000000Y-87011444D01*
X63963895Y-87015000D01*
X63855915Y-87025635D01*
X63717367Y-87067663D01*
X63589680Y-87135913D01*
X63477762Y-87227762D01*
X63454746Y-87255807D01*
X62375000Y-88335554D01*
X61804655Y-87765209D01*
X61802911Y-87756440D01*
X61739967Y-87604479D01*
X61648587Y-87467719D01*
X61532281Y-87351413D01*
X61395521Y-87260033D01*
X61243560Y-87197089D01*
X61082240Y-87165000D01*
X60917760Y-87165000D01*
X60756440Y-87197089D01*
X60735000Y-87205970D01*
X60735000Y-83786105D01*
X60738556Y-83750000D01*
X60724365Y-83605915D01*
X60682337Y-83467367D01*
X60614087Y-83339680D01*
X60554886Y-83267544D01*
X60545253Y-83255806D01*
X60545250Y-83255803D01*
X60522237Y-83227762D01*
X60494197Y-83204750D01*
X57613691Y-80324245D01*
X57667760Y-80335000D01*
X57832240Y-80335000D01*
X57993560Y-80302911D01*
X58145521Y-80239967D01*
X58282281Y-80148587D01*
X58398587Y-80032281D01*
X58489967Y-79895521D01*
X58552911Y-79743560D01*
X58585000Y-79582240D01*
X58585000Y-79417760D01*
X58552911Y-79256440D01*
X58489967Y-79104479D01*
X58398587Y-78967719D01*
X58282281Y-78851413D01*
X58145521Y-78760033D01*
X57993560Y-78697089D01*
X57832240Y-78665000D01*
X57667760Y-78665000D01*
X57506440Y-78697089D01*
X57354479Y-78760033D01*
X57217719Y-78851413D01*
X57142204Y-78926928D01*
X57082240Y-78915000D01*
X56917760Y-78915000D01*
X56756440Y-78947089D01*
X56604479Y-79010033D01*
X56467719Y-79101413D01*
X56392204Y-79176928D01*
X56332240Y-79165000D01*
X56167760Y-79165000D01*
X56006440Y-79197089D01*
X55854479Y-79260033D01*
X55717719Y-79351413D01*
X55601413Y-79467719D01*
X55510033Y-79604479D01*
X55447089Y-79756440D01*
X55415000Y-79917760D01*
X55415000Y-80082240D01*
X55443067Y-80223339D01*
X55354479Y-80260033D01*
X55217719Y-80351413D01*
X55101413Y-80467719D01*
X55010033Y-80604479D01*
X54947089Y-80756440D01*
X54915000Y-80917760D01*
X54915000Y-81082240D01*
X54926928Y-81142204D01*
X54851413Y-81217719D01*
X54760033Y-81354479D01*
X54697089Y-81506440D01*
X54665000Y-81667760D01*
X54665000Y-81832240D01*
X54697089Y-81993560D01*
X54760033Y-82145521D01*
X54851413Y-82282281D01*
X54967719Y-82398587D01*
X55104479Y-82489967D01*
X55256440Y-82552911D01*
X55265209Y-82554655D01*
X58265000Y-85554447D01*
X58265000Y-96201315D01*
X58252886Y-96189201D01*
X58026043Y-96037629D01*
X57773989Y-95933225D01*
X57506411Y-95880000D01*
X57233589Y-95880000D01*
X56966011Y-95933225D01*
X56713957Y-96037629D01*
X56487114Y-96189201D01*
X56294201Y-96382114D01*
X56142629Y-96608957D01*
X56038225Y-96861011D01*
X55985000Y-97128589D01*
X55985000Y-97401411D01*
X56038225Y-97668989D01*
X56142629Y-97921043D01*
X56294201Y-98147886D01*
X56487114Y-98340799D01*
X56713957Y-98492371D01*
X56966011Y-98596775D01*
X57233589Y-98650000D01*
X57506411Y-98650000D01*
X57773989Y-98596775D01*
X58026043Y-98492371D01*
X58252886Y-98340799D01*
X58265001Y-98328684D01*
X58265001Y-107865552D01*
X54565897Y-111564656D01*
X54316260Y-111515000D01*
X54023740Y-111515000D01*
X53736842Y-111572068D01*
X53466589Y-111684010D01*
X53223368Y-111846525D01*
X53016525Y-112053368D01*
X52894805Y-112235534D01*
X52825178Y-112118645D01*
X52630269Y-111902412D01*
X52396920Y-111728359D01*
X52134099Y-111603175D01*
X51986890Y-111558524D01*
X51757000Y-111679845D01*
X51757000Y-112873000D01*
X51777000Y-112873000D01*
X51777000Y-113127000D01*
X51757000Y-113127000D01*
X51757000Y-114320155D01*
X51986890Y-114441476D01*
X52134099Y-114396825D01*
X52396920Y-114271641D01*
X52630269Y-114097588D01*
X52825178Y-113881355D01*
X52894805Y-113764466D01*
X53016525Y-113946632D01*
X53223368Y-114153475D01*
X53466589Y-114315990D01*
X53736842Y-114427932D01*
X54023740Y-114485000D01*
X54316260Y-114485000D01*
X54603158Y-114427932D01*
X54873411Y-114315990D01*
X55116632Y-114153475D01*
X55323475Y-113946632D01*
X55440000Y-113772240D01*
X55556525Y-113946632D01*
X55763368Y-114153475D01*
X56006589Y-114315990D01*
X56276842Y-114427932D01*
X56563740Y-114485000D01*
X56856260Y-114485000D01*
X57143158Y-114427932D01*
X57413411Y-114315990D01*
X57656632Y-114153475D01*
X57788487Y-114021620D01*
X57810498Y-114094180D01*
X57869463Y-114204494D01*
X57948815Y-114301185D01*
X58045506Y-114380537D01*
X58155820Y-114439502D01*
X58275518Y-114475812D01*
X58400000Y-114488072D01*
X60100000Y-114488072D01*
X60224482Y-114475812D01*
X60344180Y-114439502D01*
X60454494Y-114380537D01*
X60551185Y-114301185D01*
X60630537Y-114204494D01*
X60689502Y-114094180D01*
X60725812Y-113974482D01*
X60738072Y-113850000D01*
X60738072Y-113266891D01*
X64688519Y-113266891D01*
X64785843Y-113541252D01*
X64934822Y-113791355D01*
X65129731Y-114007588D01*
X65363080Y-114181641D01*
X65625901Y-114306825D01*
X65773110Y-114351476D01*
X66003000Y-114230155D01*
X66003000Y-113037000D01*
X64809186Y-113037000D01*
X64688519Y-113266891D01*
X60738072Y-113266891D01*
X60738072Y-112553109D01*
X64688519Y-112553109D01*
X64809186Y-112783000D01*
X66003000Y-112783000D01*
X66003000Y-111589845D01*
X66257000Y-111589845D01*
X66257000Y-112783000D01*
X66277000Y-112783000D01*
X66277000Y-113037000D01*
X66257000Y-113037000D01*
X66257000Y-114230155D01*
X66486890Y-114351476D01*
X66634099Y-114306825D01*
X66896920Y-114181641D01*
X67130269Y-114007588D01*
X67325178Y-113791355D01*
X67394805Y-113674466D01*
X67516525Y-113856632D01*
X67723368Y-114063475D01*
X67966589Y-114225990D01*
X68236842Y-114337932D01*
X68523740Y-114395000D01*
X68816260Y-114395000D01*
X69103158Y-114337932D01*
X69373411Y-114225990D01*
X69616632Y-114063475D01*
X69823475Y-113856632D01*
X69940000Y-113682240D01*
X70056525Y-113856632D01*
X70263368Y-114063475D01*
X70506589Y-114225990D01*
X70776842Y-114337932D01*
X71063740Y-114395000D01*
X71356260Y-114395000D01*
X71643158Y-114337932D01*
X71913411Y-114225990D01*
X72156632Y-114063475D01*
X72288487Y-113931620D01*
X72310498Y-114004180D01*
X72369463Y-114114494D01*
X72448815Y-114211185D01*
X72545506Y-114290537D01*
X72655820Y-114349502D01*
X72775518Y-114385812D01*
X72900000Y-114398072D01*
X74600000Y-114398072D01*
X74724482Y-114385812D01*
X74844180Y-114349502D01*
X74954494Y-114290537D01*
X75051185Y-114211185D01*
X75130537Y-114114494D01*
X75189502Y-114004180D01*
X75225812Y-113884482D01*
X75238072Y-113760000D01*
X75238072Y-112060000D01*
X75225812Y-111935518D01*
X75189502Y-111815820D01*
X75130537Y-111705506D01*
X75051185Y-111608815D01*
X74954494Y-111529463D01*
X74844180Y-111470498D01*
X74724482Y-111434188D01*
X74600000Y-111421928D01*
X72900000Y-111421928D01*
X72775518Y-111434188D01*
X72655820Y-111470498D01*
X72545506Y-111529463D01*
X72448815Y-111608815D01*
X72369463Y-111705506D01*
X72310498Y-111815820D01*
X72288487Y-111888380D01*
X72156632Y-111756525D01*
X71913411Y-111594010D01*
X71643158Y-111482068D01*
X71356260Y-111425000D01*
X71063740Y-111425000D01*
X70776842Y-111482068D01*
X70506589Y-111594010D01*
X70263368Y-111756525D01*
X70056525Y-111963368D01*
X69940000Y-112137760D01*
X69823475Y-111963368D01*
X69616632Y-111756525D01*
X69373411Y-111594010D01*
X69103158Y-111482068D01*
X68816260Y-111425000D01*
X68523740Y-111425000D01*
X68236842Y-111482068D01*
X67966589Y-111594010D01*
X67723368Y-111756525D01*
X67516525Y-111963368D01*
X67394805Y-112145534D01*
X67325178Y-112028645D01*
X67130269Y-111812412D01*
X66896920Y-111638359D01*
X66634099Y-111513175D01*
X66486890Y-111468524D01*
X66257000Y-111589845D01*
X66003000Y-111589845D01*
X65773110Y-111468524D01*
X65625901Y-111513175D01*
X65363080Y-111638359D01*
X65129731Y-111812412D01*
X64934822Y-112028645D01*
X64785843Y-112278748D01*
X64688519Y-112553109D01*
X60738072Y-112553109D01*
X60738072Y-112150000D01*
X60735000Y-112118808D01*
X60735000Y-97128589D01*
X60865000Y-97128589D01*
X60865000Y-97401411D01*
X60918225Y-97668989D01*
X61022629Y-97921043D01*
X61174201Y-98147886D01*
X61367114Y-98340799D01*
X61593957Y-98492371D01*
X61846011Y-98596775D01*
X62113589Y-98650000D01*
X62386411Y-98650000D01*
X62653989Y-98596775D01*
X62906043Y-98492371D01*
X63132886Y-98340799D01*
X63325799Y-98147886D01*
X63477371Y-97921043D01*
X63581775Y-97668989D01*
X63635000Y-97401411D01*
X63635000Y-97128589D01*
X63581775Y-96861011D01*
X63477371Y-96608957D01*
X63325799Y-96382114D01*
X63132886Y-96189201D01*
X62906043Y-96037629D01*
X62653989Y-95933225D01*
X62386411Y-95880000D01*
X62113589Y-95880000D01*
X61846011Y-95933225D01*
X61593957Y-96037629D01*
X61367114Y-96189201D01*
X61174201Y-96382114D01*
X61022629Y-96608957D01*
X60918225Y-96861011D01*
X60865000Y-97128589D01*
X60735000Y-97128589D01*
X60735000Y-88794030D01*
X60756440Y-88802911D01*
X60765209Y-88804655D01*
X61954746Y-89994193D01*
X61977762Y-90022238D01*
X62089680Y-90114087D01*
X62217367Y-90182337D01*
X62310520Y-90210595D01*
X62354479Y-90239967D01*
X62506440Y-90302911D01*
X62667760Y-90335000D01*
X62832240Y-90335000D01*
X62993560Y-90302911D01*
X63145521Y-90239967D01*
X63282281Y-90148587D01*
X63398587Y-90032281D01*
X63489967Y-89895521D01*
X63552911Y-89743560D01*
X63585000Y-89582240D01*
X63585000Y-89417760D01*
X63552911Y-89256440D01*
X63547081Y-89242365D01*
X64304447Y-88485000D01*
X69213895Y-88485000D01*
X69250000Y-88488556D01*
X69286105Y-88485000D01*
X69394085Y-88474365D01*
X69532633Y-88432337D01*
X69660320Y-88364087D01*
X69732081Y-88305194D01*
X69743560Y-88302911D01*
X69895521Y-88239967D01*
X70032281Y-88148587D01*
X70035356Y-88145513D01*
X70465000Y-88575157D01*
X70465001Y-97237489D01*
X70351939Y-97215000D01*
X70148061Y-97215000D01*
X69948102Y-97254774D01*
X69759744Y-97332795D01*
X69590226Y-97446063D01*
X69446063Y-97590226D01*
X69332795Y-97759744D01*
X69254774Y-97948102D01*
X69215000Y-98148061D01*
X69215000Y-98351939D01*
X69254774Y-98551898D01*
X69332795Y-98740256D01*
X69446063Y-98909774D01*
X69590226Y-99053937D01*
X69759744Y-99167205D01*
X69948102Y-99245226D01*
X70148061Y-99285000D01*
X70210199Y-99285000D01*
X81186201Y-110261003D01*
X81209999Y-110290001D01*
X81238997Y-110313799D01*
X81325723Y-110384974D01*
X81457753Y-110455546D01*
X81601014Y-110499003D01*
X81712667Y-110510000D01*
X81712677Y-110510000D01*
X81750000Y-110513676D01*
X81787323Y-110510000D01*
X98546289Y-110510000D01*
X98590226Y-110553937D01*
X98759744Y-110667205D01*
X98948102Y-110745226D01*
X99148061Y-110785000D01*
X99351939Y-110785000D01*
X99551898Y-110745226D01*
X99740256Y-110667205D01*
X99909774Y-110553937D01*
X100053937Y-110409774D01*
X100167205Y-110240256D01*
X100245226Y-110051898D01*
X100285000Y-109851939D01*
X100285000Y-109648061D01*
X100245226Y-109448102D01*
X100167205Y-109259744D01*
X100053937Y-109090226D01*
X99909774Y-108946063D01*
X99740256Y-108832795D01*
X99551898Y-108754774D01*
X99351939Y-108715000D01*
X99148061Y-108715000D01*
X98948102Y-108754774D01*
X98759744Y-108832795D01*
X98590226Y-108946063D01*
X98546289Y-108990000D01*
X82064802Y-108990000D01*
X79609802Y-106535000D01*
X81213199Y-106535000D01*
X81256440Y-106552911D01*
X81417760Y-106585000D01*
X81582240Y-106585000D01*
X81743560Y-106552911D01*
X81895521Y-106489967D01*
X82032281Y-106398587D01*
X82148587Y-106282281D01*
X82239967Y-106145521D01*
X82302911Y-105993560D01*
X82317988Y-105917760D01*
X86415000Y-105917760D01*
X86415000Y-106082240D01*
X86447089Y-106243560D01*
X86510033Y-106395521D01*
X86601413Y-106532281D01*
X86717719Y-106648587D01*
X86854479Y-106739967D01*
X87006440Y-106802911D01*
X87167760Y-106835000D01*
X87332240Y-106835000D01*
X87493560Y-106802911D01*
X87536801Y-106785000D01*
X96463199Y-106785000D01*
X96506440Y-106802911D01*
X96667760Y-106835000D01*
X96832240Y-106835000D01*
X96993560Y-106802911D01*
X97145521Y-106739967D01*
X97282281Y-106648587D01*
X97398587Y-106532281D01*
X97489967Y-106395521D01*
X97552911Y-106243560D01*
X97585000Y-106082240D01*
X97585000Y-105917760D01*
X97552911Y-105756440D01*
X97489967Y-105604479D01*
X97398587Y-105467719D01*
X97282281Y-105351413D01*
X97145521Y-105260033D01*
X96993560Y-105197089D01*
X96832240Y-105165000D01*
X96667760Y-105165000D01*
X96506440Y-105197089D01*
X96463199Y-105215000D01*
X87536801Y-105215000D01*
X87493560Y-105197089D01*
X87332240Y-105165000D01*
X87167760Y-105165000D01*
X87006440Y-105197089D01*
X86854479Y-105260033D01*
X86717719Y-105351413D01*
X86601413Y-105467719D01*
X86510033Y-105604479D01*
X86447089Y-105756440D01*
X86415000Y-105917760D01*
X82317988Y-105917760D01*
X82335000Y-105832240D01*
X82335000Y-105667760D01*
X82302911Y-105506440D01*
X82239967Y-105354479D01*
X82148587Y-105217719D01*
X82032281Y-105101413D01*
X81895521Y-105010033D01*
X81743560Y-104947089D01*
X81582240Y-104915000D01*
X81417760Y-104915000D01*
X81256440Y-104947089D01*
X81213199Y-104965000D01*
X79075157Y-104965000D01*
X72035000Y-97924843D01*
X72035000Y-88288556D01*
X72038797Y-88250000D01*
X72035000Y-88211440D01*
X72035000Y-88211439D01*
X72029965Y-88160319D01*
X72023642Y-88096113D01*
X71978754Y-87948140D01*
X71929459Y-87855915D01*
X71905862Y-87811767D01*
X71807764Y-87692236D01*
X71777811Y-87667654D01*
X66777917Y-82667760D01*
X68665000Y-82667760D01*
X68665000Y-82832240D01*
X68697089Y-82993560D01*
X68760033Y-83145521D01*
X68851413Y-83282281D01*
X68967719Y-83398587D01*
X69104479Y-83489967D01*
X69256440Y-83552911D01*
X69417760Y-83585000D01*
X69582240Y-83585000D01*
X69743560Y-83552911D01*
X69895521Y-83489967D01*
X70032281Y-83398587D01*
X70148587Y-83282281D01*
X70239967Y-83145521D01*
X70302911Y-82993560D01*
X70335000Y-82832240D01*
X70335000Y-82667760D01*
X70302911Y-82506440D01*
X70239967Y-82354479D01*
X70235000Y-82347045D01*
X70235000Y-81054446D01*
X77015000Y-74274446D01*
X77015001Y-78445552D01*
X76195554Y-79265000D01*
X75652955Y-79265000D01*
X75645521Y-79260033D01*
X75493560Y-79197089D01*
X75332240Y-79165000D01*
X75167760Y-79165000D01*
X75006440Y-79197089D01*
X74854479Y-79260033D01*
X74717719Y-79351413D01*
X74601413Y-79467719D01*
X74510033Y-79604479D01*
X74447089Y-79756440D01*
X74415000Y-79917760D01*
X74415000Y-80082240D01*
X74447089Y-80243560D01*
X74510033Y-80395521D01*
X74515000Y-80402955D01*
X74515001Y-86347044D01*
X74510033Y-86354479D01*
X74447089Y-86506440D01*
X74415000Y-86667760D01*
X74415000Y-86832240D01*
X74447089Y-86993560D01*
X74510033Y-87145521D01*
X74515000Y-87152955D01*
X74515001Y-93713885D01*
X74511444Y-93750000D01*
X74525635Y-93894085D01*
X74567664Y-94032633D01*
X74635914Y-94160320D01*
X74727763Y-94272238D01*
X74755808Y-94295254D01*
X81704746Y-101244193D01*
X81727762Y-101272238D01*
X81839680Y-101364087D01*
X81967367Y-101432337D01*
X82105915Y-101474365D01*
X82250000Y-101488556D01*
X82286105Y-101485000D01*
X85597045Y-101485000D01*
X85604479Y-101489967D01*
X85756440Y-101552911D01*
X85917760Y-101585000D01*
X86082240Y-101585000D01*
X86243560Y-101552911D01*
X86395521Y-101489967D01*
X86532281Y-101398587D01*
X86648587Y-101282281D01*
X86739967Y-101145521D01*
X86802911Y-100993560D01*
X86804655Y-100984791D01*
X87054447Y-100735000D01*
X101097045Y-100735000D01*
X101104479Y-100739967D01*
X101256440Y-100802911D01*
X101417760Y-100835000D01*
X101582240Y-100835000D01*
X101743560Y-100802911D01*
X101895521Y-100739967D01*
X101902955Y-100735000D01*
X108445554Y-100735000D01*
X115011928Y-107301375D01*
X115011928Y-107970000D01*
X115024188Y-108094482D01*
X115060498Y-108214180D01*
X115119463Y-108324494D01*
X115198815Y-108421185D01*
X115295506Y-108500537D01*
X115405820Y-108559502D01*
X115525518Y-108595812D01*
X115650000Y-108608072D01*
X117350000Y-108608072D01*
X117474482Y-108595812D01*
X117594180Y-108559502D01*
X117704494Y-108500537D01*
X117801185Y-108421185D01*
X117880537Y-108324494D01*
X117939502Y-108214180D01*
X117975812Y-108094482D01*
X117988072Y-107970000D01*
X117988072Y-106270000D01*
X117975812Y-106145518D01*
X117939502Y-106025820D01*
X117880537Y-105915506D01*
X117801185Y-105818815D01*
X117704494Y-105739463D01*
X117594180Y-105680498D01*
X117521620Y-105658487D01*
X117653475Y-105526632D01*
X117815990Y-105283411D01*
X117927932Y-105013158D01*
X117985000Y-104726260D01*
X117985000Y-104433740D01*
X117927932Y-104146842D01*
X117815990Y-103876589D01*
X117653475Y-103633368D01*
X117446632Y-103426525D01*
X117272240Y-103310000D01*
X117446632Y-103193475D01*
X117653475Y-102986632D01*
X117815990Y-102743411D01*
X117927932Y-102473158D01*
X117985000Y-102186260D01*
X117985000Y-101893740D01*
X117927932Y-101606842D01*
X117815990Y-101336589D01*
X117653475Y-101093368D01*
X117446632Y-100886525D01*
X117264466Y-100764805D01*
X117381355Y-100695178D01*
X117597588Y-100500269D01*
X117771641Y-100266920D01*
X117896825Y-100004099D01*
X117941476Y-99856890D01*
X117820155Y-99627000D01*
X116627000Y-99627000D01*
X116627000Y-99647000D01*
X116373000Y-99647000D01*
X116373000Y-99627000D01*
X115179845Y-99627000D01*
X115058524Y-99856890D01*
X115103175Y-100004099D01*
X115228359Y-100266920D01*
X115402412Y-100500269D01*
X115618645Y-100695178D01*
X115735534Y-100764805D01*
X115553368Y-100886525D01*
X115346525Y-101093368D01*
X115184010Y-101336589D01*
X115072068Y-101606842D01*
X115015000Y-101893740D01*
X115015000Y-102186260D01*
X115072068Y-102473158D01*
X115184010Y-102743411D01*
X115346525Y-102986632D01*
X115553368Y-103193475D01*
X115727760Y-103310000D01*
X115553368Y-103426525D01*
X115346525Y-103633368D01*
X115184010Y-103876589D01*
X115072068Y-104146842D01*
X115015000Y-104433740D01*
X115015000Y-104726260D01*
X115072068Y-105013158D01*
X115184010Y-105283411D01*
X115346525Y-105526632D01*
X115478380Y-105658487D01*
X115455020Y-105665573D01*
X109485000Y-99695554D01*
X109485000Y-99143110D01*
X115058524Y-99143110D01*
X115179845Y-99373000D01*
X116373000Y-99373000D01*
X116373000Y-98179186D01*
X116627000Y-98179186D01*
X116627000Y-99373000D01*
X117820155Y-99373000D01*
X117941476Y-99143110D01*
X117896825Y-98995901D01*
X117771641Y-98733080D01*
X117597588Y-98499731D01*
X117381355Y-98304822D01*
X117131252Y-98155843D01*
X116856891Y-98058519D01*
X116627000Y-98179186D01*
X116373000Y-98179186D01*
X116143109Y-98058519D01*
X115868748Y-98155843D01*
X115618645Y-98304822D01*
X115402412Y-98499731D01*
X115228359Y-98733080D01*
X115103175Y-98995901D01*
X115058524Y-99143110D01*
X109485000Y-99143110D01*
X109485000Y-93389040D01*
X115358091Y-93389040D01*
X115452930Y-93653881D01*
X115597615Y-93895131D01*
X115786586Y-94103519D01*
X116012580Y-94271037D01*
X116266913Y-94391246D01*
X116400961Y-94431904D01*
X116623000Y-94309915D01*
X116623000Y-93167000D01*
X116877000Y-93167000D01*
X116877000Y-94309915D01*
X117099039Y-94431904D01*
X117233087Y-94391246D01*
X117487420Y-94271037D01*
X117713414Y-94103519D01*
X117902385Y-93895131D01*
X118047070Y-93653881D01*
X118141909Y-93389040D01*
X118020624Y-93167000D01*
X116877000Y-93167000D01*
X116623000Y-93167000D01*
X115479376Y-93167000D01*
X115358091Y-93389040D01*
X109485000Y-93389040D01*
X109485000Y-93152955D01*
X109489967Y-93145521D01*
X109552911Y-92993560D01*
X109585000Y-92832240D01*
X109585000Y-92667760D01*
X109552911Y-92506440D01*
X109489967Y-92354479D01*
X109398587Y-92217719D01*
X109282281Y-92101413D01*
X109145521Y-92010033D01*
X108993560Y-91947089D01*
X108832240Y-91915000D01*
X108667760Y-91915000D01*
X108506440Y-91947089D01*
X108354479Y-92010033D01*
X108217719Y-92101413D01*
X108101413Y-92217719D01*
X108010033Y-92354479D01*
X107947089Y-92506440D01*
X107915000Y-92667760D01*
X107915000Y-92832240D01*
X107947089Y-92993560D01*
X108010033Y-93145521D01*
X108015000Y-93152955D01*
X108015001Y-99265000D01*
X101902955Y-99265000D01*
X101895521Y-99260033D01*
X101743560Y-99197089D01*
X101582240Y-99165000D01*
X101417760Y-99165000D01*
X101256440Y-99197089D01*
X101104479Y-99260033D01*
X101097045Y-99265000D01*
X86786096Y-99265000D01*
X86749999Y-99261445D01*
X86713902Y-99265000D01*
X86713895Y-99265000D01*
X86620132Y-99274235D01*
X86605914Y-99275635D01*
X86563886Y-99288384D01*
X86467367Y-99317663D01*
X86339680Y-99385913D01*
X86227762Y-99477762D01*
X86204746Y-99505807D01*
X85765209Y-99945345D01*
X85756440Y-99947089D01*
X85604479Y-100010033D01*
X85597045Y-100015000D01*
X82554447Y-100015000D01*
X75985000Y-93445554D01*
X75985000Y-90358665D01*
X115315000Y-90358665D01*
X115315000Y-90641335D01*
X115370147Y-90918574D01*
X115478320Y-91179727D01*
X115635363Y-91414759D01*
X115835241Y-91614637D01*
X116070273Y-91771680D01*
X116081565Y-91776357D01*
X116012580Y-91808963D01*
X115786586Y-91976481D01*
X115597615Y-92184869D01*
X115452930Y-92426119D01*
X115358091Y-92690960D01*
X115479376Y-92913000D01*
X116623000Y-92913000D01*
X116623000Y-92893000D01*
X116877000Y-92893000D01*
X116877000Y-92913000D01*
X118020624Y-92913000D01*
X118141909Y-92690960D01*
X118047070Y-92426119D01*
X117902385Y-92184869D01*
X117713414Y-91976481D01*
X117487420Y-91808963D01*
X117418435Y-91776357D01*
X117429727Y-91771680D01*
X117664759Y-91614637D01*
X117864637Y-91414759D01*
X118021680Y-91179727D01*
X118129853Y-90918574D01*
X118185000Y-90641335D01*
X118185000Y-90358665D01*
X118129853Y-90081426D01*
X118021680Y-89820273D01*
X117864637Y-89585241D01*
X117664759Y-89385363D01*
X117429727Y-89228320D01*
X117168574Y-89120147D01*
X116891335Y-89065000D01*
X116608665Y-89065000D01*
X116331426Y-89120147D01*
X116070273Y-89228320D01*
X115835241Y-89385363D01*
X115635363Y-89585241D01*
X115478320Y-89820273D01*
X115370147Y-90081426D01*
X115315000Y-90358665D01*
X75985000Y-90358665D01*
X75985000Y-87575000D01*
X87436928Y-87575000D01*
X87436928Y-88925000D01*
X87449188Y-89049482D01*
X87485498Y-89169180D01*
X87544463Y-89279494D01*
X87623815Y-89376185D01*
X87720506Y-89455537D01*
X87830820Y-89514502D01*
X87950518Y-89550812D01*
X88075000Y-89563072D01*
X89425000Y-89563072D01*
X89549482Y-89550812D01*
X89669180Y-89514502D01*
X89779494Y-89455537D01*
X89876185Y-89376185D01*
X89955537Y-89279494D01*
X90014502Y-89169180D01*
X90050812Y-89049482D01*
X90063072Y-88925000D01*
X90063072Y-87575000D01*
X90050812Y-87450518D01*
X90014502Y-87330820D01*
X89955537Y-87220506D01*
X89876185Y-87123815D01*
X89789303Y-87052513D01*
X89910907Y-86870518D01*
X90009658Y-86632113D01*
X90060000Y-86379024D01*
X90060000Y-86120976D01*
X90009658Y-85867887D01*
X89910907Y-85629482D01*
X89767544Y-85414923D01*
X89602621Y-85250000D01*
X89767544Y-85085077D01*
X89910907Y-84870518D01*
X90009658Y-84632113D01*
X90060000Y-84379024D01*
X90060000Y-84120976D01*
X90009658Y-83867887D01*
X89910907Y-83629482D01*
X89870372Y-83568816D01*
X115325000Y-83568816D01*
X115325000Y-83871184D01*
X115383989Y-84167743D01*
X115499701Y-84447095D01*
X115667688Y-84698505D01*
X115881495Y-84912312D01*
X116132905Y-85080299D01*
X116412257Y-85196011D01*
X116708816Y-85255000D01*
X117011184Y-85255000D01*
X117307743Y-85196011D01*
X117587095Y-85080299D01*
X117838505Y-84912312D01*
X118052312Y-84698505D01*
X118220299Y-84447095D01*
X118336011Y-84167743D01*
X118395000Y-83871184D01*
X118395000Y-83568816D01*
X118336011Y-83272257D01*
X118220299Y-82992905D01*
X118052312Y-82741495D01*
X117838505Y-82527688D01*
X117587095Y-82359701D01*
X117307743Y-82243989D01*
X117011184Y-82185000D01*
X116708816Y-82185000D01*
X116412257Y-82243989D01*
X116132905Y-82359701D01*
X115881495Y-82527688D01*
X115667688Y-82741495D01*
X115499701Y-82992905D01*
X115383989Y-83272257D01*
X115325000Y-83568816D01*
X89870372Y-83568816D01*
X89767544Y-83414923D01*
X89602621Y-83250000D01*
X89767544Y-83085077D01*
X89910907Y-82870518D01*
X90009658Y-82632113D01*
X90060000Y-82379024D01*
X90060000Y-82120976D01*
X90009658Y-81867887D01*
X89910907Y-81629482D01*
X89767544Y-81414923D01*
X89602621Y-81250000D01*
X89767544Y-81085077D01*
X89910907Y-80870518D01*
X90009658Y-80632113D01*
X90060000Y-80379024D01*
X90060000Y-80120976D01*
X90009658Y-79867887D01*
X89927200Y-79668816D01*
X115325000Y-79668816D01*
X115325000Y-79971184D01*
X115383989Y-80267743D01*
X115499701Y-80547095D01*
X115667688Y-80798505D01*
X115881495Y-81012312D01*
X116132905Y-81180299D01*
X116412257Y-81296011D01*
X116708816Y-81355000D01*
X117011184Y-81355000D01*
X117307743Y-81296011D01*
X117587095Y-81180299D01*
X117838505Y-81012312D01*
X118052312Y-80798505D01*
X118220299Y-80547095D01*
X118336011Y-80267743D01*
X118395000Y-79971184D01*
X118395000Y-79668816D01*
X118336011Y-79372257D01*
X118220299Y-79092905D01*
X118052312Y-78841495D01*
X117838505Y-78627688D01*
X117587095Y-78459701D01*
X117307743Y-78343989D01*
X117011184Y-78285000D01*
X116708816Y-78285000D01*
X116412257Y-78343989D01*
X116132905Y-78459701D01*
X115881495Y-78627688D01*
X115667688Y-78841495D01*
X115499701Y-79092905D01*
X115383989Y-79372257D01*
X115325000Y-79668816D01*
X89927200Y-79668816D01*
X89910907Y-79629482D01*
X89767544Y-79414923D01*
X89602621Y-79250000D01*
X89767544Y-79085077D01*
X89910907Y-78870518D01*
X90009658Y-78632113D01*
X90060000Y-78379024D01*
X90060000Y-78167760D01*
X91665000Y-78167760D01*
X91665000Y-78332240D01*
X91697089Y-78493560D01*
X91760033Y-78645521D01*
X91851413Y-78782281D01*
X91967719Y-78898587D01*
X92104479Y-78989967D01*
X92256440Y-79052911D01*
X92417760Y-79085000D01*
X92582240Y-79085000D01*
X92743560Y-79052911D01*
X92895521Y-78989967D01*
X92902955Y-78985000D01*
X101347045Y-78985000D01*
X101354479Y-78989967D01*
X101506440Y-79052911D01*
X101667760Y-79085000D01*
X101832240Y-79085000D01*
X101993560Y-79052911D01*
X102145521Y-78989967D01*
X102282281Y-78898587D01*
X102398587Y-78782281D01*
X102489967Y-78645521D01*
X102552911Y-78493560D01*
X102585000Y-78332240D01*
X102585000Y-78167760D01*
X102552911Y-78006440D01*
X102489967Y-77854479D01*
X102398587Y-77717719D01*
X102282281Y-77601413D01*
X102145521Y-77510033D01*
X101993560Y-77447089D01*
X101832240Y-77415000D01*
X101667760Y-77415000D01*
X101506440Y-77447089D01*
X101354479Y-77510033D01*
X101347045Y-77515000D01*
X92902955Y-77515000D01*
X92895521Y-77510033D01*
X92743560Y-77447089D01*
X92582240Y-77415000D01*
X92417760Y-77415000D01*
X92256440Y-77447089D01*
X92104479Y-77510033D01*
X91967719Y-77601413D01*
X91851413Y-77717719D01*
X91760033Y-77854479D01*
X91697089Y-78006440D01*
X91665000Y-78167760D01*
X90060000Y-78167760D01*
X90060000Y-78120976D01*
X90009658Y-77867887D01*
X89910907Y-77629482D01*
X89767544Y-77414923D01*
X89602621Y-77250000D01*
X89767544Y-77085077D01*
X89910907Y-76870518D01*
X90009658Y-76632113D01*
X90060000Y-76379024D01*
X90060000Y-76120976D01*
X90009658Y-75867887D01*
X89910907Y-75629482D01*
X89767544Y-75414923D01*
X89585077Y-75232456D01*
X89370518Y-75089093D01*
X89132113Y-74990342D01*
X88879024Y-74940000D01*
X88620976Y-74940000D01*
X88367887Y-74990342D01*
X88129482Y-75089093D01*
X87914923Y-75232456D01*
X87732456Y-75414923D01*
X87589093Y-75629482D01*
X87490342Y-75867887D01*
X87440000Y-76120976D01*
X87440000Y-76379024D01*
X87490342Y-76632113D01*
X87589093Y-76870518D01*
X87732456Y-77085077D01*
X87897379Y-77250000D01*
X87732456Y-77414923D01*
X87589093Y-77629482D01*
X87490342Y-77867887D01*
X87440000Y-78120976D01*
X87440000Y-78379024D01*
X87490342Y-78632113D01*
X87589093Y-78870518D01*
X87732456Y-79085077D01*
X87897379Y-79250000D01*
X87732456Y-79414923D01*
X87589093Y-79629482D01*
X87490342Y-79867887D01*
X87440000Y-80120976D01*
X87440000Y-80379024D01*
X87490342Y-80632113D01*
X87589093Y-80870518D01*
X87732456Y-81085077D01*
X87897379Y-81250000D01*
X87732456Y-81414923D01*
X87589093Y-81629482D01*
X87490342Y-81867887D01*
X87440000Y-82120976D01*
X87440000Y-82379024D01*
X87490342Y-82632113D01*
X87589093Y-82870518D01*
X87732456Y-83085077D01*
X87897379Y-83250000D01*
X87732456Y-83414923D01*
X87589093Y-83629482D01*
X87490342Y-83867887D01*
X87440000Y-84120976D01*
X87440000Y-84379024D01*
X87490342Y-84632113D01*
X87589093Y-84870518D01*
X87732456Y-85085077D01*
X87897379Y-85250000D01*
X87732456Y-85414923D01*
X87589093Y-85629482D01*
X87490342Y-85867887D01*
X87440000Y-86120976D01*
X87440000Y-86379024D01*
X87490342Y-86632113D01*
X87589093Y-86870518D01*
X87710697Y-87052513D01*
X87623815Y-87123815D01*
X87544463Y-87220506D01*
X87485498Y-87330820D01*
X87449188Y-87450518D01*
X87436928Y-87575000D01*
X75985000Y-87575000D01*
X75985000Y-87152955D01*
X75989967Y-87145521D01*
X76052911Y-86993560D01*
X76085000Y-86832240D01*
X76085000Y-86667760D01*
X76052911Y-86506440D01*
X75989967Y-86354479D01*
X75985000Y-86347045D01*
X75985000Y-80735000D01*
X76463895Y-80735000D01*
X76500000Y-80738556D01*
X76536105Y-80735000D01*
X76644085Y-80724365D01*
X76782633Y-80682337D01*
X76910320Y-80614087D01*
X77022238Y-80522238D01*
X77045258Y-80494188D01*
X78244193Y-79295254D01*
X78272238Y-79272238D01*
X78364087Y-79160320D01*
X78432337Y-79032633D01*
X78474365Y-78894085D01*
X78485000Y-78786105D01*
X78488556Y-78750000D01*
X78485000Y-78713895D01*
X78485000Y-70402955D01*
X78489967Y-70395521D01*
X78509312Y-70348816D01*
X114965000Y-70348816D01*
X114965000Y-70651184D01*
X115023989Y-70947743D01*
X115139701Y-71227095D01*
X115307688Y-71478505D01*
X115521495Y-71692312D01*
X115772905Y-71860299D01*
X116052257Y-71976011D01*
X116348816Y-72035000D01*
X116651184Y-72035000D01*
X116947743Y-71976011D01*
X117227095Y-71860299D01*
X117478505Y-71692312D01*
X117692312Y-71478505D01*
X117860299Y-71227095D01*
X117976011Y-70947743D01*
X118035000Y-70651184D01*
X118035000Y-70348816D01*
X117976011Y-70052257D01*
X117860299Y-69772905D01*
X117692312Y-69521495D01*
X117478505Y-69307688D01*
X117227095Y-69139701D01*
X116947743Y-69023989D01*
X116651184Y-68965000D01*
X116348816Y-68965000D01*
X116052257Y-69023989D01*
X115772905Y-69139701D01*
X115521495Y-69307688D01*
X115307688Y-69521495D01*
X115139701Y-69772905D01*
X115023989Y-70052257D01*
X114965000Y-70348816D01*
X78509312Y-70348816D01*
X78552911Y-70243560D01*
X78585000Y-70082240D01*
X78585000Y-69917760D01*
X78552911Y-69756440D01*
X78489967Y-69604479D01*
X78398587Y-69467719D01*
X78282281Y-69351413D01*
X78145521Y-69260033D01*
X77993560Y-69197089D01*
X77832240Y-69165000D01*
X77735000Y-69165000D01*
X77735000Y-63554446D01*
X79484792Y-61804655D01*
X79493560Y-61802911D01*
X79645521Y-61739967D01*
X79782281Y-61648587D01*
X79898587Y-61532281D01*
X79989967Y-61395521D01*
X80052911Y-61243560D01*
X80085000Y-61082240D01*
X80085000Y-60917760D01*
X80052911Y-60756440D01*
X79989967Y-60604479D01*
X79898587Y-60467719D01*
X79782281Y-60351413D01*
X79645521Y-60260033D01*
X79493560Y-60197089D01*
X79332240Y-60165000D01*
X79167760Y-60165000D01*
X79006440Y-60197089D01*
X78854479Y-60260033D01*
X78717719Y-60351413D01*
X78601413Y-60467719D01*
X78510033Y-60604479D01*
X78447089Y-60756440D01*
X78445345Y-60765208D01*
X76505808Y-62704746D01*
X76477763Y-62727762D01*
X76385914Y-62839680D01*
X76333237Y-62938232D01*
X76317664Y-62967367D01*
X76275635Y-63105915D01*
X76261444Y-63250000D01*
X76265001Y-63286115D01*
X76265000Y-72945553D01*
X69005808Y-80204746D01*
X68977763Y-80227762D01*
X68885914Y-80339680D01*
X68854428Y-80398587D01*
X68817664Y-80467367D01*
X68775635Y-80605915D01*
X68761444Y-80750000D01*
X68765001Y-80786115D01*
X68765000Y-82347045D01*
X68760033Y-82354479D01*
X68697089Y-82506440D01*
X68665000Y-82667760D01*
X66777917Y-82667760D01*
X62645513Y-78535356D01*
X62648587Y-78532281D01*
X62739967Y-78395521D01*
X62802911Y-78243560D01*
X62835000Y-78082240D01*
X62835000Y-77917760D01*
X62802911Y-77756440D01*
X62739967Y-77604479D01*
X62648587Y-77467719D01*
X62532281Y-77351413D01*
X62395521Y-77260033D01*
X62243560Y-77197089D01*
X62235000Y-77195386D01*
X62235000Y-73878072D01*
X62350000Y-73878072D01*
X62474482Y-73865812D01*
X62594180Y-73829502D01*
X62704494Y-73770537D01*
X62801185Y-73691185D01*
X62880537Y-73594494D01*
X62939502Y-73484180D01*
X62975812Y-73364482D01*
X62988072Y-73240000D01*
X62988072Y-71540000D01*
X62975812Y-71415518D01*
X62971105Y-71400000D01*
X64511928Y-71400000D01*
X64511928Y-73100000D01*
X64524188Y-73224482D01*
X64560498Y-73344180D01*
X64619463Y-73454494D01*
X64698815Y-73551185D01*
X64795506Y-73630537D01*
X64905820Y-73689502D01*
X65025518Y-73725812D01*
X65150000Y-73738072D01*
X66850000Y-73738072D01*
X66974482Y-73725812D01*
X67094180Y-73689502D01*
X67204494Y-73630537D01*
X67301185Y-73551185D01*
X67380537Y-73454494D01*
X67439502Y-73344180D01*
X67461513Y-73271620D01*
X67593368Y-73403475D01*
X67836589Y-73565990D01*
X68106842Y-73677932D01*
X68393740Y-73735000D01*
X68686260Y-73735000D01*
X68973158Y-73677932D01*
X69243411Y-73565990D01*
X69486632Y-73403475D01*
X69693475Y-73196632D01*
X69815195Y-73014466D01*
X69884822Y-73131355D01*
X70079731Y-73347588D01*
X70313080Y-73521641D01*
X70575901Y-73646825D01*
X70723110Y-73691476D01*
X70953000Y-73570155D01*
X70953000Y-72377000D01*
X71207000Y-72377000D01*
X71207000Y-73570155D01*
X71436890Y-73691476D01*
X71584099Y-73646825D01*
X71846920Y-73521641D01*
X72080269Y-73347588D01*
X72275178Y-73131355D01*
X72424157Y-72881252D01*
X72521481Y-72606891D01*
X72400814Y-72377000D01*
X71207000Y-72377000D01*
X70953000Y-72377000D01*
X70933000Y-72377000D01*
X70933000Y-72123000D01*
X70953000Y-72123000D01*
X70953000Y-70929845D01*
X71207000Y-70929845D01*
X71207000Y-72123000D01*
X72400814Y-72123000D01*
X72521481Y-71893109D01*
X72424157Y-71618748D01*
X72275178Y-71368645D01*
X72080269Y-71152412D01*
X71846920Y-70978359D01*
X71584099Y-70853175D01*
X71436890Y-70808524D01*
X71207000Y-70929845D01*
X70953000Y-70929845D01*
X70723110Y-70808524D01*
X70575901Y-70853175D01*
X70313080Y-70978359D01*
X70079731Y-71152412D01*
X69884822Y-71368645D01*
X69815195Y-71485534D01*
X69693475Y-71303368D01*
X69486632Y-71096525D01*
X69243411Y-70934010D01*
X68973158Y-70822068D01*
X68686260Y-70765000D01*
X68393740Y-70765000D01*
X68106842Y-70822068D01*
X67836589Y-70934010D01*
X67593368Y-71096525D01*
X67461513Y-71228380D01*
X67439502Y-71155820D01*
X67380537Y-71045506D01*
X67301185Y-70948815D01*
X67204494Y-70869463D01*
X67094180Y-70810498D01*
X66974482Y-70774188D01*
X66850000Y-70761928D01*
X65150000Y-70761928D01*
X65025518Y-70774188D01*
X64905820Y-70810498D01*
X64795506Y-70869463D01*
X64698815Y-70948815D01*
X64619463Y-71045506D01*
X64560498Y-71155820D01*
X64524188Y-71275518D01*
X64511928Y-71400000D01*
X62971105Y-71400000D01*
X62939502Y-71295820D01*
X62880537Y-71185506D01*
X62801185Y-71088815D01*
X62704494Y-71009463D01*
X62594180Y-70950498D01*
X62474482Y-70914188D01*
X62350000Y-70901928D01*
X60650000Y-70901928D01*
X60525518Y-70914188D01*
X60405820Y-70950498D01*
X60295506Y-71009463D01*
X60198815Y-71088815D01*
X60119463Y-71185506D01*
X60060498Y-71295820D01*
X60038487Y-71368380D01*
X59906632Y-71236525D01*
X59663411Y-71074010D01*
X59393158Y-70962068D01*
X59106260Y-70905000D01*
X58813740Y-70905000D01*
X58526842Y-70962068D01*
X58256589Y-71074010D01*
X58013368Y-71236525D01*
X57806525Y-71443368D01*
X57690000Y-71617760D01*
X57573475Y-71443368D01*
X57366632Y-71236525D01*
X57123411Y-71074010D01*
X56853158Y-70962068D01*
X56566260Y-70905000D01*
X56273740Y-70905000D01*
X55986842Y-70962068D01*
X55716589Y-71074010D01*
X55473368Y-71236525D01*
X55266525Y-71443368D01*
X55144805Y-71625534D01*
X55075178Y-71508645D01*
X54880269Y-71292412D01*
X54646920Y-71118359D01*
X54384099Y-70993175D01*
X54236890Y-70948524D01*
X54007000Y-71069845D01*
X54007000Y-72263000D01*
X54027000Y-72263000D01*
X54027000Y-72517000D01*
X54007000Y-72517000D01*
X54007000Y-72537000D01*
X53753000Y-72537000D01*
X53753000Y-72517000D01*
X52559186Y-72517000D01*
X52438519Y-72746891D01*
X52535843Y-73021252D01*
X52684822Y-73271355D01*
X52859371Y-73465000D01*
X52075157Y-73465000D01*
X50643266Y-72033109D01*
X52438519Y-72033109D01*
X52559186Y-72263000D01*
X53753000Y-72263000D01*
X53753000Y-71069845D01*
X53523110Y-70948524D01*
X53375901Y-70993175D01*
X53113080Y-71118359D01*
X52879731Y-71292412D01*
X52684822Y-71508645D01*
X52535843Y-71758748D01*
X52438519Y-72033109D01*
X50643266Y-72033109D01*
X48785000Y-70174843D01*
X48785000Y-68786801D01*
X48802911Y-68743560D01*
X48835000Y-68582240D01*
X48835000Y-68417760D01*
X48802911Y-68256440D01*
X48739967Y-68104479D01*
X48648587Y-67967719D01*
X48532281Y-67851413D01*
X48395521Y-67760033D01*
X48243560Y-67697089D01*
X48082240Y-67665000D01*
X47917760Y-67665000D01*
X47756440Y-67697089D01*
X47604479Y-67760033D01*
X47467719Y-67851413D01*
X47351413Y-67967719D01*
X47260033Y-68104479D01*
X47197089Y-68256440D01*
X47165000Y-68417760D01*
X30660000Y-68417760D01*
X30660000Y-55836890D01*
X40368524Y-55836890D01*
X40413175Y-55984099D01*
X40538359Y-56246920D01*
X40712412Y-56480269D01*
X40928645Y-56675178D01*
X41178748Y-56824157D01*
X41453109Y-56921481D01*
X41683000Y-56800814D01*
X41683000Y-55607000D01*
X41937000Y-55607000D01*
X41937000Y-56800814D01*
X42166891Y-56921481D01*
X42441252Y-56824157D01*
X42691355Y-56675178D01*
X42907588Y-56480269D01*
X43081641Y-56246920D01*
X43206825Y-55984099D01*
X43251476Y-55836890D01*
X43130155Y-55607000D01*
X41937000Y-55607000D01*
X41683000Y-55607000D01*
X40489845Y-55607000D01*
X40368524Y-55836890D01*
X30660000Y-55836890D01*
X30660000Y-52090000D01*
X40321928Y-52090000D01*
X40321928Y-53790000D01*
X40334188Y-53914482D01*
X40370498Y-54034180D01*
X40429463Y-54144494D01*
X40508815Y-54241185D01*
X40605506Y-54320537D01*
X40715820Y-54379502D01*
X40796466Y-54403966D01*
X40712412Y-54479731D01*
X40538359Y-54713080D01*
X40413175Y-54975901D01*
X40368524Y-55123110D01*
X40489845Y-55353000D01*
X41683000Y-55353000D01*
X41683000Y-55333000D01*
X41937000Y-55333000D01*
X41937000Y-55353000D01*
X43130155Y-55353000D01*
X43251476Y-55123110D01*
X43206825Y-54975901D01*
X43081641Y-54713080D01*
X42907588Y-54479731D01*
X42823534Y-54403966D01*
X42904180Y-54379502D01*
X43014494Y-54320537D01*
X43111185Y-54241185D01*
X43190537Y-54144494D01*
X43249502Y-54034180D01*
X43285812Y-53914482D01*
X43298072Y-53790000D01*
X43298072Y-52090000D01*
X43285812Y-51965518D01*
X43249502Y-51845820D01*
X43190537Y-51735506D01*
X43111185Y-51638815D01*
X43014494Y-51559463D01*
X42904180Y-51500498D01*
X42784482Y-51464188D01*
X42660000Y-51451928D01*
X40960000Y-51451928D01*
X40835518Y-51464188D01*
X40715820Y-51500498D01*
X40605506Y-51559463D01*
X40508815Y-51638815D01*
X40429463Y-51735506D01*
X40370498Y-51845820D01*
X40334188Y-51965518D01*
X40321928Y-52090000D01*
X30660000Y-52090000D01*
X30660000Y-45460000D01*
X45571928Y-45460000D01*
X45571928Y-47160000D01*
X45584188Y-47284482D01*
X45620498Y-47404180D01*
X45679463Y-47514494D01*
X45758815Y-47611185D01*
X45855506Y-47690537D01*
X45965820Y-47749502D01*
X46085518Y-47785812D01*
X46210000Y-47798072D01*
X47910000Y-47798072D01*
X48034482Y-47785812D01*
X48154180Y-47749502D01*
X48264494Y-47690537D01*
X48361185Y-47611185D01*
X48440537Y-47514494D01*
X48499502Y-47404180D01*
X48521513Y-47331620D01*
X48653368Y-47463475D01*
X48896589Y-47625990D01*
X49166842Y-47737932D01*
X49453740Y-47795000D01*
X49746260Y-47795000D01*
X50033158Y-47737932D01*
X50303411Y-47625990D01*
X50546632Y-47463475D01*
X50753475Y-47256632D01*
X50870000Y-47082240D01*
X50986525Y-47256632D01*
X51193368Y-47463475D01*
X51436589Y-47625990D01*
X51706842Y-47737932D01*
X51993740Y-47795000D01*
X52286260Y-47795000D01*
X52573158Y-47737932D01*
X52843411Y-47625990D01*
X53086632Y-47463475D01*
X53293475Y-47256632D01*
X53410000Y-47082240D01*
X53526525Y-47256632D01*
X53733368Y-47463475D01*
X53976589Y-47625990D01*
X54246842Y-47737932D01*
X54533740Y-47795000D01*
X54826260Y-47795000D01*
X55113158Y-47737932D01*
X55383411Y-47625990D01*
X55626632Y-47463475D01*
X55833475Y-47256632D01*
X55950000Y-47082240D01*
X56066525Y-47256632D01*
X56273368Y-47463475D01*
X56516589Y-47625990D01*
X56786842Y-47737932D01*
X57073740Y-47795000D01*
X57366260Y-47795000D01*
X57653158Y-47737932D01*
X57923411Y-47625990D01*
X58166632Y-47463475D01*
X58373475Y-47256632D01*
X58495195Y-47074466D01*
X58564822Y-47191355D01*
X58759731Y-47407588D01*
X58993080Y-47581641D01*
X59255901Y-47706825D01*
X59403110Y-47751476D01*
X59633000Y-47630155D01*
X59633000Y-46437000D01*
X59887000Y-46437000D01*
X59887000Y-47630155D01*
X60116890Y-47751476D01*
X60264099Y-47706825D01*
X60526920Y-47581641D01*
X60760269Y-47407588D01*
X60955178Y-47191355D01*
X61104157Y-46941252D01*
X61201481Y-46666891D01*
X61080814Y-46437000D01*
X59887000Y-46437000D01*
X59633000Y-46437000D01*
X59613000Y-46437000D01*
X59613000Y-46183000D01*
X59633000Y-46183000D01*
X59633000Y-46163000D01*
X59887000Y-46163000D01*
X59887000Y-46183000D01*
X61080814Y-46183000D01*
X61201481Y-45953109D01*
X61104157Y-45678748D01*
X60955178Y-45428645D01*
X60760269Y-45212412D01*
X60526920Y-45038359D01*
X60414894Y-44985000D01*
X86445554Y-44985000D01*
X91515001Y-50054448D01*
X91515000Y-59097045D01*
X91510033Y-59104479D01*
X91447089Y-59256440D01*
X91415000Y-59417760D01*
X91415000Y-59582240D01*
X91447089Y-59743560D01*
X91510033Y-59895521D01*
X91601413Y-60032281D01*
X91717719Y-60148587D01*
X91854479Y-60239967D01*
X92006440Y-60302911D01*
X92167760Y-60335000D01*
X92332240Y-60335000D01*
X92493560Y-60302911D01*
X92645521Y-60239967D01*
X92782281Y-60148587D01*
X92898587Y-60032281D01*
X92989967Y-59895521D01*
X93052911Y-59743560D01*
X93085000Y-59582240D01*
X93085000Y-59417760D01*
X93052911Y-59256440D01*
X92989967Y-59104479D01*
X92985000Y-59097045D01*
X92985000Y-49786105D01*
X92988556Y-49750000D01*
X92974365Y-49605915D01*
X92932337Y-49467366D01*
X92864087Y-49339680D01*
X92795253Y-49255806D01*
X92772238Y-49227762D01*
X92744193Y-49204746D01*
X89398112Y-45858665D01*
X93315000Y-45858665D01*
X93315000Y-46141335D01*
X93370147Y-46418574D01*
X93478320Y-46679727D01*
X93635363Y-46914759D01*
X93835241Y-47114637D01*
X94070273Y-47271680D01*
X94331426Y-47379853D01*
X94608665Y-47435000D01*
X94891335Y-47435000D01*
X95168574Y-47379853D01*
X95429727Y-47271680D01*
X95664759Y-47114637D01*
X95864637Y-46914759D01*
X96021680Y-46679727D01*
X96129853Y-46418574D01*
X96185000Y-46141335D01*
X96185000Y-45858665D01*
X96129853Y-45581426D01*
X96021680Y-45320273D01*
X95941317Y-45200000D01*
X100911928Y-45200000D01*
X100911928Y-46800000D01*
X100924188Y-46924482D01*
X100960498Y-47044180D01*
X101019463Y-47154494D01*
X101098815Y-47251185D01*
X101195506Y-47330537D01*
X101305820Y-47389502D01*
X101425518Y-47425812D01*
X101465001Y-47429701D01*
X101465000Y-61461447D01*
X101461203Y-61500000D01*
X101465000Y-61538553D01*
X101465000Y-61538560D01*
X101476359Y-61653886D01*
X101521246Y-61801859D01*
X101594138Y-61938232D01*
X101692236Y-62057764D01*
X101722190Y-62082347D01*
X102492121Y-62852278D01*
X102510033Y-62895521D01*
X102601413Y-63032281D01*
X102717719Y-63148587D01*
X102854479Y-63239967D01*
X103006440Y-63302911D01*
X103167760Y-63335000D01*
X103332240Y-63335000D01*
X103493560Y-63302911D01*
X103645521Y-63239967D01*
X103782281Y-63148587D01*
X103898587Y-63032281D01*
X103989967Y-62895521D01*
X104052911Y-62743560D01*
X104085000Y-62582240D01*
X104085000Y-62417760D01*
X104052911Y-62256440D01*
X103989967Y-62104479D01*
X103898587Y-61967719D01*
X103782281Y-61851413D01*
X103645521Y-61760033D01*
X103602278Y-61742121D01*
X103035000Y-61174843D01*
X103035000Y-47438072D01*
X103150000Y-47438072D01*
X103274482Y-47425812D01*
X103394180Y-47389502D01*
X103504494Y-47330537D01*
X103601185Y-47251185D01*
X103680537Y-47154494D01*
X103739502Y-47044180D01*
X103775812Y-46924482D01*
X103788072Y-46800000D01*
X103788072Y-45200000D01*
X103775812Y-45075518D01*
X103739502Y-44955820D01*
X103680537Y-44845506D01*
X103601185Y-44748815D01*
X103504494Y-44669463D01*
X103394180Y-44610498D01*
X103274482Y-44574188D01*
X103150000Y-44561928D01*
X101550000Y-44561928D01*
X101425518Y-44574188D01*
X101305820Y-44610498D01*
X101195506Y-44669463D01*
X101098815Y-44748815D01*
X101019463Y-44845506D01*
X100960498Y-44955820D01*
X100924188Y-45075518D01*
X100911928Y-45200000D01*
X95941317Y-45200000D01*
X95864637Y-45085241D01*
X95664759Y-44885363D01*
X95429727Y-44728320D01*
X95168574Y-44620147D01*
X94891335Y-44565000D01*
X94608665Y-44565000D01*
X94331426Y-44620147D01*
X94070273Y-44728320D01*
X93835241Y-44885363D01*
X93635363Y-45085241D01*
X93478320Y-45320273D01*
X93370147Y-45581426D01*
X93315000Y-45858665D01*
X89398112Y-45858665D01*
X87295259Y-43755813D01*
X87272238Y-43727762D01*
X87160320Y-43635913D01*
X87032633Y-43567663D01*
X86894085Y-43525635D01*
X86786105Y-43515000D01*
X86750000Y-43511444D01*
X86713895Y-43515000D01*
X58786105Y-43515000D01*
X58750000Y-43511444D01*
X58605915Y-43525635D01*
X58467366Y-43567663D01*
X58339680Y-43635913D01*
X58227762Y-43727762D01*
X58204746Y-43755807D01*
X57135554Y-44825000D01*
X57073740Y-44825000D01*
X56786842Y-44882068D01*
X56516589Y-44994010D01*
X56273368Y-45156525D01*
X56066525Y-45363368D01*
X55950000Y-45537760D01*
X55833475Y-45363368D01*
X55626632Y-45156525D01*
X55383411Y-44994010D01*
X55113158Y-44882068D01*
X54826260Y-44825000D01*
X54533740Y-44825000D01*
X54246842Y-44882068D01*
X53976589Y-44994010D01*
X53733368Y-45156525D01*
X53526525Y-45363368D01*
X53410000Y-45537760D01*
X53293475Y-45363368D01*
X53086632Y-45156525D01*
X52843411Y-44994010D01*
X52573158Y-44882068D01*
X52286260Y-44825000D01*
X51993740Y-44825000D01*
X51706842Y-44882068D01*
X51436589Y-44994010D01*
X51193368Y-45156525D01*
X50986525Y-45363368D01*
X50870000Y-45537760D01*
X50753475Y-45363368D01*
X50546632Y-45156525D01*
X50303411Y-44994010D01*
X50033158Y-44882068D01*
X49746260Y-44825000D01*
X49453740Y-44825000D01*
X49166842Y-44882068D01*
X48896589Y-44994010D01*
X48653368Y-45156525D01*
X48521513Y-45288380D01*
X48499502Y-45215820D01*
X48440537Y-45105506D01*
X48361185Y-45008815D01*
X48264494Y-44929463D01*
X48154180Y-44870498D01*
X48034482Y-44834188D01*
X47910000Y-44821928D01*
X46210000Y-44821928D01*
X46085518Y-44834188D01*
X45965820Y-44870498D01*
X45855506Y-44929463D01*
X45758815Y-45008815D01*
X45679463Y-45105506D01*
X45620498Y-45215820D01*
X45584188Y-45335518D01*
X45571928Y-45460000D01*
X30660000Y-45460000D01*
X30660000Y-38941229D01*
X32115000Y-38941229D01*
X32115000Y-39558771D01*
X32235476Y-40164446D01*
X32471799Y-40734979D01*
X32814886Y-41248446D01*
X33251554Y-41685114D01*
X33765021Y-42028201D01*
X34335554Y-42264524D01*
X34941229Y-42385000D01*
X35558771Y-42385000D01*
X36164446Y-42264524D01*
X36734979Y-42028201D01*
X37248446Y-41685114D01*
X37685114Y-41248446D01*
X38028201Y-40734979D01*
X38264524Y-40164446D01*
X38385000Y-39558771D01*
X38385000Y-38941229D01*
X38264524Y-38335554D01*
X38028201Y-37765021D01*
X37685114Y-37251554D01*
X37248446Y-36814886D01*
X36734979Y-36471799D01*
X36164446Y-36235476D01*
X35558771Y-36115000D01*
X34941229Y-36115000D01*
X34335554Y-36235476D01*
X33765021Y-36471799D01*
X33251554Y-36814886D01*
X32814886Y-37251554D01*
X32471799Y-37765021D01*
X32235476Y-38335554D01*
X32115000Y-38941229D01*
X30660000Y-38941229D01*
X30660000Y-35660000D01*
X118914217Y-35660000D01*
X118765021Y-35721799D01*
G37*
X118765021Y-35721799D02*
X118251554Y-36064886D01*
X117814886Y-36501554D01*
X117471799Y-37015021D01*
X117235476Y-37585554D01*
X117115000Y-38191229D01*
X117115000Y-38808771D01*
X117235476Y-39414446D01*
X117471799Y-39984979D01*
X117814886Y-40498446D01*
X118251554Y-40935114D01*
X118765021Y-41278201D01*
X119335554Y-41514524D01*
X119941229Y-41635000D01*
X120558771Y-41635000D01*
X121164446Y-41514524D01*
X121734979Y-41278201D01*
X122248446Y-40935114D01*
X122685114Y-40498446D01*
X123028201Y-39984979D01*
X123264524Y-39414446D01*
X123385000Y-38808771D01*
X123385000Y-38191229D01*
X123264524Y-37585554D01*
X123028201Y-37015021D01*
X122685114Y-36501554D01*
X122248446Y-36064886D01*
X121734979Y-35721799D01*
X121585783Y-35660000D01*
X124340000Y-35660000D01*
X124340001Y-121840000D01*
X30660000Y-121840000D01*
X30660000Y-118191229D01*
X32115000Y-118191229D01*
X32115000Y-118808771D01*
X32235476Y-119414446D01*
X32471799Y-119984979D01*
X32814886Y-120498446D01*
X33251554Y-120935114D01*
X33765021Y-121278201D01*
X34335554Y-121514524D01*
X34941229Y-121635000D01*
X35558771Y-121635000D01*
X36164446Y-121514524D01*
X36734979Y-121278201D01*
X37248446Y-120935114D01*
X37685114Y-120498446D01*
X38028201Y-119984979D01*
X38264524Y-119414446D01*
X38385000Y-118808771D01*
X38385000Y-118191229D01*
X38335273Y-117941229D01*
X117115000Y-117941229D01*
X117115000Y-118558771D01*
X117235476Y-119164446D01*
X117471799Y-119734979D01*
X117814886Y-120248446D01*
X118251554Y-120685114D01*
X118765021Y-121028201D01*
X119335554Y-121264524D01*
X119941229Y-121385000D01*
X120558771Y-121385000D01*
X121164446Y-121264524D01*
X121734979Y-121028201D01*
X122248446Y-120685114D01*
X122685114Y-120248446D01*
X123028201Y-119734979D01*
X123264524Y-119164446D01*
X123385000Y-118558771D01*
X123385000Y-117941229D01*
X123264524Y-117335554D01*
X123028201Y-116765021D01*
X122685114Y-116251554D01*
X122248446Y-115814886D01*
X121734979Y-115471799D01*
X121164446Y-115235476D01*
X120558771Y-115115000D01*
X119941229Y-115115000D01*
X119335554Y-115235476D01*
X118765021Y-115471799D01*
X118251554Y-115814886D01*
X117814886Y-116251554D01*
X117471799Y-116765021D01*
X117235476Y-117335554D01*
X117115000Y-117941229D01*
X38335273Y-117941229D01*
X38264524Y-117585554D01*
X38028201Y-117015021D01*
X37685114Y-116501554D01*
X37282376Y-116098816D01*
X90465000Y-116098816D01*
X90465000Y-116401184D01*
X90523989Y-116697743D01*
X90639701Y-116977095D01*
X90807688Y-117228505D01*
X91021495Y-117442312D01*
X91272905Y-117610299D01*
X91552257Y-117726011D01*
X91848816Y-117785000D01*
X92151184Y-117785000D01*
X92447743Y-117726011D01*
X92727095Y-117610299D01*
X92978505Y-117442312D01*
X93192312Y-117228505D01*
X93360299Y-116977095D01*
X93476011Y-116697743D01*
X93535000Y-116401184D01*
X93535000Y-116098816D01*
X105215000Y-116098816D01*
X105215000Y-116401184D01*
X105273989Y-116697743D01*
X105389701Y-116977095D01*
X105557688Y-117228505D01*
X105771495Y-117442312D01*
X106022905Y-117610299D01*
X106302257Y-117726011D01*
X106598816Y-117785000D01*
X106901184Y-117785000D01*
X107197743Y-117726011D01*
X107477095Y-117610299D01*
X107728505Y-117442312D01*
X107942312Y-117228505D01*
X108110299Y-116977095D01*
X108226011Y-116697743D01*
X108285000Y-116401184D01*
X108285000Y-116098816D01*
X108226011Y-115802257D01*
X108110299Y-115522905D01*
X107942312Y-115271495D01*
X107728505Y-115057688D01*
X107477095Y-114889701D01*
X107197743Y-114773989D01*
X106901184Y-114715000D01*
X106598816Y-114715000D01*
X106302257Y-114773989D01*
X106022905Y-114889701D01*
X105771495Y-115057688D01*
X105557688Y-115271495D01*
X105389701Y-115522905D01*
X105273989Y-115802257D01*
X105215000Y-116098816D01*
X93535000Y-116098816D01*
X93476011Y-115802257D01*
X93360299Y-115522905D01*
X93192312Y-115271495D01*
X92978505Y-115057688D01*
X92727095Y-114889701D01*
X92447743Y-114773989D01*
X92151184Y-114715000D01*
X91848816Y-114715000D01*
X91552257Y-114773989D01*
X91272905Y-114889701D01*
X91021495Y-115057688D01*
X90807688Y-115271495D01*
X90639701Y-115522905D01*
X90523989Y-115802257D01*
X90465000Y-116098816D01*
X37282376Y-116098816D01*
X37248446Y-116064886D01*
X36734979Y-115721799D01*
X36164446Y-115485476D01*
X35558771Y-115365000D01*
X34941229Y-115365000D01*
X34335554Y-115485476D01*
X33765021Y-115721799D01*
X33251554Y-116064886D01*
X32814886Y-116501554D01*
X32471799Y-117015021D01*
X32235476Y-117585554D01*
X32115000Y-118191229D01*
X30660000Y-118191229D01*
X30660000Y-113356891D01*
X50188519Y-113356891D01*
X50285843Y-113631252D01*
X50434822Y-113881355D01*
X50629731Y-114097588D01*
X50863080Y-114271641D01*
X51125901Y-114396825D01*
X51273110Y-114441476D01*
X51503000Y-114320155D01*
X51503000Y-113127000D01*
X50309186Y-113127000D01*
X50188519Y-113356891D01*
X30660000Y-113356891D01*
X30660000Y-112643109D01*
X50188519Y-112643109D01*
X50309186Y-112873000D01*
X51503000Y-112873000D01*
X51503000Y-111679845D01*
X51273110Y-111558524D01*
X51125901Y-111603175D01*
X50863080Y-111728359D01*
X50629731Y-111902412D01*
X50434822Y-112118645D01*
X50285843Y-112368748D01*
X50188519Y-112643109D01*
X30660000Y-112643109D01*
X30660000Y-104616890D01*
X40058524Y-104616890D01*
X40103175Y-104764099D01*
X40228359Y-105026920D01*
X40402412Y-105260269D01*
X40618645Y-105455178D01*
X40868748Y-105604157D01*
X41143109Y-105701481D01*
X41373000Y-105580814D01*
X41373000Y-104387000D01*
X41627000Y-104387000D01*
X41627000Y-105580814D01*
X41856891Y-105701481D01*
X42131252Y-105604157D01*
X42381355Y-105455178D01*
X42597588Y-105260269D01*
X42771641Y-105026920D01*
X42896825Y-104764099D01*
X42903561Y-104741890D01*
X44768524Y-104741890D01*
X44813175Y-104889099D01*
X44938359Y-105151920D01*
X45112412Y-105385269D01*
X45328645Y-105580178D01*
X45578748Y-105729157D01*
X45853109Y-105826481D01*
X46083000Y-105705814D01*
X46083000Y-104512000D01*
X46337000Y-104512000D01*
X46337000Y-105705814D01*
X46566891Y-105826481D01*
X46841252Y-105729157D01*
X47091355Y-105580178D01*
X47307588Y-105385269D01*
X47481641Y-105151920D01*
X47606825Y-104889099D01*
X47651476Y-104741890D01*
X47530155Y-104512000D01*
X46337000Y-104512000D01*
X46083000Y-104512000D01*
X44889845Y-104512000D01*
X44768524Y-104741890D01*
X42903561Y-104741890D01*
X42941476Y-104616890D01*
X42820155Y-104387000D01*
X41627000Y-104387000D01*
X41373000Y-104387000D01*
X40179845Y-104387000D01*
X40058524Y-104616890D01*
X30660000Y-104616890D01*
X30660000Y-100870000D01*
X40011928Y-100870000D01*
X40011928Y-102570000D01*
X40024188Y-102694482D01*
X40060498Y-102814180D01*
X40119463Y-102924494D01*
X40198815Y-103021185D01*
X40295506Y-103100537D01*
X40405820Y-103159502D01*
X40486466Y-103183966D01*
X40402412Y-103259731D01*
X40228359Y-103493080D01*
X40103175Y-103755901D01*
X40058524Y-103903110D01*
X40179845Y-104133000D01*
X41373000Y-104133000D01*
X41373000Y-104113000D01*
X41627000Y-104113000D01*
X41627000Y-104133000D01*
X42820155Y-104133000D01*
X42941476Y-103903110D01*
X42896825Y-103755901D01*
X42771641Y-103493080D01*
X42597588Y-103259731D01*
X42513534Y-103183966D01*
X42594180Y-103159502D01*
X42704494Y-103100537D01*
X42801185Y-103021185D01*
X42880537Y-102924494D01*
X42939502Y-102814180D01*
X42975812Y-102694482D01*
X42988072Y-102570000D01*
X42988072Y-100995000D01*
X44721928Y-100995000D01*
X44721928Y-102695000D01*
X44734188Y-102819482D01*
X44770498Y-102939180D01*
X44829463Y-103049494D01*
X44908815Y-103146185D01*
X45005506Y-103225537D01*
X45115820Y-103284502D01*
X45196466Y-103308966D01*
X45112412Y-103384731D01*
X44938359Y-103618080D01*
X44813175Y-103880901D01*
X44768524Y-104028110D01*
X44889845Y-104258000D01*
X46083000Y-104258000D01*
X46083000Y-104238000D01*
X46337000Y-104238000D01*
X46337000Y-104258000D01*
X47530155Y-104258000D01*
X47651476Y-104028110D01*
X47606825Y-103880901D01*
X47481641Y-103618080D01*
X47307588Y-103384731D01*
X47223534Y-103308966D01*
X47304180Y-103284502D01*
X47414494Y-103225537D01*
X47511185Y-103146185D01*
X47590537Y-103049494D01*
X47649502Y-102939180D01*
X47685812Y-102819482D01*
X47698072Y-102695000D01*
X47698072Y-100995000D01*
X47685812Y-100870518D01*
X47649502Y-100750820D01*
X47590537Y-100640506D01*
X47511185Y-100543815D01*
X47414494Y-100464463D01*
X47304180Y-100405498D01*
X47184482Y-100369188D01*
X47060000Y-100356928D01*
X45360000Y-100356928D01*
X45235518Y-100369188D01*
X45115820Y-100405498D01*
X45005506Y-100464463D01*
X44908815Y-100543815D01*
X44829463Y-100640506D01*
X44770498Y-100750820D01*
X44734188Y-100870518D01*
X44721928Y-100995000D01*
X42988072Y-100995000D01*
X42988072Y-100870000D01*
X42975812Y-100745518D01*
X42939502Y-100625820D01*
X42880537Y-100515506D01*
X42801185Y-100418815D01*
X42704494Y-100339463D01*
X42594180Y-100280498D01*
X42474482Y-100244188D01*
X42350000Y-100231928D01*
X40650000Y-100231928D01*
X40525518Y-100244188D01*
X40405820Y-100280498D01*
X40295506Y-100339463D01*
X40198815Y-100418815D01*
X40119463Y-100515506D01*
X40060498Y-100625820D01*
X40024188Y-100745518D01*
X40011928Y-100870000D01*
X30660000Y-100870000D01*
X30660000Y-76100000D01*
X40761928Y-76100000D01*
X40774188Y-76224482D01*
X40810498Y-76344180D01*
X40869463Y-76454494D01*
X40948815Y-76551185D01*
X41045506Y-76630537D01*
X41155820Y-76689502D01*
X41228380Y-76711513D01*
X41096525Y-76843368D01*
X40934010Y-77086589D01*
X40822068Y-77356842D01*
X40765000Y-77643740D01*
X40765000Y-77936260D01*
X40822068Y-78223158D01*
X40934010Y-78493411D01*
X41096525Y-78736632D01*
X41303368Y-78943475D01*
X41477760Y-79060000D01*
X41303368Y-79176525D01*
X41096525Y-79383368D01*
X40934010Y-79626589D01*
X40822068Y-79896842D01*
X40765000Y-80183740D01*
X40765000Y-80476260D01*
X40822068Y-80763158D01*
X40934010Y-81033411D01*
X41096525Y-81276632D01*
X41303368Y-81483475D01*
X41477760Y-81600000D01*
X41303368Y-81716525D01*
X41096525Y-81923368D01*
X40934010Y-82166589D01*
X40822068Y-82436842D01*
X40765000Y-82723740D01*
X40765000Y-83016260D01*
X40822068Y-83303158D01*
X40934010Y-83573411D01*
X41096525Y-83816632D01*
X41303368Y-84023475D01*
X41477760Y-84140000D01*
X41303368Y-84256525D01*
X41096525Y-84463368D01*
X40934010Y-84706589D01*
X40822068Y-84976842D01*
X40765000Y-85263740D01*
X40765000Y-85556260D01*
X40822068Y-85843158D01*
X40934010Y-86113411D01*
X41096525Y-86356632D01*
X41303368Y-86563475D01*
X41477760Y-86680000D01*
X41303368Y-86796525D01*
X41096525Y-87003368D01*
X40934010Y-87246589D01*
X40822068Y-87516842D01*
X40765000Y-87803740D01*
X40765000Y-88096260D01*
X40822068Y-88383158D01*
X40934010Y-88653411D01*
X41096525Y-88896632D01*
X41303368Y-89103475D01*
X41477760Y-89220000D01*
X41303368Y-89336525D01*
X41096525Y-89543368D01*
X40934010Y-89786589D01*
X40822068Y-90056842D01*
X40765000Y-90343740D01*
X40765000Y-90636260D01*
X40822068Y-90923158D01*
X40934010Y-91193411D01*
X41096525Y-91436632D01*
X41303368Y-91643475D01*
X41546589Y-91805990D01*
X41816842Y-91917932D01*
X42103740Y-91975000D01*
X42396260Y-91975000D01*
X42683158Y-91917932D01*
X42953411Y-91805990D01*
X43196632Y-91643475D01*
X43403475Y-91436632D01*
X43565990Y-91193411D01*
X43677932Y-90923158D01*
X43735000Y-90636260D01*
X43735000Y-90343740D01*
X43677932Y-90056842D01*
X43565990Y-89786589D01*
X43403475Y-89543368D01*
X43196632Y-89336525D01*
X43022240Y-89220000D01*
X43196632Y-89103475D01*
X43403475Y-88896632D01*
X43565990Y-88653411D01*
X43677932Y-88383158D01*
X43735000Y-88096260D01*
X43735000Y-87803740D01*
X43677932Y-87516842D01*
X43565990Y-87246589D01*
X43403475Y-87003368D01*
X43196632Y-86796525D01*
X43022240Y-86680000D01*
X43196632Y-86563475D01*
X43403475Y-86356632D01*
X43565990Y-86113411D01*
X43677932Y-85843158D01*
X43735000Y-85556260D01*
X43735000Y-85263740D01*
X43677932Y-84976842D01*
X43565990Y-84706589D01*
X43403475Y-84463368D01*
X43196632Y-84256525D01*
X43022240Y-84140000D01*
X43196632Y-84023475D01*
X43403475Y-83816632D01*
X43565990Y-83573411D01*
X43677932Y-83303158D01*
X43735000Y-83016260D01*
X43735000Y-82723740D01*
X43677932Y-82436842D01*
X43565990Y-82166589D01*
X43403475Y-81923368D01*
X43196632Y-81716525D01*
X43022240Y-81600000D01*
X43196632Y-81483475D01*
X43403475Y-81276632D01*
X43565990Y-81033411D01*
X43677932Y-80763158D01*
X43735000Y-80476260D01*
X43735000Y-80183740D01*
X43677932Y-79896842D01*
X43565990Y-79626589D01*
X43403475Y-79383368D01*
X43196632Y-79176525D01*
X43022240Y-79060000D01*
X43196632Y-78943475D01*
X43403475Y-78736632D01*
X43565990Y-78493411D01*
X43677932Y-78223158D01*
X43735000Y-77936260D01*
X43735000Y-77643740D01*
X43677932Y-77356842D01*
X43565990Y-77086589D01*
X43403475Y-76843368D01*
X43271620Y-76711513D01*
X43344180Y-76689502D01*
X43454494Y-76630537D01*
X43551185Y-76551185D01*
X43630537Y-76454494D01*
X43689502Y-76344180D01*
X43725812Y-76224482D01*
X43738072Y-76100000D01*
X43735000Y-75535750D01*
X43576250Y-75377000D01*
X42377000Y-75377000D01*
X42377000Y-75397000D01*
X42123000Y-75397000D01*
X42123000Y-75377000D01*
X40923750Y-75377000D01*
X40765000Y-75535750D01*
X40761928Y-76100000D01*
X30660000Y-76100000D01*
X30660000Y-74400000D01*
X40761928Y-74400000D01*
X40765000Y-74964250D01*
X40923750Y-75123000D01*
X42123000Y-75123000D01*
X42123000Y-73923750D01*
X42377000Y-73923750D01*
X42377000Y-75123000D01*
X43576250Y-75123000D01*
X43735000Y-74964250D01*
X43738072Y-74400000D01*
X43725812Y-74275518D01*
X43689502Y-74155820D01*
X43630537Y-74045506D01*
X43551185Y-73948815D01*
X43454494Y-73869463D01*
X43344180Y-73810498D01*
X43224482Y-73774188D01*
X43100000Y-73761928D01*
X42535750Y-73765000D01*
X42377000Y-73923750D01*
X42123000Y-73923750D01*
X41964250Y-73765000D01*
X41400000Y-73761928D01*
X41275518Y-73774188D01*
X41155820Y-73810498D01*
X41045506Y-73869463D01*
X40948815Y-73948815D01*
X40869463Y-74045506D01*
X40810498Y-74155820D01*
X40774188Y-74275518D01*
X40761928Y-74400000D01*
X30660000Y-74400000D01*
X30660000Y-68417760D01*
X47165000Y-68417760D01*
X47165000Y-68582240D01*
X47197089Y-68743560D01*
X47215000Y-68786802D01*
X47215001Y-70461437D01*
X47211203Y-70500000D01*
X47226359Y-70653886D01*
X47271246Y-70801859D01*
X47274809Y-70808524D01*
X47344139Y-70938233D01*
X47377070Y-70978359D01*
X47417655Y-71027812D01*
X47417659Y-71027816D01*
X47442237Y-71057764D01*
X47472185Y-71082342D01*
X51167653Y-74777810D01*
X51192236Y-74807764D01*
X51311767Y-74905862D01*
X51421005Y-74964250D01*
X51448140Y-74978754D01*
X51596113Y-75023642D01*
X51671026Y-75031020D01*
X51711439Y-75035000D01*
X51711444Y-75035000D01*
X51750000Y-75038797D01*
X51788556Y-75035000D01*
X56924843Y-75035000D01*
X68854488Y-86964645D01*
X68851413Y-86967719D01*
X68819821Y-87015000D01*
X64036105Y-87015000D01*
X64000000Y-87011444D01*
X63963895Y-87015000D01*
X63855915Y-87025635D01*
X63717367Y-87067663D01*
X63589680Y-87135913D01*
X63477762Y-87227762D01*
X63454746Y-87255807D01*
X62375000Y-88335554D01*
X61804655Y-87765209D01*
X61802911Y-87756440D01*
X61739967Y-87604479D01*
X61648587Y-87467719D01*
X61532281Y-87351413D01*
X61395521Y-87260033D01*
X61243560Y-87197089D01*
X61082240Y-87165000D01*
X60917760Y-87165000D01*
X60756440Y-87197089D01*
X60735000Y-87205970D01*
X60735000Y-83786105D01*
X60738556Y-83750000D01*
X60724365Y-83605915D01*
X60682337Y-83467367D01*
X60614087Y-83339680D01*
X60554886Y-83267544D01*
X60545253Y-83255806D01*
X60545250Y-83255803D01*
X60522237Y-83227762D01*
X60494197Y-83204750D01*
X57613691Y-80324245D01*
X57667760Y-80335000D01*
X57832240Y-80335000D01*
X57993560Y-80302911D01*
X58145521Y-80239967D01*
X58282281Y-80148587D01*
X58398587Y-80032281D01*
X58489967Y-79895521D01*
X58552911Y-79743560D01*
X58585000Y-79582240D01*
X58585000Y-79417760D01*
X58552911Y-79256440D01*
X58489967Y-79104479D01*
X58398587Y-78967719D01*
X58282281Y-78851413D01*
X58145521Y-78760033D01*
X57993560Y-78697089D01*
X57832240Y-78665000D01*
X57667760Y-78665000D01*
X57506440Y-78697089D01*
X57354479Y-78760033D01*
X57217719Y-78851413D01*
X57142204Y-78926928D01*
X57082240Y-78915000D01*
X56917760Y-78915000D01*
X56756440Y-78947089D01*
X56604479Y-79010033D01*
X56467719Y-79101413D01*
X56392204Y-79176928D01*
X56332240Y-79165000D01*
X56167760Y-79165000D01*
X56006440Y-79197089D01*
X55854479Y-79260033D01*
X55717719Y-79351413D01*
X55601413Y-79467719D01*
X55510033Y-79604479D01*
X55447089Y-79756440D01*
X55415000Y-79917760D01*
X55415000Y-80082240D01*
X55443067Y-80223339D01*
X55354479Y-80260033D01*
X55217719Y-80351413D01*
X55101413Y-80467719D01*
X55010033Y-80604479D01*
X54947089Y-80756440D01*
X54915000Y-80917760D01*
X54915000Y-81082240D01*
X54926928Y-81142204D01*
X54851413Y-81217719D01*
X54760033Y-81354479D01*
X54697089Y-81506440D01*
X54665000Y-81667760D01*
X54665000Y-81832240D01*
X54697089Y-81993560D01*
X54760033Y-82145521D01*
X54851413Y-82282281D01*
X54967719Y-82398587D01*
X55104479Y-82489967D01*
X55256440Y-82552911D01*
X55265209Y-82554655D01*
X58265000Y-85554447D01*
X58265000Y-96201315D01*
X58252886Y-96189201D01*
X58026043Y-96037629D01*
X57773989Y-95933225D01*
X57506411Y-95880000D01*
X57233589Y-95880000D01*
X56966011Y-95933225D01*
X56713957Y-96037629D01*
X56487114Y-96189201D01*
X56294201Y-96382114D01*
X56142629Y-96608957D01*
X56038225Y-96861011D01*
X55985000Y-97128589D01*
X55985000Y-97401411D01*
X56038225Y-97668989D01*
X56142629Y-97921043D01*
X56294201Y-98147886D01*
X56487114Y-98340799D01*
X56713957Y-98492371D01*
X56966011Y-98596775D01*
X57233589Y-98650000D01*
X57506411Y-98650000D01*
X57773989Y-98596775D01*
X58026043Y-98492371D01*
X58252886Y-98340799D01*
X58265001Y-98328684D01*
X58265001Y-107865552D01*
X54565897Y-111564656D01*
X54316260Y-111515000D01*
X54023740Y-111515000D01*
X53736842Y-111572068D01*
X53466589Y-111684010D01*
X53223368Y-111846525D01*
X53016525Y-112053368D01*
X52894805Y-112235534D01*
X52825178Y-112118645D01*
X52630269Y-111902412D01*
X52396920Y-111728359D01*
X52134099Y-111603175D01*
X51986890Y-111558524D01*
X51757000Y-111679845D01*
X51757000Y-112873000D01*
X51777000Y-112873000D01*
X51777000Y-113127000D01*
X51757000Y-113127000D01*
X51757000Y-114320155D01*
X51986890Y-114441476D01*
X52134099Y-114396825D01*
X52396920Y-114271641D01*
X52630269Y-114097588D01*
X52825178Y-113881355D01*
X52894805Y-113764466D01*
X53016525Y-113946632D01*
X53223368Y-114153475D01*
X53466589Y-114315990D01*
X53736842Y-114427932D01*
X54023740Y-114485000D01*
X54316260Y-114485000D01*
X54603158Y-114427932D01*
X54873411Y-114315990D01*
X55116632Y-114153475D01*
X55323475Y-113946632D01*
X55440000Y-113772240D01*
X55556525Y-113946632D01*
X55763368Y-114153475D01*
X56006589Y-114315990D01*
X56276842Y-114427932D01*
X56563740Y-114485000D01*
X56856260Y-114485000D01*
X57143158Y-114427932D01*
X57413411Y-114315990D01*
X57656632Y-114153475D01*
X57788487Y-114021620D01*
X57810498Y-114094180D01*
X57869463Y-114204494D01*
X57948815Y-114301185D01*
X58045506Y-114380537D01*
X58155820Y-114439502D01*
X58275518Y-114475812D01*
X58400000Y-114488072D01*
X60100000Y-114488072D01*
X60224482Y-114475812D01*
X60344180Y-114439502D01*
X60454494Y-114380537D01*
X60551185Y-114301185D01*
X60630537Y-114204494D01*
X60689502Y-114094180D01*
X60725812Y-113974482D01*
X60738072Y-113850000D01*
X60738072Y-113266891D01*
X64688519Y-113266891D01*
X64785843Y-113541252D01*
X64934822Y-113791355D01*
X65129731Y-114007588D01*
X65363080Y-114181641D01*
X65625901Y-114306825D01*
X65773110Y-114351476D01*
X66003000Y-114230155D01*
X66003000Y-113037000D01*
X64809186Y-113037000D01*
X64688519Y-113266891D01*
X60738072Y-113266891D01*
X60738072Y-112553109D01*
X64688519Y-112553109D01*
X64809186Y-112783000D01*
X66003000Y-112783000D01*
X66003000Y-111589845D01*
X66257000Y-111589845D01*
X66257000Y-112783000D01*
X66277000Y-112783000D01*
X66277000Y-113037000D01*
X66257000Y-113037000D01*
X66257000Y-114230155D01*
X66486890Y-114351476D01*
X66634099Y-114306825D01*
X66896920Y-114181641D01*
X67130269Y-114007588D01*
X67325178Y-113791355D01*
X67394805Y-113674466D01*
X67516525Y-113856632D01*
X67723368Y-114063475D01*
X67966589Y-114225990D01*
X68236842Y-114337932D01*
X68523740Y-114395000D01*
X68816260Y-114395000D01*
X69103158Y-114337932D01*
X69373411Y-114225990D01*
X69616632Y-114063475D01*
X69823475Y-113856632D01*
X69940000Y-113682240D01*
X70056525Y-113856632D01*
X70263368Y-114063475D01*
X70506589Y-114225990D01*
X70776842Y-114337932D01*
X71063740Y-114395000D01*
X71356260Y-114395000D01*
X71643158Y-114337932D01*
X71913411Y-114225990D01*
X72156632Y-114063475D01*
X72288487Y-113931620D01*
X72310498Y-114004180D01*
X72369463Y-114114494D01*
X72448815Y-114211185D01*
X72545506Y-114290537D01*
X72655820Y-114349502D01*
X72775518Y-114385812D01*
X72900000Y-114398072D01*
X74600000Y-114398072D01*
X74724482Y-114385812D01*
X74844180Y-114349502D01*
X74954494Y-114290537D01*
X75051185Y-114211185D01*
X75130537Y-114114494D01*
X75189502Y-114004180D01*
X75225812Y-113884482D01*
X75238072Y-113760000D01*
X75238072Y-112060000D01*
X75225812Y-111935518D01*
X75189502Y-111815820D01*
X75130537Y-111705506D01*
X75051185Y-111608815D01*
X74954494Y-111529463D01*
X74844180Y-111470498D01*
X74724482Y-111434188D01*
X74600000Y-111421928D01*
X72900000Y-111421928D01*
X72775518Y-111434188D01*
X72655820Y-111470498D01*
X72545506Y-111529463D01*
X72448815Y-111608815D01*
X72369463Y-111705506D01*
X72310498Y-111815820D01*
X72288487Y-111888380D01*
X72156632Y-111756525D01*
X71913411Y-111594010D01*
X71643158Y-111482068D01*
X71356260Y-111425000D01*
X71063740Y-111425000D01*
X70776842Y-111482068D01*
X70506589Y-111594010D01*
X70263368Y-111756525D01*
X70056525Y-111963368D01*
X69940000Y-112137760D01*
X69823475Y-111963368D01*
X69616632Y-111756525D01*
X69373411Y-111594010D01*
X69103158Y-111482068D01*
X68816260Y-111425000D01*
X68523740Y-111425000D01*
X68236842Y-111482068D01*
X67966589Y-111594010D01*
X67723368Y-111756525D01*
X67516525Y-111963368D01*
X67394805Y-112145534D01*
X67325178Y-112028645D01*
X67130269Y-111812412D01*
X66896920Y-111638359D01*
X66634099Y-111513175D01*
X66486890Y-111468524D01*
X66257000Y-111589845D01*
X66003000Y-111589845D01*
X65773110Y-111468524D01*
X65625901Y-111513175D01*
X65363080Y-111638359D01*
X65129731Y-111812412D01*
X64934822Y-112028645D01*
X64785843Y-112278748D01*
X64688519Y-112553109D01*
X60738072Y-112553109D01*
X60738072Y-112150000D01*
X60735000Y-112118808D01*
X60735000Y-97128589D01*
X60865000Y-97128589D01*
X60865000Y-97401411D01*
X60918225Y-97668989D01*
X61022629Y-97921043D01*
X61174201Y-98147886D01*
X61367114Y-98340799D01*
X61593957Y-98492371D01*
X61846011Y-98596775D01*
X62113589Y-98650000D01*
X62386411Y-98650000D01*
X62653989Y-98596775D01*
X62906043Y-98492371D01*
X63132886Y-98340799D01*
X63325799Y-98147886D01*
X63477371Y-97921043D01*
X63581775Y-97668989D01*
X63635000Y-97401411D01*
X63635000Y-97128589D01*
X63581775Y-96861011D01*
X63477371Y-96608957D01*
X63325799Y-96382114D01*
X63132886Y-96189201D01*
X62906043Y-96037629D01*
X62653989Y-95933225D01*
X62386411Y-95880000D01*
X62113589Y-95880000D01*
X61846011Y-95933225D01*
X61593957Y-96037629D01*
X61367114Y-96189201D01*
X61174201Y-96382114D01*
X61022629Y-96608957D01*
X60918225Y-96861011D01*
X60865000Y-97128589D01*
X60735000Y-97128589D01*
X60735000Y-88794030D01*
X60756440Y-88802911D01*
X60765209Y-88804655D01*
X61954746Y-89994193D01*
X61977762Y-90022238D01*
X62089680Y-90114087D01*
X62217367Y-90182337D01*
X62310520Y-90210595D01*
X62354479Y-90239967D01*
X62506440Y-90302911D01*
X62667760Y-90335000D01*
X62832240Y-90335000D01*
X62993560Y-90302911D01*
X63145521Y-90239967D01*
X63282281Y-90148587D01*
X63398587Y-90032281D01*
X63489967Y-89895521D01*
X63552911Y-89743560D01*
X63585000Y-89582240D01*
X63585000Y-89417760D01*
X63552911Y-89256440D01*
X63547081Y-89242365D01*
X64304447Y-88485000D01*
X69213895Y-88485000D01*
X69250000Y-88488556D01*
X69286105Y-88485000D01*
X69394085Y-88474365D01*
X69532633Y-88432337D01*
X69660320Y-88364087D01*
X69732081Y-88305194D01*
X69743560Y-88302911D01*
X69895521Y-88239967D01*
X70032281Y-88148587D01*
X70035356Y-88145513D01*
X70465000Y-88575157D01*
X70465001Y-97237489D01*
X70351939Y-97215000D01*
X70148061Y-97215000D01*
X69948102Y-97254774D01*
X69759744Y-97332795D01*
X69590226Y-97446063D01*
X69446063Y-97590226D01*
X69332795Y-97759744D01*
X69254774Y-97948102D01*
X69215000Y-98148061D01*
X69215000Y-98351939D01*
X69254774Y-98551898D01*
X69332795Y-98740256D01*
X69446063Y-98909774D01*
X69590226Y-99053937D01*
X69759744Y-99167205D01*
X69948102Y-99245226D01*
X70148061Y-99285000D01*
X70210199Y-99285000D01*
X81186201Y-110261003D01*
X81209999Y-110290001D01*
X81238997Y-110313799D01*
X81325723Y-110384974D01*
X81457753Y-110455546D01*
X81601014Y-110499003D01*
X81712667Y-110510000D01*
X81712677Y-110510000D01*
X81750000Y-110513676D01*
X81787323Y-110510000D01*
X98546289Y-110510000D01*
X98590226Y-110553937D01*
X98759744Y-110667205D01*
X98948102Y-110745226D01*
X99148061Y-110785000D01*
X99351939Y-110785000D01*
X99551898Y-110745226D01*
X99740256Y-110667205D01*
X99909774Y-110553937D01*
X100053937Y-110409774D01*
X100167205Y-110240256D01*
X100245226Y-110051898D01*
X100285000Y-109851939D01*
X100285000Y-109648061D01*
X100245226Y-109448102D01*
X100167205Y-109259744D01*
X100053937Y-109090226D01*
X99909774Y-108946063D01*
X99740256Y-108832795D01*
X99551898Y-108754774D01*
X99351939Y-108715000D01*
X99148061Y-108715000D01*
X98948102Y-108754774D01*
X98759744Y-108832795D01*
X98590226Y-108946063D01*
X98546289Y-108990000D01*
X82064802Y-108990000D01*
X79609802Y-106535000D01*
X81213199Y-106535000D01*
X81256440Y-106552911D01*
X81417760Y-106585000D01*
X81582240Y-106585000D01*
X81743560Y-106552911D01*
X81895521Y-106489967D01*
X82032281Y-106398587D01*
X82148587Y-106282281D01*
X82239967Y-106145521D01*
X82302911Y-105993560D01*
X82317988Y-105917760D01*
X86415000Y-105917760D01*
X86415000Y-106082240D01*
X86447089Y-106243560D01*
X86510033Y-106395521D01*
X86601413Y-106532281D01*
X86717719Y-106648587D01*
X86854479Y-106739967D01*
X87006440Y-106802911D01*
X87167760Y-106835000D01*
X87332240Y-106835000D01*
X87493560Y-106802911D01*
X87536801Y-106785000D01*
X96463199Y-106785000D01*
X96506440Y-106802911D01*
X96667760Y-106835000D01*
X96832240Y-106835000D01*
X96993560Y-106802911D01*
X97145521Y-106739967D01*
X97282281Y-106648587D01*
X97398587Y-106532281D01*
X97489967Y-106395521D01*
X97552911Y-106243560D01*
X97585000Y-106082240D01*
X97585000Y-105917760D01*
X97552911Y-105756440D01*
X97489967Y-105604479D01*
X97398587Y-105467719D01*
X97282281Y-105351413D01*
X97145521Y-105260033D01*
X96993560Y-105197089D01*
X96832240Y-105165000D01*
X96667760Y-105165000D01*
X96506440Y-105197089D01*
X96463199Y-105215000D01*
X87536801Y-105215000D01*
X87493560Y-105197089D01*
X87332240Y-105165000D01*
X87167760Y-105165000D01*
X87006440Y-105197089D01*
X86854479Y-105260033D01*
X86717719Y-105351413D01*
X86601413Y-105467719D01*
X86510033Y-105604479D01*
X86447089Y-105756440D01*
X86415000Y-105917760D01*
X82317988Y-105917760D01*
X82335000Y-105832240D01*
X82335000Y-105667760D01*
X82302911Y-105506440D01*
X82239967Y-105354479D01*
X82148587Y-105217719D01*
X82032281Y-105101413D01*
X81895521Y-105010033D01*
X81743560Y-104947089D01*
X81582240Y-104915000D01*
X81417760Y-104915000D01*
X81256440Y-104947089D01*
X81213199Y-104965000D01*
X79075157Y-104965000D01*
X72035000Y-97924843D01*
X72035000Y-88288556D01*
X72038797Y-88250000D01*
X72035000Y-88211440D01*
X72035000Y-88211439D01*
X72029965Y-88160319D01*
X72023642Y-88096113D01*
X71978754Y-87948140D01*
X71929459Y-87855915D01*
X71905862Y-87811767D01*
X71807764Y-87692236D01*
X71777811Y-87667654D01*
X66777917Y-82667760D01*
X68665000Y-82667760D01*
X68665000Y-82832240D01*
X68697089Y-82993560D01*
X68760033Y-83145521D01*
X68851413Y-83282281D01*
X68967719Y-83398587D01*
X69104479Y-83489967D01*
X69256440Y-83552911D01*
X69417760Y-83585000D01*
X69582240Y-83585000D01*
X69743560Y-83552911D01*
X69895521Y-83489967D01*
X70032281Y-83398587D01*
X70148587Y-83282281D01*
X70239967Y-83145521D01*
X70302911Y-82993560D01*
X70335000Y-82832240D01*
X70335000Y-82667760D01*
X70302911Y-82506440D01*
X70239967Y-82354479D01*
X70235000Y-82347045D01*
X70235000Y-81054446D01*
X77015000Y-74274446D01*
X77015001Y-78445552D01*
X76195554Y-79265000D01*
X75652955Y-79265000D01*
X75645521Y-79260033D01*
X75493560Y-79197089D01*
X75332240Y-79165000D01*
X75167760Y-79165000D01*
X75006440Y-79197089D01*
X74854479Y-79260033D01*
X74717719Y-79351413D01*
X74601413Y-79467719D01*
X74510033Y-79604479D01*
X74447089Y-79756440D01*
X74415000Y-79917760D01*
X74415000Y-80082240D01*
X74447089Y-80243560D01*
X74510033Y-80395521D01*
X74515000Y-80402955D01*
X74515001Y-86347044D01*
X74510033Y-86354479D01*
X74447089Y-86506440D01*
X74415000Y-86667760D01*
X74415000Y-86832240D01*
X74447089Y-86993560D01*
X74510033Y-87145521D01*
X74515000Y-87152955D01*
X74515001Y-93713885D01*
X74511444Y-93750000D01*
X74525635Y-93894085D01*
X74567664Y-94032633D01*
X74635914Y-94160320D01*
X74727763Y-94272238D01*
X74755808Y-94295254D01*
X81704746Y-101244193D01*
X81727762Y-101272238D01*
X81839680Y-101364087D01*
X81967367Y-101432337D01*
X82105915Y-101474365D01*
X82250000Y-101488556D01*
X82286105Y-101485000D01*
X85597045Y-101485000D01*
X85604479Y-101489967D01*
X85756440Y-101552911D01*
X85917760Y-101585000D01*
X86082240Y-101585000D01*
X86243560Y-101552911D01*
X86395521Y-101489967D01*
X86532281Y-101398587D01*
X86648587Y-101282281D01*
X86739967Y-101145521D01*
X86802911Y-100993560D01*
X86804655Y-100984791D01*
X87054447Y-100735000D01*
X101097045Y-100735000D01*
X101104479Y-100739967D01*
X101256440Y-100802911D01*
X101417760Y-100835000D01*
X101582240Y-100835000D01*
X101743560Y-100802911D01*
X101895521Y-100739967D01*
X101902955Y-100735000D01*
X108445554Y-100735000D01*
X115011928Y-107301375D01*
X115011928Y-107970000D01*
X115024188Y-108094482D01*
X115060498Y-108214180D01*
X115119463Y-108324494D01*
X115198815Y-108421185D01*
X115295506Y-108500537D01*
X115405820Y-108559502D01*
X115525518Y-108595812D01*
X115650000Y-108608072D01*
X117350000Y-108608072D01*
X117474482Y-108595812D01*
X117594180Y-108559502D01*
X117704494Y-108500537D01*
X117801185Y-108421185D01*
X117880537Y-108324494D01*
X117939502Y-108214180D01*
X117975812Y-108094482D01*
X117988072Y-107970000D01*
X117988072Y-106270000D01*
X117975812Y-106145518D01*
X117939502Y-106025820D01*
X117880537Y-105915506D01*
X117801185Y-105818815D01*
X117704494Y-105739463D01*
X117594180Y-105680498D01*
X117521620Y-105658487D01*
X117653475Y-105526632D01*
X117815990Y-105283411D01*
X117927932Y-105013158D01*
X117985000Y-104726260D01*
X117985000Y-104433740D01*
X117927932Y-104146842D01*
X117815990Y-103876589D01*
X117653475Y-103633368D01*
X117446632Y-103426525D01*
X117272240Y-103310000D01*
X117446632Y-103193475D01*
X117653475Y-102986632D01*
X117815990Y-102743411D01*
X117927932Y-102473158D01*
X117985000Y-102186260D01*
X117985000Y-101893740D01*
X117927932Y-101606842D01*
X117815990Y-101336589D01*
X117653475Y-101093368D01*
X117446632Y-100886525D01*
X117264466Y-100764805D01*
X117381355Y-100695178D01*
X117597588Y-100500269D01*
X117771641Y-100266920D01*
X117896825Y-100004099D01*
X117941476Y-99856890D01*
X117820155Y-99627000D01*
X116627000Y-99627000D01*
X116627000Y-99647000D01*
X116373000Y-99647000D01*
X116373000Y-99627000D01*
X115179845Y-99627000D01*
X115058524Y-99856890D01*
X115103175Y-100004099D01*
X115228359Y-100266920D01*
X115402412Y-100500269D01*
X115618645Y-100695178D01*
X115735534Y-100764805D01*
X115553368Y-100886525D01*
X115346525Y-101093368D01*
X115184010Y-101336589D01*
X115072068Y-101606842D01*
X115015000Y-101893740D01*
X115015000Y-102186260D01*
X115072068Y-102473158D01*
X115184010Y-102743411D01*
X115346525Y-102986632D01*
X115553368Y-103193475D01*
X115727760Y-103310000D01*
X115553368Y-103426525D01*
X115346525Y-103633368D01*
X115184010Y-103876589D01*
X115072068Y-104146842D01*
X115015000Y-104433740D01*
X115015000Y-104726260D01*
X115072068Y-105013158D01*
X115184010Y-105283411D01*
X115346525Y-105526632D01*
X115478380Y-105658487D01*
X115455020Y-105665573D01*
X109485000Y-99695554D01*
X109485000Y-99143110D01*
X115058524Y-99143110D01*
X115179845Y-99373000D01*
X116373000Y-99373000D01*
X116373000Y-98179186D01*
X116627000Y-98179186D01*
X116627000Y-99373000D01*
X117820155Y-99373000D01*
X117941476Y-99143110D01*
X117896825Y-98995901D01*
X117771641Y-98733080D01*
X117597588Y-98499731D01*
X117381355Y-98304822D01*
X117131252Y-98155843D01*
X116856891Y-98058519D01*
X116627000Y-98179186D01*
X116373000Y-98179186D01*
X116143109Y-98058519D01*
X115868748Y-98155843D01*
X115618645Y-98304822D01*
X115402412Y-98499731D01*
X115228359Y-98733080D01*
X115103175Y-98995901D01*
X115058524Y-99143110D01*
X109485000Y-99143110D01*
X109485000Y-93389040D01*
X115358091Y-93389040D01*
X115452930Y-93653881D01*
X115597615Y-93895131D01*
X115786586Y-94103519D01*
X116012580Y-94271037D01*
X116266913Y-94391246D01*
X116400961Y-94431904D01*
X116623000Y-94309915D01*
X116623000Y-93167000D01*
X116877000Y-93167000D01*
X116877000Y-94309915D01*
X117099039Y-94431904D01*
X117233087Y-94391246D01*
X117487420Y-94271037D01*
X117713414Y-94103519D01*
X117902385Y-93895131D01*
X118047070Y-93653881D01*
X118141909Y-93389040D01*
X118020624Y-93167000D01*
X116877000Y-93167000D01*
X116623000Y-93167000D01*
X115479376Y-93167000D01*
X115358091Y-93389040D01*
X109485000Y-93389040D01*
X109485000Y-93152955D01*
X109489967Y-93145521D01*
X109552911Y-92993560D01*
X109585000Y-92832240D01*
X109585000Y-92667760D01*
X109552911Y-92506440D01*
X109489967Y-92354479D01*
X109398587Y-92217719D01*
X109282281Y-92101413D01*
X109145521Y-92010033D01*
X108993560Y-91947089D01*
X108832240Y-91915000D01*
X108667760Y-91915000D01*
X108506440Y-91947089D01*
X108354479Y-92010033D01*
X108217719Y-92101413D01*
X108101413Y-92217719D01*
X108010033Y-92354479D01*
X107947089Y-92506440D01*
X107915000Y-92667760D01*
X107915000Y-92832240D01*
X107947089Y-92993560D01*
X108010033Y-93145521D01*
X108015000Y-93152955D01*
X108015001Y-99265000D01*
X101902955Y-99265000D01*
X101895521Y-99260033D01*
X101743560Y-99197089D01*
X101582240Y-99165000D01*
X101417760Y-99165000D01*
X101256440Y-99197089D01*
X101104479Y-99260033D01*
X101097045Y-99265000D01*
X86786096Y-99265000D01*
X86749999Y-99261445D01*
X86713902Y-99265000D01*
X86713895Y-99265000D01*
X86620132Y-99274235D01*
X86605914Y-99275635D01*
X86563886Y-99288384D01*
X86467367Y-99317663D01*
X86339680Y-99385913D01*
X86227762Y-99477762D01*
X86204746Y-99505807D01*
X85765209Y-99945345D01*
X85756440Y-99947089D01*
X85604479Y-100010033D01*
X85597045Y-100015000D01*
X82554447Y-100015000D01*
X75985000Y-93445554D01*
X75985000Y-90358665D01*
X115315000Y-90358665D01*
X115315000Y-90641335D01*
X115370147Y-90918574D01*
X115478320Y-91179727D01*
X115635363Y-91414759D01*
X115835241Y-91614637D01*
X116070273Y-91771680D01*
X116081565Y-91776357D01*
X116012580Y-91808963D01*
X115786586Y-91976481D01*
X115597615Y-92184869D01*
X115452930Y-92426119D01*
X115358091Y-92690960D01*
X115479376Y-92913000D01*
X116623000Y-92913000D01*
X116623000Y-92893000D01*
X116877000Y-92893000D01*
X116877000Y-92913000D01*
X118020624Y-92913000D01*
X118141909Y-92690960D01*
X118047070Y-92426119D01*
X117902385Y-92184869D01*
X117713414Y-91976481D01*
X117487420Y-91808963D01*
X117418435Y-91776357D01*
X117429727Y-91771680D01*
X117664759Y-91614637D01*
X117864637Y-91414759D01*
X118021680Y-91179727D01*
X118129853Y-90918574D01*
X118185000Y-90641335D01*
X118185000Y-90358665D01*
X118129853Y-90081426D01*
X118021680Y-89820273D01*
X117864637Y-89585241D01*
X117664759Y-89385363D01*
X117429727Y-89228320D01*
X117168574Y-89120147D01*
X116891335Y-89065000D01*
X116608665Y-89065000D01*
X116331426Y-89120147D01*
X116070273Y-89228320D01*
X115835241Y-89385363D01*
X115635363Y-89585241D01*
X115478320Y-89820273D01*
X115370147Y-90081426D01*
X115315000Y-90358665D01*
X75985000Y-90358665D01*
X75985000Y-87575000D01*
X87436928Y-87575000D01*
X87436928Y-88925000D01*
X87449188Y-89049482D01*
X87485498Y-89169180D01*
X87544463Y-89279494D01*
X87623815Y-89376185D01*
X87720506Y-89455537D01*
X87830820Y-89514502D01*
X87950518Y-89550812D01*
X88075000Y-89563072D01*
X89425000Y-89563072D01*
X89549482Y-89550812D01*
X89669180Y-89514502D01*
X89779494Y-89455537D01*
X89876185Y-89376185D01*
X89955537Y-89279494D01*
X90014502Y-89169180D01*
X90050812Y-89049482D01*
X90063072Y-88925000D01*
X90063072Y-87575000D01*
X90050812Y-87450518D01*
X90014502Y-87330820D01*
X89955537Y-87220506D01*
X89876185Y-87123815D01*
X89789303Y-87052513D01*
X89910907Y-86870518D01*
X90009658Y-86632113D01*
X90060000Y-86379024D01*
X90060000Y-86120976D01*
X90009658Y-85867887D01*
X89910907Y-85629482D01*
X89767544Y-85414923D01*
X89602621Y-85250000D01*
X89767544Y-85085077D01*
X89910907Y-84870518D01*
X90009658Y-84632113D01*
X90060000Y-84379024D01*
X90060000Y-84120976D01*
X90009658Y-83867887D01*
X89910907Y-83629482D01*
X89870372Y-83568816D01*
X115325000Y-83568816D01*
X115325000Y-83871184D01*
X115383989Y-84167743D01*
X115499701Y-84447095D01*
X115667688Y-84698505D01*
X115881495Y-84912312D01*
X116132905Y-85080299D01*
X116412257Y-85196011D01*
X116708816Y-85255000D01*
X117011184Y-85255000D01*
X117307743Y-85196011D01*
X117587095Y-85080299D01*
X117838505Y-84912312D01*
X118052312Y-84698505D01*
X118220299Y-84447095D01*
X118336011Y-84167743D01*
X118395000Y-83871184D01*
X118395000Y-83568816D01*
X118336011Y-83272257D01*
X118220299Y-82992905D01*
X118052312Y-82741495D01*
X117838505Y-82527688D01*
X117587095Y-82359701D01*
X117307743Y-82243989D01*
X117011184Y-82185000D01*
X116708816Y-82185000D01*
X116412257Y-82243989D01*
X116132905Y-82359701D01*
X115881495Y-82527688D01*
X115667688Y-82741495D01*
X115499701Y-82992905D01*
X115383989Y-83272257D01*
X115325000Y-83568816D01*
X89870372Y-83568816D01*
X89767544Y-83414923D01*
X89602621Y-83250000D01*
X89767544Y-83085077D01*
X89910907Y-82870518D01*
X90009658Y-82632113D01*
X90060000Y-82379024D01*
X90060000Y-82120976D01*
X90009658Y-81867887D01*
X89910907Y-81629482D01*
X89767544Y-81414923D01*
X89602621Y-81250000D01*
X89767544Y-81085077D01*
X89910907Y-80870518D01*
X90009658Y-80632113D01*
X90060000Y-80379024D01*
X90060000Y-80120976D01*
X90009658Y-79867887D01*
X89927200Y-79668816D01*
X115325000Y-79668816D01*
X115325000Y-79971184D01*
X115383989Y-80267743D01*
X115499701Y-80547095D01*
X115667688Y-80798505D01*
X115881495Y-81012312D01*
X116132905Y-81180299D01*
X116412257Y-81296011D01*
X116708816Y-81355000D01*
X117011184Y-81355000D01*
X117307743Y-81296011D01*
X117587095Y-81180299D01*
X117838505Y-81012312D01*
X118052312Y-80798505D01*
X118220299Y-80547095D01*
X118336011Y-80267743D01*
X118395000Y-79971184D01*
X118395000Y-79668816D01*
X118336011Y-79372257D01*
X118220299Y-79092905D01*
X118052312Y-78841495D01*
X117838505Y-78627688D01*
X117587095Y-78459701D01*
X117307743Y-78343989D01*
X117011184Y-78285000D01*
X116708816Y-78285000D01*
X116412257Y-78343989D01*
X116132905Y-78459701D01*
X115881495Y-78627688D01*
X115667688Y-78841495D01*
X115499701Y-79092905D01*
X115383989Y-79372257D01*
X115325000Y-79668816D01*
X89927200Y-79668816D01*
X89910907Y-79629482D01*
X89767544Y-79414923D01*
X89602621Y-79250000D01*
X89767544Y-79085077D01*
X89910907Y-78870518D01*
X90009658Y-78632113D01*
X90060000Y-78379024D01*
X90060000Y-78167760D01*
X91665000Y-78167760D01*
X91665000Y-78332240D01*
X91697089Y-78493560D01*
X91760033Y-78645521D01*
X91851413Y-78782281D01*
X91967719Y-78898587D01*
X92104479Y-78989967D01*
X92256440Y-79052911D01*
X92417760Y-79085000D01*
X92582240Y-79085000D01*
X92743560Y-79052911D01*
X92895521Y-78989967D01*
X92902955Y-78985000D01*
X101347045Y-78985000D01*
X101354479Y-78989967D01*
X101506440Y-79052911D01*
X101667760Y-79085000D01*
X101832240Y-79085000D01*
X101993560Y-79052911D01*
X102145521Y-78989967D01*
X102282281Y-78898587D01*
X102398587Y-78782281D01*
X102489967Y-78645521D01*
X102552911Y-78493560D01*
X102585000Y-78332240D01*
X102585000Y-78167760D01*
X102552911Y-78006440D01*
X102489967Y-77854479D01*
X102398587Y-77717719D01*
X102282281Y-77601413D01*
X102145521Y-77510033D01*
X101993560Y-77447089D01*
X101832240Y-77415000D01*
X101667760Y-77415000D01*
X101506440Y-77447089D01*
X101354479Y-77510033D01*
X101347045Y-77515000D01*
X92902955Y-77515000D01*
X92895521Y-77510033D01*
X92743560Y-77447089D01*
X92582240Y-77415000D01*
X92417760Y-77415000D01*
X92256440Y-77447089D01*
X92104479Y-77510033D01*
X91967719Y-77601413D01*
X91851413Y-77717719D01*
X91760033Y-77854479D01*
X91697089Y-78006440D01*
X91665000Y-78167760D01*
X90060000Y-78167760D01*
X90060000Y-78120976D01*
X90009658Y-77867887D01*
X89910907Y-77629482D01*
X89767544Y-77414923D01*
X89602621Y-77250000D01*
X89767544Y-77085077D01*
X89910907Y-76870518D01*
X90009658Y-76632113D01*
X90060000Y-76379024D01*
X90060000Y-76120976D01*
X90009658Y-75867887D01*
X89910907Y-75629482D01*
X89767544Y-75414923D01*
X89585077Y-75232456D01*
X89370518Y-75089093D01*
X89132113Y-74990342D01*
X88879024Y-74940000D01*
X88620976Y-74940000D01*
X88367887Y-74990342D01*
X88129482Y-75089093D01*
X87914923Y-75232456D01*
X87732456Y-75414923D01*
X87589093Y-75629482D01*
X87490342Y-75867887D01*
X87440000Y-76120976D01*
X87440000Y-76379024D01*
X87490342Y-76632113D01*
X87589093Y-76870518D01*
X87732456Y-77085077D01*
X87897379Y-77250000D01*
X87732456Y-77414923D01*
X87589093Y-77629482D01*
X87490342Y-77867887D01*
X87440000Y-78120976D01*
X87440000Y-78379024D01*
X87490342Y-78632113D01*
X87589093Y-78870518D01*
X87732456Y-79085077D01*
X87897379Y-79250000D01*
X87732456Y-79414923D01*
X87589093Y-79629482D01*
X87490342Y-79867887D01*
X87440000Y-80120976D01*
X87440000Y-80379024D01*
X87490342Y-80632113D01*
X87589093Y-80870518D01*
X87732456Y-81085077D01*
X87897379Y-81250000D01*
X87732456Y-81414923D01*
X87589093Y-81629482D01*
X87490342Y-81867887D01*
X87440000Y-82120976D01*
X87440000Y-82379024D01*
X87490342Y-82632113D01*
X87589093Y-82870518D01*
X87732456Y-83085077D01*
X87897379Y-83250000D01*
X87732456Y-83414923D01*
X87589093Y-83629482D01*
X87490342Y-83867887D01*
X87440000Y-84120976D01*
X87440000Y-84379024D01*
X87490342Y-84632113D01*
X87589093Y-84870518D01*
X87732456Y-85085077D01*
X87897379Y-85250000D01*
X87732456Y-85414923D01*
X87589093Y-85629482D01*
X87490342Y-85867887D01*
X87440000Y-86120976D01*
X87440000Y-86379024D01*
X87490342Y-86632113D01*
X87589093Y-86870518D01*
X87710697Y-87052513D01*
X87623815Y-87123815D01*
X87544463Y-87220506D01*
X87485498Y-87330820D01*
X87449188Y-87450518D01*
X87436928Y-87575000D01*
X75985000Y-87575000D01*
X75985000Y-87152955D01*
X75989967Y-87145521D01*
X76052911Y-86993560D01*
X76085000Y-86832240D01*
X76085000Y-86667760D01*
X76052911Y-86506440D01*
X75989967Y-86354479D01*
X75985000Y-86347045D01*
X75985000Y-80735000D01*
X76463895Y-80735000D01*
X76500000Y-80738556D01*
X76536105Y-80735000D01*
X76644085Y-80724365D01*
X76782633Y-80682337D01*
X76910320Y-80614087D01*
X77022238Y-80522238D01*
X77045258Y-80494188D01*
X78244193Y-79295254D01*
X78272238Y-79272238D01*
X78364087Y-79160320D01*
X78432337Y-79032633D01*
X78474365Y-78894085D01*
X78485000Y-78786105D01*
X78488556Y-78750000D01*
X78485000Y-78713895D01*
X78485000Y-70402955D01*
X78489967Y-70395521D01*
X78509312Y-70348816D01*
X114965000Y-70348816D01*
X114965000Y-70651184D01*
X115023989Y-70947743D01*
X115139701Y-71227095D01*
X115307688Y-71478505D01*
X115521495Y-71692312D01*
X115772905Y-71860299D01*
X116052257Y-71976011D01*
X116348816Y-72035000D01*
X116651184Y-72035000D01*
X116947743Y-71976011D01*
X117227095Y-71860299D01*
X117478505Y-71692312D01*
X117692312Y-71478505D01*
X117860299Y-71227095D01*
X117976011Y-70947743D01*
X118035000Y-70651184D01*
X118035000Y-70348816D01*
X117976011Y-70052257D01*
X117860299Y-69772905D01*
X117692312Y-69521495D01*
X117478505Y-69307688D01*
X117227095Y-69139701D01*
X116947743Y-69023989D01*
X116651184Y-68965000D01*
X116348816Y-68965000D01*
X116052257Y-69023989D01*
X115772905Y-69139701D01*
X115521495Y-69307688D01*
X115307688Y-69521495D01*
X115139701Y-69772905D01*
X115023989Y-70052257D01*
X114965000Y-70348816D01*
X78509312Y-70348816D01*
X78552911Y-70243560D01*
X78585000Y-70082240D01*
X78585000Y-69917760D01*
X78552911Y-69756440D01*
X78489967Y-69604479D01*
X78398587Y-69467719D01*
X78282281Y-69351413D01*
X78145521Y-69260033D01*
X77993560Y-69197089D01*
X77832240Y-69165000D01*
X77735000Y-69165000D01*
X77735000Y-63554446D01*
X79484792Y-61804655D01*
X79493560Y-61802911D01*
X79645521Y-61739967D01*
X79782281Y-61648587D01*
X79898587Y-61532281D01*
X79989967Y-61395521D01*
X80052911Y-61243560D01*
X80085000Y-61082240D01*
X80085000Y-60917760D01*
X80052911Y-60756440D01*
X79989967Y-60604479D01*
X79898587Y-60467719D01*
X79782281Y-60351413D01*
X79645521Y-60260033D01*
X79493560Y-60197089D01*
X79332240Y-60165000D01*
X79167760Y-60165000D01*
X79006440Y-60197089D01*
X78854479Y-60260033D01*
X78717719Y-60351413D01*
X78601413Y-60467719D01*
X78510033Y-60604479D01*
X78447089Y-60756440D01*
X78445345Y-60765208D01*
X76505808Y-62704746D01*
X76477763Y-62727762D01*
X76385914Y-62839680D01*
X76333237Y-62938232D01*
X76317664Y-62967367D01*
X76275635Y-63105915D01*
X76261444Y-63250000D01*
X76265001Y-63286115D01*
X76265000Y-72945553D01*
X69005808Y-80204746D01*
X68977763Y-80227762D01*
X68885914Y-80339680D01*
X68854428Y-80398587D01*
X68817664Y-80467367D01*
X68775635Y-80605915D01*
X68761444Y-80750000D01*
X68765001Y-80786115D01*
X68765000Y-82347045D01*
X68760033Y-82354479D01*
X68697089Y-82506440D01*
X68665000Y-82667760D01*
X66777917Y-82667760D01*
X62645513Y-78535356D01*
X62648587Y-78532281D01*
X62739967Y-78395521D01*
X62802911Y-78243560D01*
X62835000Y-78082240D01*
X62835000Y-77917760D01*
X62802911Y-77756440D01*
X62739967Y-77604479D01*
X62648587Y-77467719D01*
X62532281Y-77351413D01*
X62395521Y-77260033D01*
X62243560Y-77197089D01*
X62235000Y-77195386D01*
X62235000Y-73878072D01*
X62350000Y-73878072D01*
X62474482Y-73865812D01*
X62594180Y-73829502D01*
X62704494Y-73770537D01*
X62801185Y-73691185D01*
X62880537Y-73594494D01*
X62939502Y-73484180D01*
X62975812Y-73364482D01*
X62988072Y-73240000D01*
X62988072Y-71540000D01*
X62975812Y-71415518D01*
X62971105Y-71400000D01*
X64511928Y-71400000D01*
X64511928Y-73100000D01*
X64524188Y-73224482D01*
X64560498Y-73344180D01*
X64619463Y-73454494D01*
X64698815Y-73551185D01*
X64795506Y-73630537D01*
X64905820Y-73689502D01*
X65025518Y-73725812D01*
X65150000Y-73738072D01*
X66850000Y-73738072D01*
X66974482Y-73725812D01*
X67094180Y-73689502D01*
X67204494Y-73630537D01*
X67301185Y-73551185D01*
X67380537Y-73454494D01*
X67439502Y-73344180D01*
X67461513Y-73271620D01*
X67593368Y-73403475D01*
X67836589Y-73565990D01*
X68106842Y-73677932D01*
X68393740Y-73735000D01*
X68686260Y-73735000D01*
X68973158Y-73677932D01*
X69243411Y-73565990D01*
X69486632Y-73403475D01*
X69693475Y-73196632D01*
X69815195Y-73014466D01*
X69884822Y-73131355D01*
X70079731Y-73347588D01*
X70313080Y-73521641D01*
X70575901Y-73646825D01*
X70723110Y-73691476D01*
X70953000Y-73570155D01*
X70953000Y-72377000D01*
X71207000Y-72377000D01*
X71207000Y-73570155D01*
X71436890Y-73691476D01*
X71584099Y-73646825D01*
X71846920Y-73521641D01*
X72080269Y-73347588D01*
X72275178Y-73131355D01*
X72424157Y-72881252D01*
X72521481Y-72606891D01*
X72400814Y-72377000D01*
X71207000Y-72377000D01*
X70953000Y-72377000D01*
X70933000Y-72377000D01*
X70933000Y-72123000D01*
X70953000Y-72123000D01*
X70953000Y-70929845D01*
X71207000Y-70929845D01*
X71207000Y-72123000D01*
X72400814Y-72123000D01*
X72521481Y-71893109D01*
X72424157Y-71618748D01*
X72275178Y-71368645D01*
X72080269Y-71152412D01*
X71846920Y-70978359D01*
X71584099Y-70853175D01*
X71436890Y-70808524D01*
X71207000Y-70929845D01*
X70953000Y-70929845D01*
X70723110Y-70808524D01*
X70575901Y-70853175D01*
X70313080Y-70978359D01*
X70079731Y-71152412D01*
X69884822Y-71368645D01*
X69815195Y-71485534D01*
X69693475Y-71303368D01*
X69486632Y-71096525D01*
X69243411Y-70934010D01*
X68973158Y-70822068D01*
X68686260Y-70765000D01*
X68393740Y-70765000D01*
X68106842Y-70822068D01*
X67836589Y-70934010D01*
X67593368Y-71096525D01*
X67461513Y-71228380D01*
X67439502Y-71155820D01*
X67380537Y-71045506D01*
X67301185Y-70948815D01*
X67204494Y-70869463D01*
X67094180Y-70810498D01*
X66974482Y-70774188D01*
X66850000Y-70761928D01*
X65150000Y-70761928D01*
X65025518Y-70774188D01*
X64905820Y-70810498D01*
X64795506Y-70869463D01*
X64698815Y-70948815D01*
X64619463Y-71045506D01*
X64560498Y-71155820D01*
X64524188Y-71275518D01*
X64511928Y-71400000D01*
X62971105Y-71400000D01*
X62939502Y-71295820D01*
X62880537Y-71185506D01*
X62801185Y-71088815D01*
X62704494Y-71009463D01*
X62594180Y-70950498D01*
X62474482Y-70914188D01*
X62350000Y-70901928D01*
X60650000Y-70901928D01*
X60525518Y-70914188D01*
X60405820Y-70950498D01*
X60295506Y-71009463D01*
X60198815Y-71088815D01*
X60119463Y-71185506D01*
X60060498Y-71295820D01*
X60038487Y-71368380D01*
X59906632Y-71236525D01*
X59663411Y-71074010D01*
X59393158Y-70962068D01*
X59106260Y-70905000D01*
X58813740Y-70905000D01*
X58526842Y-70962068D01*
X58256589Y-71074010D01*
X58013368Y-71236525D01*
X57806525Y-71443368D01*
X57690000Y-71617760D01*
X57573475Y-71443368D01*
X57366632Y-71236525D01*
X57123411Y-71074010D01*
X56853158Y-70962068D01*
X56566260Y-70905000D01*
X56273740Y-70905000D01*
X55986842Y-70962068D01*
X55716589Y-71074010D01*
X55473368Y-71236525D01*
X55266525Y-71443368D01*
X55144805Y-71625534D01*
X55075178Y-71508645D01*
X54880269Y-71292412D01*
X54646920Y-71118359D01*
X54384099Y-70993175D01*
X54236890Y-70948524D01*
X54007000Y-71069845D01*
X54007000Y-72263000D01*
X54027000Y-72263000D01*
X54027000Y-72517000D01*
X54007000Y-72517000D01*
X54007000Y-72537000D01*
X53753000Y-72537000D01*
X53753000Y-72517000D01*
X52559186Y-72517000D01*
X52438519Y-72746891D01*
X52535843Y-73021252D01*
X52684822Y-73271355D01*
X52859371Y-73465000D01*
X52075157Y-73465000D01*
X50643266Y-72033109D01*
X52438519Y-72033109D01*
X52559186Y-72263000D01*
X53753000Y-72263000D01*
X53753000Y-71069845D01*
X53523110Y-70948524D01*
X53375901Y-70993175D01*
X53113080Y-71118359D01*
X52879731Y-71292412D01*
X52684822Y-71508645D01*
X52535843Y-71758748D01*
X52438519Y-72033109D01*
X50643266Y-72033109D01*
X48785000Y-70174843D01*
X48785000Y-68786801D01*
X48802911Y-68743560D01*
X48835000Y-68582240D01*
X48835000Y-68417760D01*
X48802911Y-68256440D01*
X48739967Y-68104479D01*
X48648587Y-67967719D01*
X48532281Y-67851413D01*
X48395521Y-67760033D01*
X48243560Y-67697089D01*
X48082240Y-67665000D01*
X47917760Y-67665000D01*
X47756440Y-67697089D01*
X47604479Y-67760033D01*
X47467719Y-67851413D01*
X47351413Y-67967719D01*
X47260033Y-68104479D01*
X47197089Y-68256440D01*
X47165000Y-68417760D01*
X30660000Y-68417760D01*
X30660000Y-55836890D01*
X40368524Y-55836890D01*
X40413175Y-55984099D01*
X40538359Y-56246920D01*
X40712412Y-56480269D01*
X40928645Y-56675178D01*
X41178748Y-56824157D01*
X41453109Y-56921481D01*
X41683000Y-56800814D01*
X41683000Y-55607000D01*
X41937000Y-55607000D01*
X41937000Y-56800814D01*
X42166891Y-56921481D01*
X42441252Y-56824157D01*
X42691355Y-56675178D01*
X42907588Y-56480269D01*
X43081641Y-56246920D01*
X43206825Y-55984099D01*
X43251476Y-55836890D01*
X43130155Y-55607000D01*
X41937000Y-55607000D01*
X41683000Y-55607000D01*
X40489845Y-55607000D01*
X40368524Y-55836890D01*
X30660000Y-55836890D01*
X30660000Y-52090000D01*
X40321928Y-52090000D01*
X40321928Y-53790000D01*
X40334188Y-53914482D01*
X40370498Y-54034180D01*
X40429463Y-54144494D01*
X40508815Y-54241185D01*
X40605506Y-54320537D01*
X40715820Y-54379502D01*
X40796466Y-54403966D01*
X40712412Y-54479731D01*
X40538359Y-54713080D01*
X40413175Y-54975901D01*
X40368524Y-55123110D01*
X40489845Y-55353000D01*
X41683000Y-55353000D01*
X41683000Y-55333000D01*
X41937000Y-55333000D01*
X41937000Y-55353000D01*
X43130155Y-55353000D01*
X43251476Y-55123110D01*
X43206825Y-54975901D01*
X43081641Y-54713080D01*
X42907588Y-54479731D01*
X42823534Y-54403966D01*
X42904180Y-54379502D01*
X43014494Y-54320537D01*
X43111185Y-54241185D01*
X43190537Y-54144494D01*
X43249502Y-54034180D01*
X43285812Y-53914482D01*
X43298072Y-53790000D01*
X43298072Y-52090000D01*
X43285812Y-51965518D01*
X43249502Y-51845820D01*
X43190537Y-51735506D01*
X43111185Y-51638815D01*
X43014494Y-51559463D01*
X42904180Y-51500498D01*
X42784482Y-51464188D01*
X42660000Y-51451928D01*
X40960000Y-51451928D01*
X40835518Y-51464188D01*
X40715820Y-51500498D01*
X40605506Y-51559463D01*
X40508815Y-51638815D01*
X40429463Y-51735506D01*
X40370498Y-51845820D01*
X40334188Y-51965518D01*
X40321928Y-52090000D01*
X30660000Y-52090000D01*
X30660000Y-45460000D01*
X45571928Y-45460000D01*
X45571928Y-47160000D01*
X45584188Y-47284482D01*
X45620498Y-47404180D01*
X45679463Y-47514494D01*
X45758815Y-47611185D01*
X45855506Y-47690537D01*
X45965820Y-47749502D01*
X46085518Y-47785812D01*
X46210000Y-47798072D01*
X47910000Y-47798072D01*
X48034482Y-47785812D01*
X48154180Y-47749502D01*
X48264494Y-47690537D01*
X48361185Y-47611185D01*
X48440537Y-47514494D01*
X48499502Y-47404180D01*
X48521513Y-47331620D01*
X48653368Y-47463475D01*
X48896589Y-47625990D01*
X49166842Y-47737932D01*
X49453740Y-47795000D01*
X49746260Y-47795000D01*
X50033158Y-47737932D01*
X50303411Y-47625990D01*
X50546632Y-47463475D01*
X50753475Y-47256632D01*
X50870000Y-47082240D01*
X50986525Y-47256632D01*
X51193368Y-47463475D01*
X51436589Y-47625990D01*
X51706842Y-47737932D01*
X51993740Y-47795000D01*
X52286260Y-47795000D01*
X52573158Y-47737932D01*
X52843411Y-47625990D01*
X53086632Y-47463475D01*
X53293475Y-47256632D01*
X53410000Y-47082240D01*
X53526525Y-47256632D01*
X53733368Y-47463475D01*
X53976589Y-47625990D01*
X54246842Y-47737932D01*
X54533740Y-47795000D01*
X54826260Y-47795000D01*
X55113158Y-47737932D01*
X55383411Y-47625990D01*
X55626632Y-47463475D01*
X55833475Y-47256632D01*
X55950000Y-47082240D01*
X56066525Y-47256632D01*
X56273368Y-47463475D01*
X56516589Y-47625990D01*
X56786842Y-47737932D01*
X57073740Y-47795000D01*
X57366260Y-47795000D01*
X57653158Y-47737932D01*
X57923411Y-47625990D01*
X58166632Y-47463475D01*
X58373475Y-47256632D01*
X58495195Y-47074466D01*
X58564822Y-47191355D01*
X58759731Y-47407588D01*
X58993080Y-47581641D01*
X59255901Y-47706825D01*
X59403110Y-47751476D01*
X59633000Y-47630155D01*
X59633000Y-46437000D01*
X59887000Y-46437000D01*
X59887000Y-47630155D01*
X60116890Y-47751476D01*
X60264099Y-47706825D01*
X60526920Y-47581641D01*
X60760269Y-47407588D01*
X60955178Y-47191355D01*
X61104157Y-46941252D01*
X61201481Y-46666891D01*
X61080814Y-46437000D01*
X59887000Y-46437000D01*
X59633000Y-46437000D01*
X59613000Y-46437000D01*
X59613000Y-46183000D01*
X59633000Y-46183000D01*
X59633000Y-46163000D01*
X59887000Y-46163000D01*
X59887000Y-46183000D01*
X61080814Y-46183000D01*
X61201481Y-45953109D01*
X61104157Y-45678748D01*
X60955178Y-45428645D01*
X60760269Y-45212412D01*
X60526920Y-45038359D01*
X60414894Y-44985000D01*
X86445554Y-44985000D01*
X91515001Y-50054448D01*
X91515000Y-59097045D01*
X91510033Y-59104479D01*
X91447089Y-59256440D01*
X91415000Y-59417760D01*
X91415000Y-59582240D01*
X91447089Y-59743560D01*
X91510033Y-59895521D01*
X91601413Y-60032281D01*
X91717719Y-60148587D01*
X91854479Y-60239967D01*
X92006440Y-60302911D01*
X92167760Y-60335000D01*
X92332240Y-60335000D01*
X92493560Y-60302911D01*
X92645521Y-60239967D01*
X92782281Y-60148587D01*
X92898587Y-60032281D01*
X92989967Y-59895521D01*
X93052911Y-59743560D01*
X93085000Y-59582240D01*
X93085000Y-59417760D01*
X93052911Y-59256440D01*
X92989967Y-59104479D01*
X92985000Y-59097045D01*
X92985000Y-49786105D01*
X92988556Y-49750000D01*
X92974365Y-49605915D01*
X92932337Y-49467366D01*
X92864087Y-49339680D01*
X92795253Y-49255806D01*
X92772238Y-49227762D01*
X92744193Y-49204746D01*
X89398112Y-45858665D01*
X93315000Y-45858665D01*
X93315000Y-46141335D01*
X93370147Y-46418574D01*
X93478320Y-46679727D01*
X93635363Y-46914759D01*
X93835241Y-47114637D01*
X94070273Y-47271680D01*
X94331426Y-47379853D01*
X94608665Y-47435000D01*
X94891335Y-47435000D01*
X95168574Y-47379853D01*
X95429727Y-47271680D01*
X95664759Y-47114637D01*
X95864637Y-46914759D01*
X96021680Y-46679727D01*
X96129853Y-46418574D01*
X96185000Y-46141335D01*
X96185000Y-45858665D01*
X96129853Y-45581426D01*
X96021680Y-45320273D01*
X95941317Y-45200000D01*
X100911928Y-45200000D01*
X100911928Y-46800000D01*
X100924188Y-46924482D01*
X100960498Y-47044180D01*
X101019463Y-47154494D01*
X101098815Y-47251185D01*
X101195506Y-47330537D01*
X101305820Y-47389502D01*
X101425518Y-47425812D01*
X101465001Y-47429701D01*
X101465000Y-61461447D01*
X101461203Y-61500000D01*
X101465000Y-61538553D01*
X101465000Y-61538560D01*
X101476359Y-61653886D01*
X101521246Y-61801859D01*
X101594138Y-61938232D01*
X101692236Y-62057764D01*
X101722190Y-62082347D01*
X102492121Y-62852278D01*
X102510033Y-62895521D01*
X102601413Y-63032281D01*
X102717719Y-63148587D01*
X102854479Y-63239967D01*
X103006440Y-63302911D01*
X103167760Y-63335000D01*
X103332240Y-63335000D01*
X103493560Y-63302911D01*
X103645521Y-63239967D01*
X103782281Y-63148587D01*
X103898587Y-63032281D01*
X103989967Y-62895521D01*
X104052911Y-62743560D01*
X104085000Y-62582240D01*
X104085000Y-62417760D01*
X104052911Y-62256440D01*
X103989967Y-62104479D01*
X103898587Y-61967719D01*
X103782281Y-61851413D01*
X103645521Y-61760033D01*
X103602278Y-61742121D01*
X103035000Y-61174843D01*
X103035000Y-47438072D01*
X103150000Y-47438072D01*
X103274482Y-47425812D01*
X103394180Y-47389502D01*
X103504494Y-47330537D01*
X103601185Y-47251185D01*
X103680537Y-47154494D01*
X103739502Y-47044180D01*
X103775812Y-46924482D01*
X103788072Y-46800000D01*
X103788072Y-45200000D01*
X103775812Y-45075518D01*
X103739502Y-44955820D01*
X103680537Y-44845506D01*
X103601185Y-44748815D01*
X103504494Y-44669463D01*
X103394180Y-44610498D01*
X103274482Y-44574188D01*
X103150000Y-44561928D01*
X101550000Y-44561928D01*
X101425518Y-44574188D01*
X101305820Y-44610498D01*
X101195506Y-44669463D01*
X101098815Y-44748815D01*
X101019463Y-44845506D01*
X100960498Y-44955820D01*
X100924188Y-45075518D01*
X100911928Y-45200000D01*
X95941317Y-45200000D01*
X95864637Y-45085241D01*
X95664759Y-44885363D01*
X95429727Y-44728320D01*
X95168574Y-44620147D01*
X94891335Y-44565000D01*
X94608665Y-44565000D01*
X94331426Y-44620147D01*
X94070273Y-44728320D01*
X93835241Y-44885363D01*
X93635363Y-45085241D01*
X93478320Y-45320273D01*
X93370147Y-45581426D01*
X93315000Y-45858665D01*
X89398112Y-45858665D01*
X87295259Y-43755813D01*
X87272238Y-43727762D01*
X87160320Y-43635913D01*
X87032633Y-43567663D01*
X86894085Y-43525635D01*
X86786105Y-43515000D01*
X86750000Y-43511444D01*
X86713895Y-43515000D01*
X58786105Y-43515000D01*
X58750000Y-43511444D01*
X58605915Y-43525635D01*
X58467366Y-43567663D01*
X58339680Y-43635913D01*
X58227762Y-43727762D01*
X58204746Y-43755807D01*
X57135554Y-44825000D01*
X57073740Y-44825000D01*
X56786842Y-44882068D01*
X56516589Y-44994010D01*
X56273368Y-45156525D01*
X56066525Y-45363368D01*
X55950000Y-45537760D01*
X55833475Y-45363368D01*
X55626632Y-45156525D01*
X55383411Y-44994010D01*
X55113158Y-44882068D01*
X54826260Y-44825000D01*
X54533740Y-44825000D01*
X54246842Y-44882068D01*
X53976589Y-44994010D01*
X53733368Y-45156525D01*
X53526525Y-45363368D01*
X53410000Y-45537760D01*
X53293475Y-45363368D01*
X53086632Y-45156525D01*
X52843411Y-44994010D01*
X52573158Y-44882068D01*
X52286260Y-44825000D01*
X51993740Y-44825000D01*
X51706842Y-44882068D01*
X51436589Y-44994010D01*
X51193368Y-45156525D01*
X50986525Y-45363368D01*
X50870000Y-45537760D01*
X50753475Y-45363368D01*
X50546632Y-45156525D01*
X50303411Y-44994010D01*
X50033158Y-44882068D01*
X49746260Y-44825000D01*
X49453740Y-44825000D01*
X49166842Y-44882068D01*
X48896589Y-44994010D01*
X48653368Y-45156525D01*
X48521513Y-45288380D01*
X48499502Y-45215820D01*
X48440537Y-45105506D01*
X48361185Y-45008815D01*
X48264494Y-44929463D01*
X48154180Y-44870498D01*
X48034482Y-44834188D01*
X47910000Y-44821928D01*
X46210000Y-44821928D01*
X46085518Y-44834188D01*
X45965820Y-44870498D01*
X45855506Y-44929463D01*
X45758815Y-45008815D01*
X45679463Y-45105506D01*
X45620498Y-45215820D01*
X45584188Y-45335518D01*
X45571928Y-45460000D01*
X30660000Y-45460000D01*
X30660000Y-38941229D01*
X32115000Y-38941229D01*
X32115000Y-39558771D01*
X32235476Y-40164446D01*
X32471799Y-40734979D01*
X32814886Y-41248446D01*
X33251554Y-41685114D01*
X33765021Y-42028201D01*
X34335554Y-42264524D01*
X34941229Y-42385000D01*
X35558771Y-42385000D01*
X36164446Y-42264524D01*
X36734979Y-42028201D01*
X37248446Y-41685114D01*
X37685114Y-41248446D01*
X38028201Y-40734979D01*
X38264524Y-40164446D01*
X38385000Y-39558771D01*
X38385000Y-38941229D01*
X38264524Y-38335554D01*
X38028201Y-37765021D01*
X37685114Y-37251554D01*
X37248446Y-36814886D01*
X36734979Y-36471799D01*
X36164446Y-36235476D01*
X35558771Y-36115000D01*
X34941229Y-36115000D01*
X34335554Y-36235476D01*
X33765021Y-36471799D01*
X33251554Y-36814886D01*
X32814886Y-37251554D01*
X32471799Y-37765021D01*
X32235476Y-38335554D01*
X32115000Y-38941229D01*
X30660000Y-38941229D01*
X30660000Y-35660000D01*
X118914217Y-35660000D01*
X118765021Y-35721799D01*
D26*
X120250000Y-38500000D03*
X35250000Y-118500000D03*
X35250000Y-39250000D03*
X120250000Y-118250000D03*
D27*
X104000000Y-98250000D03*
X99750000Y-69750000D03*
X87000000Y-50250000D03*
X103250000Y-62500000D03*
X87500000Y-98750000D03*
X70750000Y-80750000D03*
X87500000Y-108500000D03*
X94000000Y-98500000D03*
X56250000Y-86250000D03*
X75250000Y-80000000D03*
X62000000Y-78000000D03*
X62750000Y-89500000D03*
X61000000Y-88000000D03*
X48000000Y-68500000D03*
X81500000Y-105750000D03*
X87250000Y-106000000D03*
X60750000Y-62500000D03*
X107000000Y-84750000D03*
X69750000Y-85250000D03*
X71500000Y-87250000D03*
X65000000Y-80000000D03*
X86000000Y-100750000D03*
X77750000Y-70000000D03*
X75250000Y-86750000D03*
X101500000Y-100000000D03*
X108750000Y-92750000D03*
X69500000Y-87500000D03*
X92250000Y-59500000D03*
X96750000Y-106000000D03*
D26*
X99250000Y-109750000D03*
X70250000Y-98250000D03*
D27*
X92500000Y-78250000D03*
X101750000Y-78250000D03*
X79250000Y-61000000D03*
X69500000Y-82750000D03*
X57000000Y-79750000D03*
X57750000Y-79500000D03*
X55500000Y-81750000D03*
X55750000Y-81000000D03*
X56250000Y-80000000D03*
D26*
X116500000Y-99500000D03*
X116500000Y-102040000D03*
X116500000Y-104580000D03*
X116500000Y-107120000D03*
X71080000Y-72250000D03*
X68540000Y-72250000D03*
X66000000Y-72250000D03*
X88750000Y-76250000D03*
X88750000Y-78250000D03*
X88750000Y-80250000D03*
X88750000Y-82250000D03*
X88750000Y-84250000D03*
X88750000Y-86250000D03*
X88750000Y-88250000D03*
X94750000Y-46000000D03*
X102350000Y-46000000D03*
X116750000Y-93040000D03*
X116750000Y-90500000D03*
X116500000Y-70500000D03*
X51630000Y-113000000D03*
X54170000Y-113000000D03*
X56710000Y-113000000D03*
X59250000Y-113000000D03*
X53880000Y-72390000D03*
X56420000Y-72390000D03*
X58960000Y-72390000D03*
X61500000Y-72390000D03*
X62250000Y-97265000D03*
X57370000Y-97265000D03*
X41500000Y-104260000D03*
X41500000Y-101720000D03*
X46210000Y-104385000D03*
X46210000Y-101845000D03*
X42250000Y-90490000D03*
X42250000Y-87950000D03*
X42250000Y-85410000D03*
X42250000Y-82870000D03*
X42250000Y-80330000D03*
X42250000Y-77790000D03*
X42250000Y-75250000D03*
X66130000Y-112910000D03*
X68670000Y-112910000D03*
X71210000Y-112910000D03*
X73750000Y-112910000D03*
X116860000Y-79820000D03*
X59760000Y-46310000D03*
X57220000Y-46310000D03*
X54680000Y-46310000D03*
X52140000Y-46310000D03*
X49600000Y-46310000D03*
X47060000Y-46310000D03*
X116860000Y-83720000D03*
X106750000Y-116250000D03*
X92000000Y-116250000D03*
X41810000Y-55480000D03*
X41810000Y-52940000D03*
M02*
