M48
; DRILL file {KiCad (5.1.5)-3} date 2020/7/28 11:43:05
; FORMAT={-:-/ absolute / metric / decimal}
; #@! TF.CreationDate,2020-07-28T11:43:05+08:00
; #@! TF.GenerationSoftware,Kicad,Pcbnew,(5.1.5)-3
; #@! TF.FileFunction,Plated,1,2,PTH
FMAT,2
METRIC
T1C0.300
T2C0.400
T3C0.800
T4C0.900
T5C1.000
T6C3.200
%
G90
G05
T1
X48.0Y-68.5
X55.5Y-81.75
X55.75Y-81.0
X56.25Y-80.0
X56.25Y-86.25
X57.0Y-79.75
X57.75Y-79.5
X60.75Y-62.5
X61.0Y-88.0
X62.0Y-78.0
X62.75Y-89.5
X65.0Y-80.0
X69.5Y-82.75
X69.5Y-87.5
X69.75Y-85.25
X70.75Y-80.75
X71.5Y-87.25
X75.25Y-80.0
X75.25Y-86.75
X77.75Y-70.0
X79.25Y-61.0
X81.5Y-105.75
X86.0Y-100.75
X87.0Y-50.25
X87.25Y-106.0
X87.5Y-98.75
X87.5Y-108.5
X92.25Y-59.5
X92.5Y-78.25
X94.0Y-98.5
X96.75Y-106.0
X99.75Y-69.75
X101.5Y-100.0
X101.75Y-78.25
X103.25Y-62.5
X104.0Y-98.25
X107.0Y-84.75
X108.75Y-92.75
T2
X70.25Y-98.25
X99.25Y-109.75
T3
X116.75Y-90.5
X116.75Y-93.04
X88.75Y-76.25
X88.75Y-78.25
X88.75Y-80.25
X88.75Y-82.25
X88.75Y-84.25
X88.75Y-86.25
X88.75Y-88.25
X57.37Y-97.265
X62.25Y-97.265
T4
X116.5Y-70.5
X92.0Y-116.25
X116.86Y-83.72
X106.75Y-116.25
X116.86Y-79.82
T5
X41.81Y-52.94
X41.81Y-55.48
X46.21Y-101.845
X46.21Y-104.385
X41.5Y-101.72
X41.5Y-104.26
X42.25Y-75.25
X42.25Y-77.79
X42.25Y-80.33
X42.25Y-82.87
X42.25Y-85.41
X42.25Y-87.95
X42.25Y-90.49
X51.63Y-113.0
X54.17Y-113.0
X56.71Y-113.0
X59.25Y-113.0
X116.5Y-99.5
X116.5Y-102.04
X116.5Y-104.58
X116.5Y-107.12
X53.88Y-72.39
X56.42Y-72.39
X58.96Y-72.39
X61.5Y-72.39
X47.06Y-46.31
X49.6Y-46.31
X52.14Y-46.31
X54.68Y-46.31
X57.22Y-46.31
X59.76Y-46.31
X66.0Y-72.25
X68.54Y-72.25
X71.08Y-72.25
X94.75Y-46.0
X102.35Y-46.0
X66.13Y-112.91
X68.67Y-112.91
X71.21Y-112.91
X73.75Y-112.91
T6
X35.25Y-39.25
X35.25Y-118.5
X120.25Y-38.5
X120.25Y-118.25
T0
M30
