%TF.GenerationSoftware,KiCad,Pcbnew,(5.1.5)-3*%
%TF.CreationDate,2020-07-28T11:43:05+08:00*%
%TF.ProjectId,2in1kicad,32696e31-6b69-4636-9164-2e6b69636164,rev?*%
%TF.SameCoordinates,Original*%
%TF.FileFunction,Soldermask,Bot*%
%TF.FilePolarity,Negative*%
%FSLAX46Y46*%
G04 Gerber Fmt 4.6, Leading zero omitted, Abs format (unit mm)*
G04 Created by KiCad (PCBNEW (5.1.5)-3) date 2020-07-28 11:43:05*
%MOMM*%
%LPD*%
G04 APERTURE LIST*
%ADD10C,0.350000*%
G04 APERTURE END LIST*
D10*
G36*
X107027395Y-115335546D02*
G01*
X107200466Y-115407234D01*
X107200467Y-115407235D01*
X107356227Y-115511310D01*
X107488690Y-115643773D01*
X107488691Y-115643775D01*
X107592766Y-115799534D01*
X107664454Y-115972605D01*
X107701000Y-116156333D01*
X107701000Y-116343667D01*
X107664454Y-116527395D01*
X107592766Y-116700466D01*
X107592765Y-116700467D01*
X107488690Y-116856227D01*
X107356227Y-116988690D01*
X107277818Y-117041081D01*
X107200466Y-117092766D01*
X107027395Y-117164454D01*
X106843667Y-117201000D01*
X106656333Y-117201000D01*
X106472605Y-117164454D01*
X106299534Y-117092766D01*
X106222182Y-117041081D01*
X106143773Y-116988690D01*
X106011310Y-116856227D01*
X105907235Y-116700467D01*
X105907234Y-116700466D01*
X105835546Y-116527395D01*
X105799000Y-116343667D01*
X105799000Y-116156333D01*
X105835546Y-115972605D01*
X105907234Y-115799534D01*
X106011309Y-115643775D01*
X106011310Y-115643773D01*
X106143773Y-115511310D01*
X106299533Y-115407235D01*
X106299534Y-115407234D01*
X106472605Y-115335546D01*
X106656333Y-115299000D01*
X106843667Y-115299000D01*
X107027395Y-115335546D01*
G37*
G36*
X92277395Y-115335546D02*
G01*
X92450466Y-115407234D01*
X92450467Y-115407235D01*
X92606227Y-115511310D01*
X92738690Y-115643773D01*
X92738691Y-115643775D01*
X92842766Y-115799534D01*
X92914454Y-115972605D01*
X92951000Y-116156333D01*
X92951000Y-116343667D01*
X92914454Y-116527395D01*
X92842766Y-116700466D01*
X92842765Y-116700467D01*
X92738690Y-116856227D01*
X92606227Y-116988690D01*
X92527818Y-117041081D01*
X92450466Y-117092766D01*
X92277395Y-117164454D01*
X92093667Y-117201000D01*
X91906333Y-117201000D01*
X91722605Y-117164454D01*
X91549534Y-117092766D01*
X91472182Y-117041081D01*
X91393773Y-116988690D01*
X91261310Y-116856227D01*
X91157235Y-116700467D01*
X91157234Y-116700466D01*
X91085546Y-116527395D01*
X91049000Y-116343667D01*
X91049000Y-116156333D01*
X91085546Y-115972605D01*
X91157234Y-115799534D01*
X91261309Y-115643775D01*
X91261310Y-115643773D01*
X91393773Y-115511310D01*
X91549533Y-115407235D01*
X91549534Y-115407234D01*
X91722605Y-115335546D01*
X91906333Y-115299000D01*
X92093667Y-115299000D01*
X92277395Y-115335546D01*
G37*
G36*
X51743512Y-112103927D02*
G01*
X51892812Y-112133624D01*
X52056784Y-112201544D01*
X52204354Y-112300147D01*
X52329853Y-112425646D01*
X52428456Y-112573216D01*
X52496376Y-112737188D01*
X52531000Y-112911259D01*
X52531000Y-113088741D01*
X52496376Y-113262812D01*
X52428456Y-113426784D01*
X52329853Y-113574354D01*
X52204354Y-113699853D01*
X52056784Y-113798456D01*
X51892812Y-113866376D01*
X51743512Y-113896073D01*
X51718742Y-113901000D01*
X51541258Y-113901000D01*
X51516488Y-113896073D01*
X51367188Y-113866376D01*
X51203216Y-113798456D01*
X51055646Y-113699853D01*
X50930147Y-113574354D01*
X50831544Y-113426784D01*
X50763624Y-113262812D01*
X50729000Y-113088741D01*
X50729000Y-112911259D01*
X50763624Y-112737188D01*
X50831544Y-112573216D01*
X50930147Y-112425646D01*
X51055646Y-112300147D01*
X51203216Y-112201544D01*
X51367188Y-112133624D01*
X51516488Y-112103927D01*
X51541258Y-112099000D01*
X51718742Y-112099000D01*
X51743512Y-112103927D01*
G37*
G36*
X56823512Y-112103927D02*
G01*
X56972812Y-112133624D01*
X57136784Y-112201544D01*
X57284354Y-112300147D01*
X57409853Y-112425646D01*
X57508456Y-112573216D01*
X57576376Y-112737188D01*
X57611000Y-112911259D01*
X57611000Y-113088741D01*
X57576376Y-113262812D01*
X57508456Y-113426784D01*
X57409853Y-113574354D01*
X57284354Y-113699853D01*
X57136784Y-113798456D01*
X56972812Y-113866376D01*
X56823512Y-113896073D01*
X56798742Y-113901000D01*
X56621258Y-113901000D01*
X56596488Y-113896073D01*
X56447188Y-113866376D01*
X56283216Y-113798456D01*
X56135646Y-113699853D01*
X56010147Y-113574354D01*
X55911544Y-113426784D01*
X55843624Y-113262812D01*
X55809000Y-113088741D01*
X55809000Y-112911259D01*
X55843624Y-112737188D01*
X55911544Y-112573216D01*
X56010147Y-112425646D01*
X56135646Y-112300147D01*
X56283216Y-112201544D01*
X56447188Y-112133624D01*
X56596488Y-112103927D01*
X56621258Y-112099000D01*
X56798742Y-112099000D01*
X56823512Y-112103927D01*
G37*
G36*
X60151000Y-113901000D02*
G01*
X58349000Y-113901000D01*
X58349000Y-112099000D01*
X60151000Y-112099000D01*
X60151000Y-113901000D01*
G37*
G36*
X54283512Y-112103927D02*
G01*
X54432812Y-112133624D01*
X54596784Y-112201544D01*
X54744354Y-112300147D01*
X54869853Y-112425646D01*
X54968456Y-112573216D01*
X55036376Y-112737188D01*
X55071000Y-112911259D01*
X55071000Y-113088741D01*
X55036376Y-113262812D01*
X54968456Y-113426784D01*
X54869853Y-113574354D01*
X54744354Y-113699853D01*
X54596784Y-113798456D01*
X54432812Y-113866376D01*
X54283512Y-113896073D01*
X54258742Y-113901000D01*
X54081258Y-113901000D01*
X54056488Y-113896073D01*
X53907188Y-113866376D01*
X53743216Y-113798456D01*
X53595646Y-113699853D01*
X53470147Y-113574354D01*
X53371544Y-113426784D01*
X53303624Y-113262812D01*
X53269000Y-113088741D01*
X53269000Y-112911259D01*
X53303624Y-112737188D01*
X53371544Y-112573216D01*
X53470147Y-112425646D01*
X53595646Y-112300147D01*
X53743216Y-112201544D01*
X53907188Y-112133624D01*
X54056488Y-112103927D01*
X54081258Y-112099000D01*
X54258742Y-112099000D01*
X54283512Y-112103927D01*
G37*
G36*
X66243512Y-112013927D02*
G01*
X66392812Y-112043624D01*
X66556784Y-112111544D01*
X66704354Y-112210147D01*
X66829853Y-112335646D01*
X66928456Y-112483216D01*
X66996376Y-112647188D01*
X67031000Y-112821259D01*
X67031000Y-112998741D01*
X66996376Y-113172812D01*
X66928456Y-113336784D01*
X66829853Y-113484354D01*
X66704354Y-113609853D01*
X66556784Y-113708456D01*
X66392812Y-113776376D01*
X66243512Y-113806073D01*
X66218742Y-113811000D01*
X66041258Y-113811000D01*
X66016488Y-113806073D01*
X65867188Y-113776376D01*
X65703216Y-113708456D01*
X65555646Y-113609853D01*
X65430147Y-113484354D01*
X65331544Y-113336784D01*
X65263624Y-113172812D01*
X65229000Y-112998741D01*
X65229000Y-112821259D01*
X65263624Y-112647188D01*
X65331544Y-112483216D01*
X65430147Y-112335646D01*
X65555646Y-112210147D01*
X65703216Y-112111544D01*
X65867188Y-112043624D01*
X66016488Y-112013927D01*
X66041258Y-112009000D01*
X66218742Y-112009000D01*
X66243512Y-112013927D01*
G37*
G36*
X74651000Y-113811000D02*
G01*
X72849000Y-113811000D01*
X72849000Y-112009000D01*
X74651000Y-112009000D01*
X74651000Y-113811000D01*
G37*
G36*
X71323512Y-112013927D02*
G01*
X71472812Y-112043624D01*
X71636784Y-112111544D01*
X71784354Y-112210147D01*
X71909853Y-112335646D01*
X72008456Y-112483216D01*
X72076376Y-112647188D01*
X72111000Y-112821259D01*
X72111000Y-112998741D01*
X72076376Y-113172812D01*
X72008456Y-113336784D01*
X71909853Y-113484354D01*
X71784354Y-113609853D01*
X71636784Y-113708456D01*
X71472812Y-113776376D01*
X71323512Y-113806073D01*
X71298742Y-113811000D01*
X71121258Y-113811000D01*
X71096488Y-113806073D01*
X70947188Y-113776376D01*
X70783216Y-113708456D01*
X70635646Y-113609853D01*
X70510147Y-113484354D01*
X70411544Y-113336784D01*
X70343624Y-113172812D01*
X70309000Y-112998741D01*
X70309000Y-112821259D01*
X70343624Y-112647188D01*
X70411544Y-112483216D01*
X70510147Y-112335646D01*
X70635646Y-112210147D01*
X70783216Y-112111544D01*
X70947188Y-112043624D01*
X71096488Y-112013927D01*
X71121258Y-112009000D01*
X71298742Y-112009000D01*
X71323512Y-112013927D01*
G37*
G36*
X68783512Y-112013927D02*
G01*
X68932812Y-112043624D01*
X69096784Y-112111544D01*
X69244354Y-112210147D01*
X69369853Y-112335646D01*
X69468456Y-112483216D01*
X69536376Y-112647188D01*
X69571000Y-112821259D01*
X69571000Y-112998741D01*
X69536376Y-113172812D01*
X69468456Y-113336784D01*
X69369853Y-113484354D01*
X69244354Y-113609853D01*
X69096784Y-113708456D01*
X68932812Y-113776376D01*
X68783512Y-113806073D01*
X68758742Y-113811000D01*
X68581258Y-113811000D01*
X68556488Y-113806073D01*
X68407188Y-113776376D01*
X68243216Y-113708456D01*
X68095646Y-113609853D01*
X67970147Y-113484354D01*
X67871544Y-113336784D01*
X67803624Y-113172812D01*
X67769000Y-112998741D01*
X67769000Y-112821259D01*
X67803624Y-112647188D01*
X67871544Y-112483216D01*
X67970147Y-112335646D01*
X68095646Y-112210147D01*
X68243216Y-112111544D01*
X68407188Y-112043624D01*
X68556488Y-112013927D01*
X68581258Y-112009000D01*
X68758742Y-112009000D01*
X68783512Y-112013927D01*
G37*
G36*
X117401000Y-108021000D02*
G01*
X115599000Y-108021000D01*
X115599000Y-106219000D01*
X117401000Y-106219000D01*
X117401000Y-108021000D01*
G37*
G36*
X116613512Y-103683927D02*
G01*
X116762812Y-103713624D01*
X116926784Y-103781544D01*
X117074354Y-103880147D01*
X117199853Y-104005646D01*
X117298456Y-104153216D01*
X117366376Y-104317188D01*
X117401000Y-104491259D01*
X117401000Y-104668741D01*
X117366376Y-104842812D01*
X117298456Y-105006784D01*
X117199853Y-105154354D01*
X117074354Y-105279853D01*
X116926784Y-105378456D01*
X116762812Y-105446376D01*
X116613512Y-105476073D01*
X116588742Y-105481000D01*
X116411258Y-105481000D01*
X116386488Y-105476073D01*
X116237188Y-105446376D01*
X116073216Y-105378456D01*
X115925646Y-105279853D01*
X115800147Y-105154354D01*
X115701544Y-105006784D01*
X115633624Y-104842812D01*
X115599000Y-104668741D01*
X115599000Y-104491259D01*
X115633624Y-104317188D01*
X115701544Y-104153216D01*
X115800147Y-104005646D01*
X115925646Y-103880147D01*
X116073216Y-103781544D01*
X116237188Y-103713624D01*
X116386488Y-103683927D01*
X116411258Y-103679000D01*
X116588742Y-103679000D01*
X116613512Y-103683927D01*
G37*
G36*
X46323512Y-103488927D02*
G01*
X46472812Y-103518624D01*
X46636784Y-103586544D01*
X46784354Y-103685147D01*
X46909853Y-103810646D01*
X47008456Y-103958216D01*
X47076376Y-104122188D01*
X47111000Y-104296259D01*
X47111000Y-104473741D01*
X47076376Y-104647812D01*
X47008456Y-104811784D01*
X46909853Y-104959354D01*
X46784354Y-105084853D01*
X46636784Y-105183456D01*
X46472812Y-105251376D01*
X46329650Y-105279852D01*
X46298742Y-105286000D01*
X46121258Y-105286000D01*
X46090350Y-105279852D01*
X45947188Y-105251376D01*
X45783216Y-105183456D01*
X45635646Y-105084853D01*
X45510147Y-104959354D01*
X45411544Y-104811784D01*
X45343624Y-104647812D01*
X45309000Y-104473741D01*
X45309000Y-104296259D01*
X45343624Y-104122188D01*
X45411544Y-103958216D01*
X45510147Y-103810646D01*
X45635646Y-103685147D01*
X45783216Y-103586544D01*
X45947188Y-103518624D01*
X46096488Y-103488927D01*
X46121258Y-103484000D01*
X46298742Y-103484000D01*
X46323512Y-103488927D01*
G37*
G36*
X41613512Y-103363927D02*
G01*
X41762812Y-103393624D01*
X41926784Y-103461544D01*
X42074354Y-103560147D01*
X42199853Y-103685646D01*
X42298456Y-103833216D01*
X42366376Y-103997188D01*
X42401000Y-104171259D01*
X42401000Y-104348741D01*
X42366376Y-104522812D01*
X42298456Y-104686784D01*
X42199853Y-104834354D01*
X42074354Y-104959853D01*
X41926784Y-105058456D01*
X41762812Y-105126376D01*
X41613512Y-105156073D01*
X41588742Y-105161000D01*
X41411258Y-105161000D01*
X41386488Y-105156073D01*
X41237188Y-105126376D01*
X41073216Y-105058456D01*
X40925646Y-104959853D01*
X40800147Y-104834354D01*
X40701544Y-104686784D01*
X40633624Y-104522812D01*
X40599000Y-104348741D01*
X40599000Y-104171259D01*
X40633624Y-103997188D01*
X40701544Y-103833216D01*
X40800147Y-103685646D01*
X40925646Y-103560147D01*
X41073216Y-103461544D01*
X41237188Y-103393624D01*
X41386488Y-103363927D01*
X41411258Y-103359000D01*
X41588742Y-103359000D01*
X41613512Y-103363927D01*
G37*
G36*
X116613512Y-101143927D02*
G01*
X116762812Y-101173624D01*
X116926784Y-101241544D01*
X117074354Y-101340147D01*
X117199853Y-101465646D01*
X117298456Y-101613216D01*
X117366376Y-101777188D01*
X117401000Y-101951259D01*
X117401000Y-102128741D01*
X117366376Y-102302812D01*
X117298456Y-102466784D01*
X117199853Y-102614354D01*
X117074354Y-102739853D01*
X116926784Y-102838456D01*
X116762812Y-102906376D01*
X116613512Y-102936073D01*
X116588742Y-102941000D01*
X116411258Y-102941000D01*
X116386488Y-102936073D01*
X116237188Y-102906376D01*
X116073216Y-102838456D01*
X115925646Y-102739853D01*
X115800147Y-102614354D01*
X115701544Y-102466784D01*
X115633624Y-102302812D01*
X115599000Y-102128741D01*
X115599000Y-101951259D01*
X115633624Y-101777188D01*
X115701544Y-101613216D01*
X115800147Y-101465646D01*
X115925646Y-101340147D01*
X116073216Y-101241544D01*
X116237188Y-101173624D01*
X116386488Y-101143927D01*
X116411258Y-101139000D01*
X116588742Y-101139000D01*
X116613512Y-101143927D01*
G37*
G36*
X47111000Y-102746000D02*
G01*
X45309000Y-102746000D01*
X45309000Y-100944000D01*
X47111000Y-100944000D01*
X47111000Y-102746000D01*
G37*
G36*
X42401000Y-102621000D02*
G01*
X40599000Y-102621000D01*
X40599000Y-100819000D01*
X42401000Y-100819000D01*
X42401000Y-102621000D01*
G37*
G36*
X116613512Y-98603927D02*
G01*
X116762812Y-98633624D01*
X116926784Y-98701544D01*
X117074354Y-98800147D01*
X117199853Y-98925646D01*
X117298456Y-99073216D01*
X117366376Y-99237188D01*
X117401000Y-99411259D01*
X117401000Y-99588741D01*
X117366376Y-99762812D01*
X117298456Y-99926784D01*
X117199853Y-100074354D01*
X117074354Y-100199853D01*
X116926784Y-100298456D01*
X116762812Y-100366376D01*
X116613512Y-100396073D01*
X116588742Y-100401000D01*
X116411258Y-100401000D01*
X116386488Y-100396073D01*
X116237188Y-100366376D01*
X116073216Y-100298456D01*
X115925646Y-100199853D01*
X115800147Y-100074354D01*
X115701544Y-99926784D01*
X115633624Y-99762812D01*
X115599000Y-99588741D01*
X115599000Y-99411259D01*
X115633624Y-99237188D01*
X115701544Y-99073216D01*
X115800147Y-98925646D01*
X115925646Y-98800147D01*
X116073216Y-98701544D01*
X116237188Y-98633624D01*
X116386488Y-98603927D01*
X116411258Y-98599000D01*
X116588742Y-98599000D01*
X116613512Y-98603927D01*
G37*
G36*
X62483642Y-96494781D02*
G01*
X62629414Y-96555162D01*
X62629416Y-96555163D01*
X62760608Y-96642822D01*
X62872178Y-96754392D01*
X62959837Y-96885584D01*
X62959838Y-96885586D01*
X63020219Y-97031358D01*
X63051000Y-97186107D01*
X63051000Y-97343893D01*
X63020219Y-97498642D01*
X62959838Y-97644414D01*
X62959837Y-97644416D01*
X62872178Y-97775608D01*
X62760608Y-97887178D01*
X62629416Y-97974837D01*
X62629415Y-97974838D01*
X62629414Y-97974838D01*
X62483642Y-98035219D01*
X62328893Y-98066000D01*
X62171107Y-98066000D01*
X62016358Y-98035219D01*
X61870586Y-97974838D01*
X61870585Y-97974838D01*
X61870584Y-97974837D01*
X61739392Y-97887178D01*
X61627822Y-97775608D01*
X61540163Y-97644416D01*
X61540162Y-97644414D01*
X61479781Y-97498642D01*
X61449000Y-97343893D01*
X61449000Y-97186107D01*
X61479781Y-97031358D01*
X61540162Y-96885586D01*
X61540163Y-96885584D01*
X61627822Y-96754392D01*
X61739392Y-96642822D01*
X61870584Y-96555163D01*
X61870586Y-96555162D01*
X62016358Y-96494781D01*
X62171107Y-96464000D01*
X62328893Y-96464000D01*
X62483642Y-96494781D01*
G37*
G36*
X57603642Y-96494781D02*
G01*
X57749414Y-96555162D01*
X57749416Y-96555163D01*
X57880608Y-96642822D01*
X57992178Y-96754392D01*
X58079837Y-96885584D01*
X58079838Y-96885586D01*
X58140219Y-97031358D01*
X58171000Y-97186107D01*
X58171000Y-97343893D01*
X58140219Y-97498642D01*
X58079838Y-97644414D01*
X58079837Y-97644416D01*
X57992178Y-97775608D01*
X57880608Y-97887178D01*
X57749416Y-97974837D01*
X57749415Y-97974838D01*
X57749414Y-97974838D01*
X57603642Y-98035219D01*
X57448893Y-98066000D01*
X57291107Y-98066000D01*
X57136358Y-98035219D01*
X56990586Y-97974838D01*
X56990585Y-97974838D01*
X56990584Y-97974837D01*
X56859392Y-97887178D01*
X56747822Y-97775608D01*
X56660163Y-97644416D01*
X56660162Y-97644414D01*
X56599781Y-97498642D01*
X56569000Y-97343893D01*
X56569000Y-97186107D01*
X56599781Y-97031358D01*
X56660162Y-96885586D01*
X56660163Y-96885584D01*
X56747822Y-96754392D01*
X56859392Y-96642822D01*
X56990584Y-96555163D01*
X56990586Y-96555162D01*
X57136358Y-96494781D01*
X57291107Y-96464000D01*
X57448893Y-96464000D01*
X57603642Y-96494781D01*
G37*
G36*
X116998228Y-92221703D02*
G01*
X117153100Y-92285853D01*
X117292481Y-92378985D01*
X117411015Y-92497519D01*
X117504147Y-92636900D01*
X117568297Y-92791772D01*
X117601000Y-92956184D01*
X117601000Y-93123816D01*
X117568297Y-93288228D01*
X117504147Y-93443100D01*
X117411015Y-93582481D01*
X117292481Y-93701015D01*
X117153100Y-93794147D01*
X116998228Y-93858297D01*
X116833816Y-93891000D01*
X116666184Y-93891000D01*
X116501772Y-93858297D01*
X116346900Y-93794147D01*
X116207519Y-93701015D01*
X116088985Y-93582481D01*
X115995853Y-93443100D01*
X115931703Y-93288228D01*
X115899000Y-93123816D01*
X115899000Y-92956184D01*
X115931703Y-92791772D01*
X115995853Y-92636900D01*
X116088985Y-92497519D01*
X116207519Y-92378985D01*
X116346900Y-92285853D01*
X116501772Y-92221703D01*
X116666184Y-92189000D01*
X116833816Y-92189000D01*
X116998228Y-92221703D01*
G37*
G36*
X42363512Y-89593927D02*
G01*
X42512812Y-89623624D01*
X42676784Y-89691544D01*
X42824354Y-89790147D01*
X42949853Y-89915646D01*
X43048456Y-90063216D01*
X43116376Y-90227188D01*
X43151000Y-90401259D01*
X43151000Y-90578741D01*
X43116376Y-90752812D01*
X43048456Y-90916784D01*
X42949853Y-91064354D01*
X42824354Y-91189853D01*
X42676784Y-91288456D01*
X42512812Y-91356376D01*
X42363512Y-91386073D01*
X42338742Y-91391000D01*
X42161258Y-91391000D01*
X42136488Y-91386073D01*
X41987188Y-91356376D01*
X41823216Y-91288456D01*
X41675646Y-91189853D01*
X41550147Y-91064354D01*
X41451544Y-90916784D01*
X41383624Y-90752812D01*
X41349000Y-90578741D01*
X41349000Y-90401259D01*
X41383624Y-90227188D01*
X41451544Y-90063216D01*
X41550147Y-89915646D01*
X41675646Y-89790147D01*
X41823216Y-89691544D01*
X41987188Y-89623624D01*
X42136488Y-89593927D01*
X42161258Y-89589000D01*
X42338742Y-89589000D01*
X42363512Y-89593927D01*
G37*
G36*
X116998228Y-89681703D02*
G01*
X117153100Y-89745853D01*
X117292481Y-89838985D01*
X117411015Y-89957519D01*
X117504147Y-90096900D01*
X117568297Y-90251772D01*
X117601000Y-90416184D01*
X117601000Y-90583816D01*
X117568297Y-90748228D01*
X117504147Y-90903100D01*
X117411015Y-91042481D01*
X117292481Y-91161015D01*
X117153100Y-91254147D01*
X116998228Y-91318297D01*
X116833816Y-91351000D01*
X116666184Y-91351000D01*
X116501772Y-91318297D01*
X116346900Y-91254147D01*
X116207519Y-91161015D01*
X116088985Y-91042481D01*
X115995853Y-90903100D01*
X115931703Y-90748228D01*
X115899000Y-90583816D01*
X115899000Y-90416184D01*
X115931703Y-90251772D01*
X115995853Y-90096900D01*
X116088985Y-89957519D01*
X116207519Y-89838985D01*
X116346900Y-89745853D01*
X116501772Y-89681703D01*
X116666184Y-89649000D01*
X116833816Y-89649000D01*
X116998228Y-89681703D01*
G37*
G36*
X89476000Y-88976000D02*
G01*
X88024000Y-88976000D01*
X88024000Y-87524000D01*
X89476000Y-87524000D01*
X89476000Y-88976000D01*
G37*
G36*
X42363512Y-87053927D02*
G01*
X42512812Y-87083624D01*
X42676784Y-87151544D01*
X42824354Y-87250147D01*
X42949853Y-87375646D01*
X43048456Y-87523216D01*
X43116376Y-87687188D01*
X43151000Y-87861259D01*
X43151000Y-88038741D01*
X43116376Y-88212812D01*
X43048456Y-88376784D01*
X42949853Y-88524354D01*
X42824354Y-88649853D01*
X42676784Y-88748456D01*
X42512812Y-88816376D01*
X42363512Y-88846073D01*
X42338742Y-88851000D01*
X42161258Y-88851000D01*
X42136488Y-88846073D01*
X41987188Y-88816376D01*
X41823216Y-88748456D01*
X41675646Y-88649853D01*
X41550147Y-88524354D01*
X41451544Y-88376784D01*
X41383624Y-88212812D01*
X41349000Y-88038741D01*
X41349000Y-87861259D01*
X41383624Y-87687188D01*
X41451544Y-87523216D01*
X41550147Y-87375646D01*
X41675646Y-87250147D01*
X41823216Y-87151544D01*
X41987188Y-87083624D01*
X42136488Y-87053927D01*
X42161258Y-87049000D01*
X42338742Y-87049000D01*
X42363512Y-87053927D01*
G37*
G36*
X88961766Y-85551899D02*
G01*
X89093888Y-85606626D01*
X89093890Y-85606627D01*
X89212798Y-85686079D01*
X89313921Y-85787202D01*
X89393373Y-85906110D01*
X89393374Y-85906112D01*
X89448101Y-86038234D01*
X89476000Y-86178494D01*
X89476000Y-86321506D01*
X89448101Y-86461766D01*
X89393374Y-86593888D01*
X89393373Y-86593890D01*
X89313921Y-86712798D01*
X89212798Y-86813921D01*
X89093890Y-86893373D01*
X89093889Y-86893374D01*
X89093888Y-86893374D01*
X88961766Y-86948101D01*
X88821506Y-86976000D01*
X88678494Y-86976000D01*
X88538234Y-86948101D01*
X88406112Y-86893374D01*
X88406111Y-86893374D01*
X88406110Y-86893373D01*
X88287202Y-86813921D01*
X88186079Y-86712798D01*
X88106627Y-86593890D01*
X88106626Y-86593888D01*
X88051899Y-86461766D01*
X88024000Y-86321506D01*
X88024000Y-86178494D01*
X88051899Y-86038234D01*
X88106626Y-85906112D01*
X88106627Y-85906110D01*
X88186079Y-85787202D01*
X88287202Y-85686079D01*
X88406110Y-85606627D01*
X88406112Y-85606626D01*
X88538234Y-85551899D01*
X88678494Y-85524000D01*
X88821506Y-85524000D01*
X88961766Y-85551899D01*
G37*
G36*
X42363512Y-84513927D02*
G01*
X42512812Y-84543624D01*
X42676784Y-84611544D01*
X42824354Y-84710147D01*
X42949853Y-84835646D01*
X43048456Y-84983216D01*
X43116376Y-85147188D01*
X43151000Y-85321259D01*
X43151000Y-85498741D01*
X43116376Y-85672812D01*
X43048456Y-85836784D01*
X42949853Y-85984354D01*
X42824354Y-86109853D01*
X42676784Y-86208456D01*
X42512812Y-86276376D01*
X42363512Y-86306073D01*
X42338742Y-86311000D01*
X42161258Y-86311000D01*
X42136488Y-86306073D01*
X41987188Y-86276376D01*
X41823216Y-86208456D01*
X41675646Y-86109853D01*
X41550147Y-85984354D01*
X41451544Y-85836784D01*
X41383624Y-85672812D01*
X41349000Y-85498741D01*
X41349000Y-85321259D01*
X41383624Y-85147188D01*
X41451544Y-84983216D01*
X41550147Y-84835646D01*
X41675646Y-84710147D01*
X41823216Y-84611544D01*
X41987188Y-84543624D01*
X42136488Y-84513927D01*
X42161258Y-84509000D01*
X42338742Y-84509000D01*
X42363512Y-84513927D01*
G37*
G36*
X88961766Y-83551899D02*
G01*
X89093888Y-83606626D01*
X89093890Y-83606627D01*
X89212798Y-83686079D01*
X89313921Y-83787202D01*
X89313922Y-83787204D01*
X89393374Y-83906112D01*
X89448101Y-84038234D01*
X89476000Y-84178494D01*
X89476000Y-84321506D01*
X89448101Y-84461766D01*
X89406265Y-84562766D01*
X89393373Y-84593890D01*
X89313921Y-84712798D01*
X89212798Y-84813921D01*
X89093890Y-84893373D01*
X89093889Y-84893374D01*
X89093888Y-84893374D01*
X88961766Y-84948101D01*
X88821506Y-84976000D01*
X88678494Y-84976000D01*
X88538234Y-84948101D01*
X88406112Y-84893374D01*
X88406111Y-84893374D01*
X88406110Y-84893373D01*
X88287202Y-84813921D01*
X88186079Y-84712798D01*
X88106627Y-84593890D01*
X88093735Y-84562766D01*
X88051899Y-84461766D01*
X88024000Y-84321506D01*
X88024000Y-84178494D01*
X88051899Y-84038234D01*
X88106626Y-83906112D01*
X88186078Y-83787204D01*
X88186079Y-83787202D01*
X88287202Y-83686079D01*
X88406110Y-83606627D01*
X88406112Y-83606626D01*
X88538234Y-83551899D01*
X88678494Y-83524000D01*
X88821506Y-83524000D01*
X88961766Y-83551899D01*
G37*
G36*
X117137395Y-82805546D02*
G01*
X117310466Y-82877234D01*
X117334621Y-82893374D01*
X117466227Y-82981310D01*
X117598690Y-83113773D01*
X117611411Y-83132812D01*
X117702766Y-83269534D01*
X117774454Y-83442605D01*
X117811000Y-83626333D01*
X117811000Y-83813667D01*
X117774454Y-83997395D01*
X117702766Y-84170466D01*
X117702765Y-84170467D01*
X117598690Y-84326227D01*
X117466227Y-84458690D01*
X117461623Y-84461766D01*
X117310466Y-84562766D01*
X117137395Y-84634454D01*
X116953667Y-84671000D01*
X116766333Y-84671000D01*
X116582605Y-84634454D01*
X116409534Y-84562766D01*
X116258377Y-84461766D01*
X116253773Y-84458690D01*
X116121310Y-84326227D01*
X116017235Y-84170467D01*
X116017234Y-84170466D01*
X115945546Y-83997395D01*
X115909000Y-83813667D01*
X115909000Y-83626333D01*
X115945546Y-83442605D01*
X116017234Y-83269534D01*
X116108589Y-83132812D01*
X116121310Y-83113773D01*
X116253773Y-82981310D01*
X116385379Y-82893374D01*
X116409534Y-82877234D01*
X116582605Y-82805546D01*
X116766333Y-82769000D01*
X116953667Y-82769000D01*
X117137395Y-82805546D01*
G37*
G36*
X42363512Y-81973927D02*
G01*
X42512812Y-82003624D01*
X42676784Y-82071544D01*
X42824354Y-82170147D01*
X42949853Y-82295646D01*
X43048456Y-82443216D01*
X43116376Y-82607188D01*
X43151000Y-82781259D01*
X43151000Y-82958741D01*
X43116376Y-83132812D01*
X43048456Y-83296784D01*
X42949853Y-83444354D01*
X42824354Y-83569853D01*
X42676784Y-83668456D01*
X42512812Y-83736376D01*
X42363512Y-83766073D01*
X42338742Y-83771000D01*
X42161258Y-83771000D01*
X42136488Y-83766073D01*
X41987188Y-83736376D01*
X41823216Y-83668456D01*
X41675646Y-83569853D01*
X41550147Y-83444354D01*
X41451544Y-83296784D01*
X41383624Y-83132812D01*
X41349000Y-82958741D01*
X41349000Y-82781259D01*
X41383624Y-82607188D01*
X41451544Y-82443216D01*
X41550147Y-82295646D01*
X41675646Y-82170147D01*
X41823216Y-82071544D01*
X41987188Y-82003624D01*
X42136488Y-81973927D01*
X42161258Y-81969000D01*
X42338742Y-81969000D01*
X42363512Y-81973927D01*
G37*
G36*
X88961766Y-81551899D02*
G01*
X89093888Y-81606626D01*
X89093890Y-81606627D01*
X89212798Y-81686079D01*
X89313921Y-81787202D01*
X89313922Y-81787204D01*
X89393374Y-81906112D01*
X89448101Y-82038234D01*
X89476000Y-82178494D01*
X89476000Y-82321506D01*
X89448101Y-82461766D01*
X89393374Y-82593888D01*
X89393373Y-82593890D01*
X89313921Y-82712798D01*
X89212798Y-82813921D01*
X89093890Y-82893373D01*
X89093889Y-82893374D01*
X89093888Y-82893374D01*
X88961766Y-82948101D01*
X88821506Y-82976000D01*
X88678494Y-82976000D01*
X88538234Y-82948101D01*
X88406112Y-82893374D01*
X88406111Y-82893374D01*
X88406110Y-82893373D01*
X88287202Y-82813921D01*
X88186079Y-82712798D01*
X88106627Y-82593890D01*
X88106626Y-82593888D01*
X88051899Y-82461766D01*
X88024000Y-82321506D01*
X88024000Y-82178494D01*
X88051899Y-82038234D01*
X88106626Y-81906112D01*
X88186078Y-81787204D01*
X88186079Y-81787202D01*
X88287202Y-81686079D01*
X88406110Y-81606627D01*
X88406112Y-81606626D01*
X88538234Y-81551899D01*
X88678494Y-81524000D01*
X88821506Y-81524000D01*
X88961766Y-81551899D01*
G37*
G36*
X42363512Y-79433927D02*
G01*
X42512812Y-79463624D01*
X42676784Y-79531544D01*
X42824354Y-79630147D01*
X42949853Y-79755646D01*
X43048456Y-79903216D01*
X43116376Y-80067188D01*
X43146073Y-80216488D01*
X43151000Y-80241258D01*
X43151000Y-80418742D01*
X43149511Y-80426227D01*
X43116376Y-80592812D01*
X43048456Y-80756784D01*
X42949853Y-80904354D01*
X42824354Y-81029853D01*
X42676784Y-81128456D01*
X42512812Y-81196376D01*
X42363512Y-81226073D01*
X42338742Y-81231000D01*
X42161258Y-81231000D01*
X42136488Y-81226073D01*
X41987188Y-81196376D01*
X41823216Y-81128456D01*
X41675646Y-81029853D01*
X41550147Y-80904354D01*
X41451544Y-80756784D01*
X41383624Y-80592812D01*
X41350489Y-80426227D01*
X41349000Y-80418742D01*
X41349000Y-80241258D01*
X41353927Y-80216488D01*
X41383624Y-80067188D01*
X41451544Y-79903216D01*
X41550147Y-79755646D01*
X41675646Y-79630147D01*
X41823216Y-79531544D01*
X41987188Y-79463624D01*
X42136488Y-79433927D01*
X42161258Y-79429000D01*
X42338742Y-79429000D01*
X42363512Y-79433927D01*
G37*
G36*
X88961766Y-79551899D02*
G01*
X89093888Y-79606626D01*
X89093890Y-79606627D01*
X89212798Y-79686079D01*
X89313921Y-79787202D01*
X89393373Y-79906110D01*
X89393374Y-79906112D01*
X89448101Y-80038234D01*
X89476000Y-80178494D01*
X89476000Y-80321506D01*
X89448101Y-80461766D01*
X89407953Y-80558691D01*
X89393373Y-80593890D01*
X89313921Y-80712798D01*
X89212798Y-80813921D01*
X89093890Y-80893373D01*
X89093889Y-80893374D01*
X89093888Y-80893374D01*
X88961766Y-80948101D01*
X88821506Y-80976000D01*
X88678494Y-80976000D01*
X88538234Y-80948101D01*
X88406112Y-80893374D01*
X88406111Y-80893374D01*
X88406110Y-80893373D01*
X88287202Y-80813921D01*
X88186079Y-80712798D01*
X88106627Y-80593890D01*
X88092047Y-80558691D01*
X88051899Y-80461766D01*
X88024000Y-80321506D01*
X88024000Y-80178494D01*
X88051899Y-80038234D01*
X88106626Y-79906112D01*
X88106627Y-79906110D01*
X88186079Y-79787202D01*
X88287202Y-79686079D01*
X88406110Y-79606627D01*
X88406112Y-79606626D01*
X88538234Y-79551899D01*
X88678494Y-79524000D01*
X88821506Y-79524000D01*
X88961766Y-79551899D01*
G37*
G36*
X117137395Y-78905546D02*
G01*
X117310466Y-78977234D01*
X117310467Y-78977235D01*
X117466227Y-79081310D01*
X117598690Y-79213773D01*
X117598691Y-79213775D01*
X117702766Y-79369534D01*
X117774454Y-79542605D01*
X117811000Y-79726333D01*
X117811000Y-79913667D01*
X117774454Y-80097395D01*
X117702766Y-80270466D01*
X117702765Y-80270467D01*
X117598690Y-80426227D01*
X117466227Y-80558690D01*
X117413549Y-80593888D01*
X117310466Y-80662766D01*
X117137395Y-80734454D01*
X116953667Y-80771000D01*
X116766333Y-80771000D01*
X116582605Y-80734454D01*
X116409534Y-80662766D01*
X116306451Y-80593888D01*
X116253773Y-80558690D01*
X116121310Y-80426227D01*
X116017235Y-80270467D01*
X116017234Y-80270466D01*
X115945546Y-80097395D01*
X115909000Y-79913667D01*
X115909000Y-79726333D01*
X115945546Y-79542605D01*
X116017234Y-79369534D01*
X116121309Y-79213775D01*
X116121310Y-79213773D01*
X116253773Y-79081310D01*
X116409533Y-78977235D01*
X116409534Y-78977234D01*
X116582605Y-78905546D01*
X116766333Y-78869000D01*
X116953667Y-78869000D01*
X117137395Y-78905546D01*
G37*
G36*
X88961766Y-77551899D02*
G01*
X89093888Y-77606626D01*
X89093890Y-77606627D01*
X89212798Y-77686079D01*
X89313921Y-77787202D01*
X89375086Y-77878742D01*
X89393374Y-77906112D01*
X89448101Y-78038234D01*
X89476000Y-78178494D01*
X89476000Y-78321506D01*
X89448101Y-78461766D01*
X89395624Y-78588456D01*
X89393373Y-78593890D01*
X89313921Y-78712798D01*
X89212798Y-78813921D01*
X89093890Y-78893373D01*
X89093889Y-78893374D01*
X89093888Y-78893374D01*
X88961766Y-78948101D01*
X88821506Y-78976000D01*
X88678494Y-78976000D01*
X88538234Y-78948101D01*
X88406112Y-78893374D01*
X88406111Y-78893374D01*
X88406110Y-78893373D01*
X88287202Y-78813921D01*
X88186079Y-78712798D01*
X88106627Y-78593890D01*
X88104376Y-78588456D01*
X88051899Y-78461766D01*
X88024000Y-78321506D01*
X88024000Y-78178494D01*
X88051899Y-78038234D01*
X88106626Y-77906112D01*
X88124914Y-77878742D01*
X88186079Y-77787202D01*
X88287202Y-77686079D01*
X88406110Y-77606627D01*
X88406112Y-77606626D01*
X88538234Y-77551899D01*
X88678494Y-77524000D01*
X88821506Y-77524000D01*
X88961766Y-77551899D01*
G37*
G36*
X42360726Y-76893373D02*
G01*
X42512812Y-76923624D01*
X42676784Y-76991544D01*
X42824354Y-77090147D01*
X42949853Y-77215646D01*
X43048456Y-77363216D01*
X43116376Y-77527188D01*
X43151000Y-77701259D01*
X43151000Y-77878741D01*
X43116376Y-78052812D01*
X43048456Y-78216784D01*
X42949853Y-78364354D01*
X42824354Y-78489853D01*
X42676784Y-78588456D01*
X42512812Y-78656376D01*
X42363512Y-78686073D01*
X42338742Y-78691000D01*
X42161258Y-78691000D01*
X42136488Y-78686073D01*
X41987188Y-78656376D01*
X41823216Y-78588456D01*
X41675646Y-78489853D01*
X41550147Y-78364354D01*
X41451544Y-78216784D01*
X41383624Y-78052812D01*
X41349000Y-77878741D01*
X41349000Y-77701259D01*
X41383624Y-77527188D01*
X41451544Y-77363216D01*
X41550147Y-77215646D01*
X41675646Y-77090147D01*
X41823216Y-76991544D01*
X41987188Y-76923624D01*
X42139274Y-76893373D01*
X42161258Y-76889000D01*
X42338742Y-76889000D01*
X42360726Y-76893373D01*
G37*
G36*
X88961766Y-75551899D02*
G01*
X89093888Y-75606626D01*
X89093890Y-75606627D01*
X89212798Y-75686079D01*
X89313921Y-75787202D01*
X89313922Y-75787204D01*
X89393374Y-75906112D01*
X89448101Y-76038234D01*
X89476000Y-76178494D01*
X89476000Y-76321506D01*
X89448101Y-76461766D01*
X89393374Y-76593888D01*
X89393373Y-76593890D01*
X89313921Y-76712798D01*
X89212798Y-76813921D01*
X89093890Y-76893373D01*
X89093889Y-76893374D01*
X89093888Y-76893374D01*
X88961766Y-76948101D01*
X88821506Y-76976000D01*
X88678494Y-76976000D01*
X88538234Y-76948101D01*
X88406112Y-76893374D01*
X88406111Y-76893374D01*
X88406110Y-76893373D01*
X88287202Y-76813921D01*
X88186079Y-76712798D01*
X88106627Y-76593890D01*
X88106626Y-76593888D01*
X88051899Y-76461766D01*
X88024000Y-76321506D01*
X88024000Y-76178494D01*
X88051899Y-76038234D01*
X88106626Y-75906112D01*
X88186078Y-75787204D01*
X88186079Y-75787202D01*
X88287202Y-75686079D01*
X88406110Y-75606627D01*
X88406112Y-75606626D01*
X88538234Y-75551899D01*
X88678494Y-75524000D01*
X88821506Y-75524000D01*
X88961766Y-75551899D01*
G37*
G36*
X43151000Y-76151000D02*
G01*
X41349000Y-76151000D01*
X41349000Y-74349000D01*
X43151000Y-74349000D01*
X43151000Y-76151000D01*
G37*
G36*
X62401000Y-73291000D02*
G01*
X60599000Y-73291000D01*
X60599000Y-71489000D01*
X62401000Y-71489000D01*
X62401000Y-73291000D01*
G37*
G36*
X53993512Y-71493927D02*
G01*
X54142812Y-71523624D01*
X54306784Y-71591544D01*
X54454354Y-71690147D01*
X54579853Y-71815646D01*
X54678456Y-71963216D01*
X54746376Y-72127188D01*
X54781000Y-72301259D01*
X54781000Y-72478741D01*
X54746376Y-72652812D01*
X54678456Y-72816784D01*
X54579853Y-72964354D01*
X54454354Y-73089853D01*
X54306784Y-73188456D01*
X54142812Y-73256376D01*
X53993512Y-73286073D01*
X53968742Y-73291000D01*
X53791258Y-73291000D01*
X53766488Y-73286073D01*
X53617188Y-73256376D01*
X53453216Y-73188456D01*
X53305646Y-73089853D01*
X53180147Y-72964354D01*
X53081544Y-72816784D01*
X53013624Y-72652812D01*
X52979000Y-72478741D01*
X52979000Y-72301259D01*
X53013624Y-72127188D01*
X53081544Y-71963216D01*
X53180147Y-71815646D01*
X53305646Y-71690147D01*
X53453216Y-71591544D01*
X53617188Y-71523624D01*
X53766488Y-71493927D01*
X53791258Y-71489000D01*
X53968742Y-71489000D01*
X53993512Y-71493927D01*
G37*
G36*
X56533512Y-71493927D02*
G01*
X56682812Y-71523624D01*
X56846784Y-71591544D01*
X56994354Y-71690147D01*
X57119853Y-71815646D01*
X57218456Y-71963216D01*
X57286376Y-72127188D01*
X57321000Y-72301259D01*
X57321000Y-72478741D01*
X57286376Y-72652812D01*
X57218456Y-72816784D01*
X57119853Y-72964354D01*
X56994354Y-73089853D01*
X56846784Y-73188456D01*
X56682812Y-73256376D01*
X56533512Y-73286073D01*
X56508742Y-73291000D01*
X56331258Y-73291000D01*
X56306488Y-73286073D01*
X56157188Y-73256376D01*
X55993216Y-73188456D01*
X55845646Y-73089853D01*
X55720147Y-72964354D01*
X55621544Y-72816784D01*
X55553624Y-72652812D01*
X55519000Y-72478741D01*
X55519000Y-72301259D01*
X55553624Y-72127188D01*
X55621544Y-71963216D01*
X55720147Y-71815646D01*
X55845646Y-71690147D01*
X55993216Y-71591544D01*
X56157188Y-71523624D01*
X56306488Y-71493927D01*
X56331258Y-71489000D01*
X56508742Y-71489000D01*
X56533512Y-71493927D01*
G37*
G36*
X59073512Y-71493927D02*
G01*
X59222812Y-71523624D01*
X59386784Y-71591544D01*
X59534354Y-71690147D01*
X59659853Y-71815646D01*
X59758456Y-71963216D01*
X59826376Y-72127188D01*
X59861000Y-72301259D01*
X59861000Y-72478741D01*
X59826376Y-72652812D01*
X59758456Y-72816784D01*
X59659853Y-72964354D01*
X59534354Y-73089853D01*
X59386784Y-73188456D01*
X59222812Y-73256376D01*
X59073512Y-73286073D01*
X59048742Y-73291000D01*
X58871258Y-73291000D01*
X58846488Y-73286073D01*
X58697188Y-73256376D01*
X58533216Y-73188456D01*
X58385646Y-73089853D01*
X58260147Y-72964354D01*
X58161544Y-72816784D01*
X58093624Y-72652812D01*
X58059000Y-72478741D01*
X58059000Y-72301259D01*
X58093624Y-72127188D01*
X58161544Y-71963216D01*
X58260147Y-71815646D01*
X58385646Y-71690147D01*
X58533216Y-71591544D01*
X58697188Y-71523624D01*
X58846488Y-71493927D01*
X58871258Y-71489000D01*
X59048742Y-71489000D01*
X59073512Y-71493927D01*
G37*
G36*
X71193512Y-71353927D02*
G01*
X71342812Y-71383624D01*
X71506784Y-71451544D01*
X71654354Y-71550147D01*
X71779853Y-71675646D01*
X71878456Y-71823216D01*
X71946376Y-71987188D01*
X71981000Y-72161259D01*
X71981000Y-72338741D01*
X71946376Y-72512812D01*
X71878456Y-72676784D01*
X71779853Y-72824354D01*
X71654354Y-72949853D01*
X71506784Y-73048456D01*
X71342812Y-73116376D01*
X71193512Y-73146073D01*
X71168742Y-73151000D01*
X70991258Y-73151000D01*
X70966488Y-73146073D01*
X70817188Y-73116376D01*
X70653216Y-73048456D01*
X70505646Y-72949853D01*
X70380147Y-72824354D01*
X70281544Y-72676784D01*
X70213624Y-72512812D01*
X70179000Y-72338741D01*
X70179000Y-72161259D01*
X70213624Y-71987188D01*
X70281544Y-71823216D01*
X70380147Y-71675646D01*
X70505646Y-71550147D01*
X70653216Y-71451544D01*
X70817188Y-71383624D01*
X70966488Y-71353927D01*
X70991258Y-71349000D01*
X71168742Y-71349000D01*
X71193512Y-71353927D01*
G37*
G36*
X66901000Y-73151000D02*
G01*
X65099000Y-73151000D01*
X65099000Y-71349000D01*
X66901000Y-71349000D01*
X66901000Y-73151000D01*
G37*
G36*
X68653512Y-71353927D02*
G01*
X68802812Y-71383624D01*
X68966784Y-71451544D01*
X69114354Y-71550147D01*
X69239853Y-71675646D01*
X69338456Y-71823216D01*
X69406376Y-71987188D01*
X69441000Y-72161259D01*
X69441000Y-72338741D01*
X69406376Y-72512812D01*
X69338456Y-72676784D01*
X69239853Y-72824354D01*
X69114354Y-72949853D01*
X68966784Y-73048456D01*
X68802812Y-73116376D01*
X68653512Y-73146073D01*
X68628742Y-73151000D01*
X68451258Y-73151000D01*
X68426488Y-73146073D01*
X68277188Y-73116376D01*
X68113216Y-73048456D01*
X67965646Y-72949853D01*
X67840147Y-72824354D01*
X67741544Y-72676784D01*
X67673624Y-72512812D01*
X67639000Y-72338741D01*
X67639000Y-72161259D01*
X67673624Y-71987188D01*
X67741544Y-71823216D01*
X67840147Y-71675646D01*
X67965646Y-71550147D01*
X68113216Y-71451544D01*
X68277188Y-71383624D01*
X68426488Y-71353927D01*
X68451258Y-71349000D01*
X68628742Y-71349000D01*
X68653512Y-71353927D01*
G37*
G36*
X116777395Y-69585546D02*
G01*
X116950466Y-69657234D01*
X116950467Y-69657235D01*
X117106227Y-69761310D01*
X117238690Y-69893773D01*
X117238691Y-69893775D01*
X117342766Y-70049534D01*
X117414454Y-70222605D01*
X117451000Y-70406333D01*
X117451000Y-70593667D01*
X117414454Y-70777395D01*
X117342766Y-70950466D01*
X117342765Y-70950467D01*
X117238690Y-71106227D01*
X117106227Y-71238690D01*
X117027818Y-71291081D01*
X116950466Y-71342766D01*
X116777395Y-71414454D01*
X116593667Y-71451000D01*
X116406333Y-71451000D01*
X116222605Y-71414454D01*
X116049534Y-71342766D01*
X115972182Y-71291081D01*
X115893773Y-71238690D01*
X115761310Y-71106227D01*
X115657235Y-70950467D01*
X115657234Y-70950466D01*
X115585546Y-70777395D01*
X115549000Y-70593667D01*
X115549000Y-70406333D01*
X115585546Y-70222605D01*
X115657234Y-70049534D01*
X115761309Y-69893775D01*
X115761310Y-69893773D01*
X115893773Y-69761310D01*
X116049533Y-69657235D01*
X116049534Y-69657234D01*
X116222605Y-69585546D01*
X116406333Y-69549000D01*
X116593667Y-69549000D01*
X116777395Y-69585546D01*
G37*
G36*
X41923512Y-54583927D02*
G01*
X42072812Y-54613624D01*
X42236784Y-54681544D01*
X42384354Y-54780147D01*
X42509853Y-54905646D01*
X42608456Y-55053216D01*
X42676376Y-55217188D01*
X42711000Y-55391259D01*
X42711000Y-55568741D01*
X42676376Y-55742812D01*
X42608456Y-55906784D01*
X42509853Y-56054354D01*
X42384354Y-56179853D01*
X42236784Y-56278456D01*
X42072812Y-56346376D01*
X41923512Y-56376073D01*
X41898742Y-56381000D01*
X41721258Y-56381000D01*
X41696488Y-56376073D01*
X41547188Y-56346376D01*
X41383216Y-56278456D01*
X41235646Y-56179853D01*
X41110147Y-56054354D01*
X41011544Y-55906784D01*
X40943624Y-55742812D01*
X40909000Y-55568741D01*
X40909000Y-55391259D01*
X40943624Y-55217188D01*
X41011544Y-55053216D01*
X41110147Y-54905646D01*
X41235646Y-54780147D01*
X41383216Y-54681544D01*
X41547188Y-54613624D01*
X41696488Y-54583927D01*
X41721258Y-54579000D01*
X41898742Y-54579000D01*
X41923512Y-54583927D01*
G37*
G36*
X42711000Y-53841000D02*
G01*
X40909000Y-53841000D01*
X40909000Y-52039000D01*
X42711000Y-52039000D01*
X42711000Y-53841000D01*
G37*
G36*
X59873512Y-45413927D02*
G01*
X60022812Y-45443624D01*
X60186784Y-45511544D01*
X60334354Y-45610147D01*
X60459853Y-45735646D01*
X60558456Y-45883216D01*
X60626376Y-46047188D01*
X60661000Y-46221259D01*
X60661000Y-46398741D01*
X60626376Y-46572812D01*
X60558456Y-46736784D01*
X60459853Y-46884354D01*
X60334354Y-47009853D01*
X60186784Y-47108456D01*
X60022812Y-47176376D01*
X59873512Y-47206073D01*
X59848742Y-47211000D01*
X59671258Y-47211000D01*
X59646488Y-47206073D01*
X59497188Y-47176376D01*
X59333216Y-47108456D01*
X59185646Y-47009853D01*
X59060147Y-46884354D01*
X58961544Y-46736784D01*
X58893624Y-46572812D01*
X58859000Y-46398741D01*
X58859000Y-46221259D01*
X58893624Y-46047188D01*
X58961544Y-45883216D01*
X59060147Y-45735646D01*
X59185646Y-45610147D01*
X59333216Y-45511544D01*
X59497188Y-45443624D01*
X59646488Y-45413927D01*
X59671258Y-45409000D01*
X59848742Y-45409000D01*
X59873512Y-45413927D01*
G37*
G36*
X47961000Y-47211000D02*
G01*
X46159000Y-47211000D01*
X46159000Y-45409000D01*
X47961000Y-45409000D01*
X47961000Y-47211000D01*
G37*
G36*
X49713512Y-45413927D02*
G01*
X49862812Y-45443624D01*
X50026784Y-45511544D01*
X50174354Y-45610147D01*
X50299853Y-45735646D01*
X50398456Y-45883216D01*
X50466376Y-46047188D01*
X50501000Y-46221259D01*
X50501000Y-46398741D01*
X50466376Y-46572812D01*
X50398456Y-46736784D01*
X50299853Y-46884354D01*
X50174354Y-47009853D01*
X50026784Y-47108456D01*
X49862812Y-47176376D01*
X49713512Y-47206073D01*
X49688742Y-47211000D01*
X49511258Y-47211000D01*
X49486488Y-47206073D01*
X49337188Y-47176376D01*
X49173216Y-47108456D01*
X49025646Y-47009853D01*
X48900147Y-46884354D01*
X48801544Y-46736784D01*
X48733624Y-46572812D01*
X48699000Y-46398741D01*
X48699000Y-46221259D01*
X48733624Y-46047188D01*
X48801544Y-45883216D01*
X48900147Y-45735646D01*
X49025646Y-45610147D01*
X49173216Y-45511544D01*
X49337188Y-45443624D01*
X49486488Y-45413927D01*
X49511258Y-45409000D01*
X49688742Y-45409000D01*
X49713512Y-45413927D01*
G37*
G36*
X52253512Y-45413927D02*
G01*
X52402812Y-45443624D01*
X52566784Y-45511544D01*
X52714354Y-45610147D01*
X52839853Y-45735646D01*
X52938456Y-45883216D01*
X53006376Y-46047188D01*
X53041000Y-46221259D01*
X53041000Y-46398741D01*
X53006376Y-46572812D01*
X52938456Y-46736784D01*
X52839853Y-46884354D01*
X52714354Y-47009853D01*
X52566784Y-47108456D01*
X52402812Y-47176376D01*
X52253512Y-47206073D01*
X52228742Y-47211000D01*
X52051258Y-47211000D01*
X52026488Y-47206073D01*
X51877188Y-47176376D01*
X51713216Y-47108456D01*
X51565646Y-47009853D01*
X51440147Y-46884354D01*
X51341544Y-46736784D01*
X51273624Y-46572812D01*
X51239000Y-46398741D01*
X51239000Y-46221259D01*
X51273624Y-46047188D01*
X51341544Y-45883216D01*
X51440147Y-45735646D01*
X51565646Y-45610147D01*
X51713216Y-45511544D01*
X51877188Y-45443624D01*
X52026488Y-45413927D01*
X52051258Y-45409000D01*
X52228742Y-45409000D01*
X52253512Y-45413927D01*
G37*
G36*
X54793512Y-45413927D02*
G01*
X54942812Y-45443624D01*
X55106784Y-45511544D01*
X55254354Y-45610147D01*
X55379853Y-45735646D01*
X55478456Y-45883216D01*
X55546376Y-46047188D01*
X55581000Y-46221259D01*
X55581000Y-46398741D01*
X55546376Y-46572812D01*
X55478456Y-46736784D01*
X55379853Y-46884354D01*
X55254354Y-47009853D01*
X55106784Y-47108456D01*
X54942812Y-47176376D01*
X54793512Y-47206073D01*
X54768742Y-47211000D01*
X54591258Y-47211000D01*
X54566488Y-47206073D01*
X54417188Y-47176376D01*
X54253216Y-47108456D01*
X54105646Y-47009853D01*
X53980147Y-46884354D01*
X53881544Y-46736784D01*
X53813624Y-46572812D01*
X53779000Y-46398741D01*
X53779000Y-46221259D01*
X53813624Y-46047188D01*
X53881544Y-45883216D01*
X53980147Y-45735646D01*
X54105646Y-45610147D01*
X54253216Y-45511544D01*
X54417188Y-45443624D01*
X54566488Y-45413927D01*
X54591258Y-45409000D01*
X54768742Y-45409000D01*
X54793512Y-45413927D01*
G37*
G36*
X57333512Y-45413927D02*
G01*
X57482812Y-45443624D01*
X57646784Y-45511544D01*
X57794354Y-45610147D01*
X57919853Y-45735646D01*
X58018456Y-45883216D01*
X58086376Y-46047188D01*
X58121000Y-46221259D01*
X58121000Y-46398741D01*
X58086376Y-46572812D01*
X58018456Y-46736784D01*
X57919853Y-46884354D01*
X57794354Y-47009853D01*
X57646784Y-47108456D01*
X57482812Y-47176376D01*
X57333512Y-47206073D01*
X57308742Y-47211000D01*
X57131258Y-47211000D01*
X57106488Y-47206073D01*
X56957188Y-47176376D01*
X56793216Y-47108456D01*
X56645646Y-47009853D01*
X56520147Y-46884354D01*
X56421544Y-46736784D01*
X56353624Y-46572812D01*
X56319000Y-46398741D01*
X56319000Y-46221259D01*
X56353624Y-46047188D01*
X56421544Y-45883216D01*
X56520147Y-45735646D01*
X56645646Y-45610147D01*
X56793216Y-45511544D01*
X56957188Y-45443624D01*
X57106488Y-45413927D01*
X57131258Y-45409000D01*
X57308742Y-45409000D01*
X57333512Y-45413927D01*
G37*
G36*
X103201000Y-46851000D02*
G01*
X101499000Y-46851000D01*
X101499000Y-45149000D01*
X103201000Y-45149000D01*
X103201000Y-46851000D01*
G37*
G36*
X94998228Y-45181703D02*
G01*
X95153100Y-45245853D01*
X95292481Y-45338985D01*
X95411015Y-45457519D01*
X95504147Y-45596900D01*
X95568297Y-45751772D01*
X95601000Y-45916184D01*
X95601000Y-46083816D01*
X95568297Y-46248228D01*
X95504147Y-46403100D01*
X95411015Y-46542481D01*
X95292481Y-46661015D01*
X95153100Y-46754147D01*
X94998228Y-46818297D01*
X94833816Y-46851000D01*
X94666184Y-46851000D01*
X94501772Y-46818297D01*
X94346900Y-46754147D01*
X94207519Y-46661015D01*
X94088985Y-46542481D01*
X93995853Y-46403100D01*
X93931703Y-46248228D01*
X93899000Y-46083816D01*
X93899000Y-45916184D01*
X93931703Y-45751772D01*
X93995853Y-45596900D01*
X94088985Y-45457519D01*
X94207519Y-45338985D01*
X94346900Y-45245853D01*
X94501772Y-45181703D01*
X94666184Y-45149000D01*
X94833816Y-45149000D01*
X94998228Y-45181703D01*
G37*
M02*
