%TF.GenerationSoftware,KiCad,Pcbnew,(5.1.5)-3*%
%TF.CreationDate,2020-07-28T11:43:05+08:00*%
%TF.ProjectId,2in1kicad,32696e31-6b69-4636-9164-2e6b69636164,rev?*%
%TF.SameCoordinates,Original*%
%TF.FileFunction,Legend,Top*%
%TF.FilePolarity,Positive*%
%FSLAX46Y46*%
G04 Gerber Fmt 4.6, Leading zero omitted, Abs format (unit mm)*
G04 Created by KiCad (PCBNEW (5.1.5)-3) date 2020-07-28 11:43:05*
%MOMM*%
%LPD*%
G04 APERTURE LIST*
%ADD10C,0.150000*%
%ADD11C,0.200000*%
%ADD12C,0.120000*%
G04 APERTURE END LIST*
D10*
X118511904Y-106702380D02*
X119130952Y-106702380D01*
X118797619Y-107083333D01*
X118940476Y-107083333D01*
X119035714Y-107130952D01*
X119083333Y-107178571D01*
X119130952Y-107273809D01*
X119130952Y-107511904D01*
X119083333Y-107607142D01*
X119035714Y-107654761D01*
X118940476Y-107702380D01*
X118654761Y-107702380D01*
X118559523Y-107654761D01*
X118511904Y-107607142D01*
X119416666Y-106702380D02*
X119750000Y-107702380D01*
X120083333Y-106702380D01*
X120321428Y-106702380D02*
X120940476Y-106702380D01*
X120607142Y-107083333D01*
X120750000Y-107083333D01*
X120845238Y-107130952D01*
X120892857Y-107178571D01*
X120940476Y-107273809D01*
X120940476Y-107511904D01*
X120892857Y-107607142D01*
X120845238Y-107654761D01*
X120750000Y-107702380D01*
X120464285Y-107702380D01*
X120369047Y-107654761D01*
X120321428Y-107607142D01*
X118535714Y-105154761D02*
X118678571Y-105202380D01*
X118916666Y-105202380D01*
X119011904Y-105154761D01*
X119059523Y-105107142D01*
X119107142Y-105011904D01*
X119107142Y-104916666D01*
X119059523Y-104821428D01*
X119011904Y-104773809D01*
X118916666Y-104726190D01*
X118726190Y-104678571D01*
X118630952Y-104630952D01*
X118583333Y-104583333D01*
X118535714Y-104488095D01*
X118535714Y-104392857D01*
X118583333Y-104297619D01*
X118630952Y-104250000D01*
X118726190Y-104202380D01*
X118964285Y-104202380D01*
X119107142Y-104250000D01*
X119535714Y-105202380D02*
X119535714Y-104202380D01*
X119773809Y-104202380D01*
X119916666Y-104250000D01*
X120011904Y-104345238D01*
X120059523Y-104440476D01*
X120107142Y-104630952D01*
X120107142Y-104773809D01*
X120059523Y-104964285D01*
X120011904Y-105059523D01*
X119916666Y-105154761D01*
X119773809Y-105202380D01*
X119535714Y-105202380D01*
X120488095Y-104916666D02*
X120964285Y-104916666D01*
X120392857Y-105202380D02*
X120726190Y-104202380D01*
X121059523Y-105202380D01*
X118464285Y-102654761D02*
X118607142Y-102702380D01*
X118845238Y-102702380D01*
X118940476Y-102654761D01*
X118988095Y-102607142D01*
X119035714Y-102511904D01*
X119035714Y-102416666D01*
X118988095Y-102321428D01*
X118940476Y-102273809D01*
X118845238Y-102226190D01*
X118654761Y-102178571D01*
X118559523Y-102130952D01*
X118511904Y-102083333D01*
X118464285Y-101988095D01*
X118464285Y-101892857D01*
X118511904Y-101797619D01*
X118559523Y-101750000D01*
X118654761Y-101702380D01*
X118892857Y-101702380D01*
X119035714Y-101750000D01*
X120035714Y-102607142D02*
X119988095Y-102654761D01*
X119845238Y-102702380D01*
X119750000Y-102702380D01*
X119607142Y-102654761D01*
X119511904Y-102559523D01*
X119464285Y-102464285D01*
X119416666Y-102273809D01*
X119416666Y-102130952D01*
X119464285Y-101940476D01*
X119511904Y-101845238D01*
X119607142Y-101750000D01*
X119750000Y-101702380D01*
X119845238Y-101702380D01*
X119988095Y-101750000D01*
X120035714Y-101797619D01*
X120464285Y-102702380D02*
X120464285Y-101702380D01*
X121035714Y-102702380D02*
X120607142Y-102130952D01*
X121035714Y-101702380D02*
X120464285Y-102273809D01*
X118988095Y-99000000D02*
X118892857Y-98952380D01*
X118750000Y-98952380D01*
X118607142Y-99000000D01*
X118511904Y-99095238D01*
X118464285Y-99190476D01*
X118416666Y-99380952D01*
X118416666Y-99523809D01*
X118464285Y-99714285D01*
X118511904Y-99809523D01*
X118607142Y-99904761D01*
X118750000Y-99952380D01*
X118845238Y-99952380D01*
X118988095Y-99904761D01*
X119035714Y-99857142D01*
X119035714Y-99523809D01*
X118845238Y-99523809D01*
X119464285Y-99952380D02*
X119464285Y-98952380D01*
X120035714Y-99952380D01*
X120035714Y-98952380D01*
X120511904Y-99952380D02*
X120511904Y-98952380D01*
X120750000Y-98952380D01*
X120892857Y-99000000D01*
X120988095Y-99095238D01*
X121035714Y-99190476D01*
X121083333Y-99380952D01*
X121083333Y-99523809D01*
X121035714Y-99714285D01*
X120988095Y-99809523D01*
X120892857Y-99904761D01*
X120750000Y-99952380D01*
X120511904Y-99952380D01*
D11*
X70750000Y-69142857D02*
X70678571Y-69285714D01*
X70678571Y-69500000D01*
X70750000Y-69714285D01*
X70892857Y-69857142D01*
X71035714Y-69928571D01*
X71321428Y-70000000D01*
X71535714Y-70000000D01*
X71821428Y-69928571D01*
X71964285Y-69857142D01*
X72107142Y-69714285D01*
X72178571Y-69500000D01*
X72178571Y-69357142D01*
X72107142Y-69142857D01*
X72035714Y-69071428D01*
X71535714Y-69071428D01*
X71535714Y-69357142D01*
X72178571Y-68428571D02*
X70678571Y-68428571D01*
X72178571Y-67571428D01*
X70678571Y-67571428D01*
X72178571Y-66857142D02*
X70678571Y-66857142D01*
X70678571Y-66500000D01*
X70750000Y-66285714D01*
X70892857Y-66142857D01*
X71035714Y-66071428D01*
X71321428Y-66000000D01*
X71535714Y-66000000D01*
X71821428Y-66071428D01*
X71964285Y-66142857D01*
X72107142Y-66285714D01*
X72178571Y-66500000D01*
X72178571Y-66857142D01*
X67928571Y-69892857D02*
X67928571Y-69035714D01*
X69428571Y-69464285D02*
X67928571Y-69464285D01*
X67928571Y-68678571D02*
X69428571Y-67678571D01*
X67928571Y-67678571D02*
X69428571Y-68678571D01*
X66678571Y-69000000D02*
X65964285Y-69500000D01*
X66678571Y-69857142D02*
X65178571Y-69857142D01*
X65178571Y-69285714D01*
X65250000Y-69142857D01*
X65321428Y-69071428D01*
X65464285Y-69000000D01*
X65678571Y-69000000D01*
X65821428Y-69071428D01*
X65892857Y-69142857D01*
X65964285Y-69285714D01*
X65964285Y-69857142D01*
X65178571Y-68500000D02*
X66678571Y-67500000D01*
X65178571Y-67500000D02*
X66678571Y-68500000D01*
X60678571Y-70357142D02*
X60678571Y-69428571D01*
X61250000Y-69928571D01*
X61250000Y-69714285D01*
X61321428Y-69571428D01*
X61392857Y-69500000D01*
X61535714Y-69428571D01*
X61892857Y-69428571D01*
X62035714Y-69500000D01*
X62107142Y-69571428D01*
X62178571Y-69714285D01*
X62178571Y-70142857D01*
X62107142Y-70285714D01*
X62035714Y-70357142D01*
X60678571Y-69000000D02*
X62178571Y-68500000D01*
X60678571Y-68000000D01*
X60678571Y-67642857D02*
X60678571Y-66714285D01*
X61250000Y-67214285D01*
X61250000Y-67000000D01*
X61321428Y-66857142D01*
X61392857Y-66785714D01*
X61535714Y-66714285D01*
X61892857Y-66714285D01*
X62035714Y-66785714D01*
X62107142Y-66857142D01*
X62178571Y-67000000D01*
X62178571Y-67428571D01*
X62107142Y-67571428D01*
X62035714Y-67642857D01*
X59607142Y-70785714D02*
X59678571Y-70571428D01*
X59678571Y-70214285D01*
X59607142Y-70071428D01*
X59535714Y-70000000D01*
X59392857Y-69928571D01*
X59250000Y-69928571D01*
X59107142Y-70000000D01*
X59035714Y-70071428D01*
X58964285Y-70214285D01*
X58892857Y-70500000D01*
X58821428Y-70642857D01*
X58750000Y-70714285D01*
X58607142Y-70785714D01*
X58464285Y-70785714D01*
X58321428Y-70714285D01*
X58250000Y-70642857D01*
X58178571Y-70500000D01*
X58178571Y-70142857D01*
X58250000Y-69928571D01*
X58178571Y-69428571D02*
X59678571Y-69071428D01*
X58607142Y-68785714D01*
X59678571Y-68500000D01*
X58178571Y-68142857D01*
X59678571Y-67571428D02*
X58178571Y-67571428D01*
X58178571Y-67214285D01*
X58250000Y-67000000D01*
X58392857Y-66857142D01*
X58535714Y-66785714D01*
X58821428Y-66714285D01*
X59035714Y-66714285D01*
X59321428Y-66785714D01*
X59464285Y-66857142D01*
X59607142Y-67000000D01*
X59678571Y-67214285D01*
X59678571Y-67571428D01*
X57107142Y-70678571D02*
X57178571Y-70464285D01*
X57178571Y-70107142D01*
X57107142Y-69964285D01*
X57035714Y-69892857D01*
X56892857Y-69821428D01*
X56750000Y-69821428D01*
X56607142Y-69892857D01*
X56535714Y-69964285D01*
X56464285Y-70107142D01*
X56392857Y-70392857D01*
X56321428Y-70535714D01*
X56250000Y-70607142D01*
X56107142Y-70678571D01*
X55964285Y-70678571D01*
X55821428Y-70607142D01*
X55750000Y-70535714D01*
X55678571Y-70392857D01*
X55678571Y-70035714D01*
X55750000Y-69821428D01*
X57035714Y-68321428D02*
X57107142Y-68392857D01*
X57178571Y-68607142D01*
X57178571Y-68750000D01*
X57107142Y-68964285D01*
X56964285Y-69107142D01*
X56821428Y-69178571D01*
X56535714Y-69250000D01*
X56321428Y-69250000D01*
X56035714Y-69178571D01*
X55892857Y-69107142D01*
X55750000Y-68964285D01*
X55678571Y-68750000D01*
X55678571Y-68607142D01*
X55750000Y-68392857D01*
X55821428Y-68321428D01*
X57178571Y-67678571D02*
X55678571Y-67678571D01*
X57178571Y-66821428D02*
X56321428Y-67464285D01*
X55678571Y-66821428D02*
X56535714Y-67678571D01*
X53250000Y-69642857D02*
X53178571Y-69785714D01*
X53178571Y-70000000D01*
X53250000Y-70214285D01*
X53392857Y-70357142D01*
X53535714Y-70428571D01*
X53821428Y-70500000D01*
X54035714Y-70500000D01*
X54321428Y-70428571D01*
X54464285Y-70357142D01*
X54607142Y-70214285D01*
X54678571Y-70000000D01*
X54678571Y-69857142D01*
X54607142Y-69642857D01*
X54535714Y-69571428D01*
X54035714Y-69571428D01*
X54035714Y-69857142D01*
X54678571Y-68928571D02*
X53178571Y-68928571D01*
X54678571Y-68071428D01*
X53178571Y-68071428D01*
X54678571Y-67357142D02*
X53178571Y-67357142D01*
X53178571Y-67000000D01*
X53250000Y-66785714D01*
X53392857Y-66642857D01*
X53535714Y-66571428D01*
X53821428Y-66500000D01*
X54035714Y-66500000D01*
X54321428Y-66571428D01*
X54464285Y-66642857D01*
X54607142Y-66785714D01*
X54678571Y-67000000D01*
X54678571Y-67357142D01*
X45500000Y-91285714D02*
X45428571Y-91357142D01*
X45214285Y-91428571D01*
X45071428Y-91428571D01*
X44857142Y-91357142D01*
X44714285Y-91214285D01*
X44642857Y-91071428D01*
X44571428Y-90785714D01*
X44571428Y-90571428D01*
X44642857Y-90285714D01*
X44714285Y-90142857D01*
X44857142Y-90000000D01*
X45071428Y-89928571D01*
X45214285Y-89928571D01*
X45428571Y-90000000D01*
X45500000Y-90071428D01*
X46071428Y-91357142D02*
X46285714Y-91428571D01*
X46642857Y-91428571D01*
X46785714Y-91357142D01*
X46857142Y-91285714D01*
X46928571Y-91142857D01*
X46928571Y-91000000D01*
X46857142Y-90857142D01*
X46785714Y-90785714D01*
X46642857Y-90714285D01*
X46357142Y-90642857D01*
X46214285Y-90571428D01*
X46142857Y-90500000D01*
X46071428Y-90357142D01*
X46071428Y-90214285D01*
X46142857Y-90071428D01*
X46214285Y-90000000D01*
X46357142Y-89928571D01*
X46714285Y-89928571D01*
X46928571Y-90000000D01*
X45321428Y-88678571D02*
X44821428Y-87964285D01*
X44464285Y-88678571D02*
X44464285Y-87178571D01*
X45035714Y-87178571D01*
X45178571Y-87250000D01*
X45250000Y-87321428D01*
X45321428Y-87464285D01*
X45321428Y-87678571D01*
X45250000Y-87821428D01*
X45178571Y-87892857D01*
X45035714Y-87964285D01*
X44464285Y-87964285D01*
X45964285Y-87892857D02*
X46464285Y-87892857D01*
X46678571Y-88678571D02*
X45964285Y-88678571D01*
X45964285Y-87178571D01*
X46678571Y-87178571D01*
X47250000Y-88607142D02*
X47464285Y-88678571D01*
X47821428Y-88678571D01*
X47964285Y-88607142D01*
X48035714Y-88535714D01*
X48107142Y-88392857D01*
X48107142Y-88250000D01*
X48035714Y-88107142D01*
X47964285Y-88035714D01*
X47821428Y-87964285D01*
X47535714Y-87892857D01*
X47392857Y-87821428D01*
X47321428Y-87750000D01*
X47250000Y-87607142D01*
X47250000Y-87464285D01*
X47321428Y-87321428D01*
X47392857Y-87250000D01*
X47535714Y-87178571D01*
X47892857Y-87178571D01*
X48107142Y-87250000D01*
X44428571Y-86107142D02*
X44642857Y-86178571D01*
X45000000Y-86178571D01*
X45142857Y-86107142D01*
X45214285Y-86035714D01*
X45285714Y-85892857D01*
X45285714Y-85750000D01*
X45214285Y-85607142D01*
X45142857Y-85535714D01*
X45000000Y-85464285D01*
X44714285Y-85392857D01*
X44571428Y-85321428D01*
X44500000Y-85250000D01*
X44428571Y-85107142D01*
X44428571Y-84964285D01*
X44500000Y-84821428D01*
X44571428Y-84750000D01*
X44714285Y-84678571D01*
X45071428Y-84678571D01*
X45285714Y-84750000D01*
X45928571Y-86178571D02*
X45928571Y-84678571D01*
X46285714Y-84678571D01*
X46500000Y-84750000D01*
X46642857Y-84892857D01*
X46714285Y-85035714D01*
X46785714Y-85321428D01*
X46785714Y-85535714D01*
X46714285Y-85821428D01*
X46642857Y-85964285D01*
X46500000Y-86107142D01*
X46285714Y-86178571D01*
X45928571Y-86178571D01*
X47357142Y-85750000D02*
X48071428Y-85750000D01*
X47214285Y-86178571D02*
X47714285Y-84678571D01*
X48214285Y-86178571D01*
X44571428Y-83357142D02*
X44785714Y-83428571D01*
X45142857Y-83428571D01*
X45285714Y-83357142D01*
X45357142Y-83285714D01*
X45428571Y-83142857D01*
X45428571Y-83000000D01*
X45357142Y-82857142D01*
X45285714Y-82785714D01*
X45142857Y-82714285D01*
X44857142Y-82642857D01*
X44714285Y-82571428D01*
X44642857Y-82500000D01*
X44571428Y-82357142D01*
X44571428Y-82214285D01*
X44642857Y-82071428D01*
X44714285Y-82000000D01*
X44857142Y-81928571D01*
X45214285Y-81928571D01*
X45428571Y-82000000D01*
X46928571Y-83285714D02*
X46857142Y-83357142D01*
X46642857Y-83428571D01*
X46500000Y-83428571D01*
X46285714Y-83357142D01*
X46142857Y-83214285D01*
X46071428Y-83071428D01*
X46000000Y-82785714D01*
X46000000Y-82571428D01*
X46071428Y-82285714D01*
X46142857Y-82142857D01*
X46285714Y-82000000D01*
X46500000Y-81928571D01*
X46642857Y-81928571D01*
X46857142Y-82000000D01*
X46928571Y-82071428D01*
X47571428Y-83428571D02*
X47571428Y-81928571D01*
X48428571Y-83428571D02*
X47785714Y-82571428D01*
X48428571Y-81928571D02*
X47571428Y-82785714D01*
X45500000Y-80928571D02*
X45000000Y-80214285D01*
X44642857Y-80928571D02*
X44642857Y-79428571D01*
X45214285Y-79428571D01*
X45357142Y-79500000D01*
X45428571Y-79571428D01*
X45500000Y-79714285D01*
X45500000Y-79928571D01*
X45428571Y-80071428D01*
X45357142Y-80142857D01*
X45214285Y-80214285D01*
X44642857Y-80214285D01*
X46071428Y-80857142D02*
X46285714Y-80928571D01*
X46642857Y-80928571D01*
X46785714Y-80857142D01*
X46857142Y-80785714D01*
X46928571Y-80642857D01*
X46928571Y-80500000D01*
X46857142Y-80357142D01*
X46785714Y-80285714D01*
X46642857Y-80214285D01*
X46357142Y-80142857D01*
X46214285Y-80071428D01*
X46142857Y-80000000D01*
X46071428Y-79857142D01*
X46071428Y-79714285D01*
X46142857Y-79571428D01*
X46214285Y-79500000D01*
X46357142Y-79428571D01*
X46714285Y-79428571D01*
X46928571Y-79500000D01*
X45464285Y-76928571D02*
X44750000Y-76928571D01*
X44678571Y-77642857D01*
X44750000Y-77571428D01*
X44892857Y-77500000D01*
X45250000Y-77500000D01*
X45392857Y-77571428D01*
X45464285Y-77642857D01*
X45535714Y-77785714D01*
X45535714Y-78142857D01*
X45464285Y-78285714D01*
X45392857Y-78357142D01*
X45250000Y-78428571D01*
X44892857Y-78428571D01*
X44750000Y-78357142D01*
X44678571Y-78285714D01*
X45964285Y-76928571D02*
X46464285Y-78428571D01*
X46964285Y-76928571D01*
X45107142Y-74250000D02*
X44964285Y-74178571D01*
X44750000Y-74178571D01*
X44535714Y-74250000D01*
X44392857Y-74392857D01*
X44321428Y-74535714D01*
X44250000Y-74821428D01*
X44250000Y-75035714D01*
X44321428Y-75321428D01*
X44392857Y-75464285D01*
X44535714Y-75607142D01*
X44750000Y-75678571D01*
X44892857Y-75678571D01*
X45107142Y-75607142D01*
X45178571Y-75535714D01*
X45178571Y-75035714D01*
X44892857Y-75035714D01*
X45821428Y-75678571D02*
X45821428Y-74178571D01*
X46678571Y-75678571D01*
X46678571Y-74178571D01*
X47392857Y-75678571D02*
X47392857Y-74178571D01*
X47750000Y-74178571D01*
X47964285Y-74250000D01*
X48107142Y-74392857D01*
X48178571Y-74535714D01*
X48250000Y-74821428D01*
X48250000Y-75035714D01*
X48178571Y-75321428D01*
X48107142Y-75464285D01*
X47964285Y-75607142D01*
X47750000Y-75678571D01*
X47392857Y-75678571D01*
D12*
X60140000Y-59820000D02*
X60140000Y-64720000D01*
X52230000Y-59830000D02*
X60140000Y-59820000D01*
X52230000Y-65410000D02*
X52230000Y-59830000D01*
X59440000Y-65410000D02*
X52240000Y-65410000D01*
X60140000Y-64720000D02*
X59440000Y-65410000D01*
X117830000Y-108450000D02*
X116500000Y-108450000D01*
X117830000Y-107120000D02*
X117830000Y-108450000D01*
X117830000Y-105850000D02*
X115170000Y-105850000D01*
X115170000Y-105850000D02*
X115170000Y-98170000D01*
X117830000Y-105850000D02*
X117830000Y-98170000D01*
X117830000Y-98170000D02*
X115170000Y-98170000D01*
X64670000Y-73580000D02*
X64670000Y-72250000D01*
X66000000Y-73580000D02*
X64670000Y-73580000D01*
X67270000Y-73580000D02*
X67270000Y-70920000D01*
X67270000Y-70920000D02*
X72410000Y-70920000D01*
X67270000Y-73580000D02*
X72410000Y-73580000D01*
X72410000Y-73580000D02*
X72410000Y-70920000D01*
X89810000Y-89310000D02*
X88750000Y-89310000D01*
X89810000Y-88250000D02*
X89810000Y-89310000D01*
X89810000Y-87250000D02*
X87690000Y-87250000D01*
X87690000Y-87250000D02*
X87690000Y-75190000D01*
X89810000Y-87250000D02*
X89810000Y-75190000D01*
X89810000Y-75190000D02*
X87690000Y-75190000D01*
X104650000Y-46000000D02*
G75*
G03X104650000Y-46000000I-6100000J0D01*
G01*
X99511252Y-54540000D02*
X98988748Y-54540000D01*
X99511252Y-55960000D02*
X98988748Y-55960000D01*
X104210000Y-56986252D02*
X104210000Y-56463748D01*
X102790000Y-56986252D02*
X102790000Y-56463748D01*
X107463748Y-57960000D02*
X107986252Y-57960000D01*
X107463748Y-56540000D02*
X107986252Y-56540000D01*
X94210000Y-58786252D02*
X94210000Y-58263748D01*
X92790000Y-58786252D02*
X92790000Y-58263748D01*
X107986252Y-59540000D02*
X107463748Y-59540000D01*
X107986252Y-60960000D02*
X107463748Y-60960000D01*
X99510000Y-60130000D02*
X98050000Y-60130000D01*
X99510000Y-56970000D02*
X96350000Y-56970000D01*
X99510000Y-56970000D02*
X99510000Y-57900000D01*
X99510000Y-60130000D02*
X99510000Y-59200000D01*
X107925000Y-53090000D02*
X106515000Y-53090000D01*
X106515000Y-55410000D02*
X109250000Y-55410000D01*
X106515000Y-55420000D02*
X106515000Y-54750000D01*
X106515000Y-53750000D02*
X106515000Y-53090000D01*
X95921267Y-86740000D02*
X95578733Y-86740000D01*
X95921267Y-87760000D02*
X95578733Y-87760000D01*
X93890000Y-84710000D02*
X96750000Y-84710000D01*
X93890000Y-82790000D02*
X93890000Y-84710000D01*
X96750000Y-82790000D02*
X93890000Y-82790000D01*
X116750000Y-91870000D02*
X116750000Y-91940000D01*
X118120000Y-90500000D02*
G75*
G03X118120000Y-90500000I-1370000J0D01*
G01*
X109540000Y-91513748D02*
X109540000Y-92036252D01*
X110960000Y-91513748D02*
X110960000Y-92036252D01*
X95986252Y-79790000D02*
X95463748Y-79790000D01*
X95986252Y-81210000D02*
X95463748Y-81210000D01*
X95463748Y-77960000D02*
X95986252Y-77960000D01*
X95463748Y-76540000D02*
X95986252Y-76540000D01*
X105575000Y-111410000D02*
X106985000Y-111410000D01*
X106985000Y-109090000D02*
X104250000Y-109090000D01*
X106985000Y-109080000D02*
X106985000Y-109750000D01*
X106985000Y-110750000D02*
X106985000Y-111410000D01*
X117800000Y-69400000D02*
X115200000Y-69400000D01*
X117800000Y-71600000D02*
X117800000Y-69400000D01*
X115200000Y-71600000D02*
X117800000Y-71600000D01*
X115200000Y-71100000D02*
X115200000Y-71600000D01*
X115200000Y-69400000D02*
X115200000Y-71100000D01*
X60580000Y-111670000D02*
X60580000Y-113000000D01*
X59250000Y-111670000D02*
X60580000Y-111670000D01*
X57980000Y-111670000D02*
X57980000Y-114330000D01*
X57980000Y-114330000D02*
X50300000Y-114330000D01*
X57980000Y-111670000D02*
X50300000Y-111670000D01*
X50300000Y-111670000D02*
X50300000Y-114330000D01*
X63150000Y-88930000D02*
X63150000Y-90270000D01*
X62200000Y-88930000D02*
X63150000Y-88930000D01*
X62200000Y-87980000D02*
X62200000Y-88930000D01*
X62200000Y-78710000D02*
X63150000Y-78710000D01*
X62200000Y-79660000D02*
X62200000Y-78710000D01*
X72420000Y-88930000D02*
X71470000Y-88930000D01*
X72420000Y-87980000D02*
X72420000Y-88930000D01*
X72420000Y-78710000D02*
X71470000Y-78710000D01*
X72420000Y-79660000D02*
X72420000Y-78710000D01*
X47113748Y-61510000D02*
X47636252Y-61510000D01*
X47113748Y-60090000D02*
X47636252Y-60090000D01*
X62830000Y-71060000D02*
X62830000Y-72390000D01*
X61500000Y-71060000D02*
X62830000Y-71060000D01*
X60230000Y-71060000D02*
X60230000Y-73720000D01*
X60230000Y-73720000D02*
X52550000Y-73720000D01*
X60230000Y-71060000D02*
X52550000Y-71060000D01*
X52550000Y-71060000D02*
X52550000Y-73720000D01*
X87495000Y-52910000D02*
X88905000Y-52910000D01*
X88905000Y-50590000D02*
X86170000Y-50590000D01*
X88905000Y-50580000D02*
X88905000Y-51250000D01*
X88905000Y-52250000D02*
X88905000Y-52910000D01*
X98140000Y-61800000D02*
X99600000Y-61800000D01*
X98140000Y-64960000D02*
X101300000Y-64960000D01*
X98140000Y-64960000D02*
X98140000Y-64030000D01*
X98140000Y-61800000D02*
X98140000Y-62730000D01*
X111630000Y-82240000D02*
X111630000Y-83700000D01*
X108470000Y-82240000D02*
X108470000Y-85400000D01*
X108470000Y-82240000D02*
X109400000Y-82240000D01*
X111630000Y-82240000D02*
X110700000Y-82240000D01*
X98205000Y-68820000D02*
X99615000Y-68820000D01*
X99615000Y-66500000D02*
X96880000Y-66500000D01*
X99615000Y-66490000D02*
X99615000Y-67160000D01*
X99615000Y-68160000D02*
X99615000Y-68820000D01*
X104925000Y-82870000D02*
X103515000Y-82870000D01*
X103515000Y-85190000D02*
X106250000Y-85190000D01*
X103515000Y-85200000D02*
X103515000Y-84530000D01*
X103515000Y-83530000D02*
X103515000Y-82870000D01*
X100375000Y-96170000D02*
X98965000Y-96170000D01*
X98965000Y-98490000D02*
X101700000Y-98490000D01*
X98965000Y-98500000D02*
X98965000Y-97830000D01*
X98965000Y-96830000D02*
X98965000Y-96170000D01*
X85115000Y-96890000D02*
X83705000Y-96890000D01*
X83705000Y-99210000D02*
X86440000Y-99210000D01*
X83705000Y-99220000D02*
X83705000Y-98550000D01*
X83705000Y-97550000D02*
X83705000Y-96890000D01*
X106600000Y-104390000D02*
X105140000Y-104390000D01*
X106600000Y-101230000D02*
X103440000Y-101230000D01*
X106600000Y-101230000D02*
X106600000Y-102160000D01*
X106600000Y-104390000D02*
X106600000Y-103460000D01*
X91540000Y-105400000D02*
X90080000Y-105400000D01*
X91540000Y-102240000D02*
X88380000Y-102240000D01*
X91540000Y-102240000D02*
X91540000Y-103170000D01*
X91540000Y-105400000D02*
X91540000Y-104470000D01*
X90345000Y-111860000D02*
X91755000Y-111860000D01*
X91755000Y-109540000D02*
X89020000Y-109540000D01*
X91755000Y-109530000D02*
X91755000Y-110200000D01*
X91755000Y-111200000D02*
X91755000Y-111860000D01*
X62935000Y-99790000D02*
G75*
G03X62935000Y-94740000I0J2525000D01*
G01*
X56685000Y-99790000D02*
G75*
G02X56685000Y-94740000I0J2525000D01*
G01*
X56685000Y-99790000D02*
X62935000Y-99790000D01*
X56685000Y-94740000D02*
X62935000Y-94740000D01*
X68840000Y-61270000D02*
X68840000Y-55260000D01*
X75660000Y-59020000D02*
X75660000Y-55260000D01*
X68840000Y-55260000D02*
X70100000Y-55260000D01*
X75660000Y-55260000D02*
X74400000Y-55260000D01*
X40170000Y-100390000D02*
X41500000Y-100390000D01*
X40170000Y-101720000D02*
X40170000Y-100390000D01*
X40170000Y-102990000D02*
X42830000Y-102990000D01*
X42830000Y-102990000D02*
X42830000Y-105590000D01*
X40170000Y-102990000D02*
X40170000Y-105590000D01*
X40170000Y-105590000D02*
X42830000Y-105590000D01*
X44880000Y-100515000D02*
X46210000Y-100515000D01*
X44880000Y-101845000D02*
X44880000Y-100515000D01*
X44880000Y-103115000D02*
X47540000Y-103115000D01*
X47540000Y-103115000D02*
X47540000Y-105715000D01*
X44880000Y-103115000D02*
X44880000Y-105715000D01*
X44880000Y-105715000D02*
X47540000Y-105715000D01*
X64020000Y-56956252D02*
X64020000Y-56433748D01*
X62600000Y-56956252D02*
X62600000Y-56433748D01*
X74690000Y-106416252D02*
X74690000Y-105893748D01*
X73270000Y-106416252D02*
X73270000Y-105893748D01*
X111290000Y-110488748D02*
X111290000Y-111011252D01*
X112710000Y-110488748D02*
X112710000Y-111011252D01*
X71490000Y-106316252D02*
X71490000Y-105793748D01*
X70070000Y-106316252D02*
X70070000Y-105793748D01*
X115986252Y-111040000D02*
X115463748Y-111040000D01*
X115986252Y-112460000D02*
X115463748Y-112460000D01*
X90960000Y-48486252D02*
X90960000Y-47963748D01*
X89540000Y-48486252D02*
X89540000Y-47963748D01*
X68290000Y-106366252D02*
X68290000Y-105843748D01*
X66870000Y-106366252D02*
X66870000Y-105843748D01*
X84640000Y-48016252D02*
X84640000Y-47493748D01*
X83220000Y-48016252D02*
X83220000Y-47493748D01*
X80270000Y-47418748D02*
X80270000Y-47941252D01*
X81690000Y-47418748D02*
X81690000Y-47941252D01*
X58263748Y-53410000D02*
X58786252Y-53410000D01*
X58263748Y-51990000D02*
X58786252Y-51990000D01*
X56063748Y-57010000D02*
X56586252Y-57010000D01*
X56063748Y-55590000D02*
X56586252Y-55590000D01*
X109738748Y-78460000D02*
X110261252Y-78460000D01*
X109738748Y-77040000D02*
X110261252Y-77040000D01*
X53113748Y-53410000D02*
X53636252Y-53410000D01*
X53113748Y-51990000D02*
X53636252Y-51990000D01*
X50513748Y-56910000D02*
X51036252Y-56910000D01*
X50513748Y-55490000D02*
X51036252Y-55490000D01*
X103040000Y-69513748D02*
X103040000Y-70036252D01*
X104460000Y-69513748D02*
X104460000Y-70036252D01*
X103986252Y-86790000D02*
X103463748Y-86790000D01*
X103986252Y-88210000D02*
X103463748Y-88210000D01*
X47713748Y-53310000D02*
X48236252Y-53310000D01*
X47713748Y-51890000D02*
X48236252Y-51890000D01*
X98043748Y-71870000D02*
X98566252Y-71870000D01*
X98043748Y-70450000D02*
X98566252Y-70450000D01*
X107220000Y-64528748D02*
X107220000Y-65051252D01*
X108640000Y-64528748D02*
X108640000Y-65051252D01*
X104036252Y-79840000D02*
X103513748Y-79840000D01*
X104036252Y-81260000D02*
X103513748Y-81260000D01*
X110486252Y-87040000D02*
X109963748Y-87040000D01*
X110486252Y-88460000D02*
X109963748Y-88460000D01*
X107260000Y-69493748D02*
X107260000Y-70016252D01*
X108680000Y-69493748D02*
X108680000Y-70016252D01*
X103488748Y-77960000D02*
X104011252Y-77960000D01*
X103488748Y-76540000D02*
X104011252Y-76540000D01*
X99376252Y-100410000D02*
X98853748Y-100410000D01*
X99376252Y-101830000D02*
X98853748Y-101830000D01*
X84136252Y-100630000D02*
X83613748Y-100630000D01*
X84136252Y-102050000D02*
X83613748Y-102050000D01*
X106383748Y-97510000D02*
X106906252Y-97510000D01*
X106383748Y-96090000D02*
X106906252Y-96090000D01*
X91278748Y-98020000D02*
X91801252Y-98020000D01*
X91278748Y-96600000D02*
X91801252Y-96600000D01*
X42796252Y-96820000D02*
X42273748Y-96820000D01*
X42796252Y-98240000D02*
X42273748Y-98240000D01*
X106946252Y-98840000D02*
X106423748Y-98840000D01*
X106946252Y-100260000D02*
X106423748Y-100260000D01*
X91776252Y-99390000D02*
X91253748Y-99390000D01*
X91776252Y-100810000D02*
X91253748Y-100810000D01*
X106403748Y-107000000D02*
X106926252Y-107000000D01*
X106403748Y-105580000D02*
X106926252Y-105580000D01*
X49540000Y-98223748D02*
X49540000Y-98746252D01*
X50960000Y-98223748D02*
X50960000Y-98746252D01*
X91268748Y-108210000D02*
X91791252Y-108210000D01*
X91268748Y-106790000D02*
X91791252Y-106790000D01*
X102500000Y-110076252D02*
X102500000Y-109553748D01*
X101080000Y-110076252D02*
X101080000Y-109553748D01*
X99080000Y-105356252D02*
X99080000Y-104833748D01*
X97660000Y-105356252D02*
X97660000Y-104833748D01*
X48763748Y-67710000D02*
X49286252Y-67710000D01*
X48763748Y-66290000D02*
X49286252Y-66290000D01*
X44113748Y-67710000D02*
X44636252Y-67710000D01*
X44113748Y-66290000D02*
X44636252Y-66290000D01*
X87000000Y-110386252D02*
X87000000Y-109863748D01*
X85580000Y-110386252D02*
X85580000Y-109863748D01*
X83760000Y-105336252D02*
X83760000Y-104813748D01*
X82340000Y-105336252D02*
X82340000Y-104813748D01*
X97650000Y-109603748D02*
X97650000Y-110126252D01*
X99070000Y-109603748D02*
X99070000Y-110126252D01*
X82380000Y-109813748D02*
X82380000Y-110336252D01*
X83800000Y-109813748D02*
X83800000Y-110336252D01*
X40920000Y-73920000D02*
X42250000Y-73920000D01*
X40920000Y-75250000D02*
X40920000Y-73920000D01*
X40920000Y-76520000D02*
X43580000Y-76520000D01*
X43580000Y-76520000D02*
X43580000Y-91820000D01*
X40920000Y-76520000D02*
X40920000Y-91820000D01*
X40920000Y-91820000D02*
X43580000Y-91820000D01*
X75080000Y-111580000D02*
X75080000Y-112910000D01*
X73750000Y-111580000D02*
X75080000Y-111580000D01*
X72480000Y-111580000D02*
X72480000Y-114240000D01*
X72480000Y-114240000D02*
X64800000Y-114240000D01*
X72480000Y-111580000D02*
X64800000Y-111580000D01*
X64800000Y-111580000D02*
X64800000Y-114240000D01*
X115760000Y-78520000D02*
X115760000Y-81120000D01*
X117960000Y-78520000D02*
X115760000Y-78520000D01*
X117960000Y-81120000D02*
X117960000Y-78520000D01*
X117460000Y-81120000D02*
X117960000Y-81120000D01*
X115760000Y-81120000D02*
X117460000Y-81120000D01*
X45730000Y-47640000D02*
X45730000Y-46310000D01*
X47060000Y-47640000D02*
X45730000Y-47640000D01*
X48330000Y-47640000D02*
X48330000Y-44980000D01*
X48330000Y-44980000D02*
X61090000Y-44980000D01*
X48330000Y-47640000D02*
X61090000Y-47640000D01*
X61090000Y-47640000D02*
X61090000Y-44980000D01*
X115760000Y-82420000D02*
X115760000Y-85020000D01*
X117960000Y-82420000D02*
X115760000Y-82420000D01*
X117960000Y-85020000D02*
X117960000Y-82420000D01*
X117460000Y-85020000D02*
X117960000Y-85020000D01*
X115760000Y-85020000D02*
X117460000Y-85020000D01*
X108050000Y-115150000D02*
X105450000Y-115150000D01*
X108050000Y-117350000D02*
X108050000Y-115150000D01*
X105450000Y-117350000D02*
X108050000Y-117350000D01*
X105450000Y-116850000D02*
X105450000Y-117350000D01*
X105450000Y-115150000D02*
X105450000Y-116850000D01*
X90700000Y-117350000D02*
X93300000Y-117350000D01*
X90700000Y-115150000D02*
X90700000Y-117350000D01*
X93300000Y-115150000D02*
X90700000Y-115150000D01*
X93300000Y-115650000D02*
X93300000Y-115150000D01*
X93300000Y-117350000D02*
X93300000Y-115650000D01*
X40480000Y-51610000D02*
X41810000Y-51610000D01*
X40480000Y-52940000D02*
X40480000Y-51610000D01*
X40480000Y-54210000D02*
X43140000Y-54210000D01*
X43140000Y-54210000D02*
X43140000Y-56810000D01*
X40480000Y-54210000D02*
X40480000Y-56810000D01*
X40480000Y-56810000D02*
X43140000Y-56810000D01*
X86900000Y-48700000D02*
X86900000Y-46850000D01*
X88100000Y-48700000D02*
X88100000Y-46850000D01*
X88100000Y-46850000D02*
X86900000Y-46850000D01*
X62760000Y-103171267D02*
X62760000Y-102828733D01*
X61740000Y-103171267D02*
X61740000Y-102828733D01*
X57760000Y-103171267D02*
X57760000Y-102828733D01*
X56740000Y-103171267D02*
X56740000Y-102828733D01*
X83513748Y-62110000D02*
X84036252Y-62110000D01*
X83513748Y-60690000D02*
X84036252Y-60690000D01*
X83503748Y-65510000D02*
X84026252Y-65510000D01*
X83503748Y-64090000D02*
X84026252Y-64090000D01*
X83643748Y-58810000D02*
X84166252Y-58810000D01*
X83643748Y-57390000D02*
X84166252Y-57390000D01*
X72486252Y-49290000D02*
X71963748Y-49290000D01*
X72486252Y-50710000D02*
X71963748Y-50710000D01*
X49510000Y-102963748D02*
X49510000Y-103486252D01*
X50930000Y-102963748D02*
X50930000Y-103486252D01*
D10*
X60238095Y-64952380D02*
X60238095Y-65761904D01*
X60285714Y-65857142D01*
X60333333Y-65904761D01*
X60428571Y-65952380D01*
X60619047Y-65952380D01*
X60714285Y-65904761D01*
X60761904Y-65857142D01*
X60809523Y-65761904D01*
X60809523Y-64952380D01*
X61809523Y-65952380D02*
X61238095Y-65952380D01*
X61523809Y-65952380D02*
X61523809Y-64952380D01*
X61428571Y-65095238D01*
X61333333Y-65190476D01*
X61238095Y-65238095D01*
X116166666Y-96452380D02*
X116166666Y-97166666D01*
X116119047Y-97309523D01*
X116023809Y-97404761D01*
X115880952Y-97452380D01*
X115785714Y-97452380D01*
X116547619Y-96452380D02*
X117214285Y-96452380D01*
X116785714Y-97452380D01*
X72952380Y-73059523D02*
X73666666Y-73059523D01*
X73809523Y-73107142D01*
X73904761Y-73202380D01*
X73952380Y-73345238D01*
X73952380Y-73440476D01*
X73952380Y-72059523D02*
X73952380Y-72630952D01*
X73952380Y-72345238D02*
X72952380Y-72345238D01*
X73095238Y-72440476D01*
X73190476Y-72535714D01*
X73238095Y-72630952D01*
X72952380Y-71440476D02*
X72952380Y-71345238D01*
X73000000Y-71250000D01*
X73047619Y-71202380D01*
X73142857Y-71154761D01*
X73333333Y-71107142D01*
X73571428Y-71107142D01*
X73761904Y-71154761D01*
X73857142Y-71202380D01*
X73904761Y-71250000D01*
X73952380Y-71345238D01*
X73952380Y-71440476D01*
X73904761Y-71535714D01*
X73857142Y-71583333D01*
X73761904Y-71630952D01*
X73571428Y-71678571D01*
X73333333Y-71678571D01*
X73142857Y-71630952D01*
X73047619Y-71583333D01*
X73000000Y-71535714D01*
X72952380Y-71440476D01*
X87940476Y-89762380D02*
X87940476Y-90476666D01*
X87892857Y-90619523D01*
X87797619Y-90714761D01*
X87654761Y-90762380D01*
X87559523Y-90762380D01*
X88940476Y-90762380D02*
X88369047Y-90762380D01*
X88654761Y-90762380D02*
X88654761Y-89762380D01*
X88559523Y-89905238D01*
X88464285Y-90000476D01*
X88369047Y-90048095D01*
X89797619Y-90095714D02*
X89797619Y-90762380D01*
X89559523Y-89714761D02*
X89321428Y-90429047D01*
X89940476Y-90429047D01*
X93119047Y-51428571D02*
X93261904Y-51476190D01*
X93309523Y-51523809D01*
X93357142Y-51619047D01*
X93357142Y-51761904D01*
X93309523Y-51857142D01*
X93261904Y-51904761D01*
X93166666Y-51952380D01*
X92785714Y-51952380D01*
X92785714Y-50952380D01*
X93119047Y-50952380D01*
X93214285Y-51000000D01*
X93261904Y-51047619D01*
X93309523Y-51142857D01*
X93309523Y-51238095D01*
X93261904Y-51333333D01*
X93214285Y-51380952D01*
X93119047Y-51428571D01*
X92785714Y-51428571D01*
X93690476Y-50952380D02*
X94357142Y-50952380D01*
X93690476Y-51952380D01*
X94357142Y-51952380D01*
X95261904Y-51952380D02*
X94690476Y-51952380D01*
X94976190Y-51952380D02*
X94976190Y-50952380D01*
X94880952Y-51095238D01*
X94785714Y-51190476D01*
X94690476Y-51238095D01*
X98607142Y-57352380D02*
X98273809Y-56876190D01*
X98035714Y-57352380D02*
X98035714Y-56352380D01*
X98416666Y-56352380D01*
X98511904Y-56400000D01*
X98559523Y-56447619D01*
X98607142Y-56542857D01*
X98607142Y-56685714D01*
X98559523Y-56780952D01*
X98511904Y-56828571D01*
X98416666Y-56876190D01*
X98035714Y-56876190D01*
X99511904Y-56352380D02*
X99035714Y-56352380D01*
X98988095Y-56828571D01*
X99035714Y-56780952D01*
X99130952Y-56733333D01*
X99369047Y-56733333D01*
X99464285Y-56780952D01*
X99511904Y-56828571D01*
X99559523Y-56923809D01*
X99559523Y-57161904D01*
X99511904Y-57257142D01*
X99464285Y-57304761D01*
X99369047Y-57352380D01*
X99130952Y-57352380D01*
X99035714Y-57304761D01*
X98988095Y-57257142D01*
X100511904Y-57352380D02*
X99940476Y-57352380D01*
X100226190Y-57352380D02*
X100226190Y-56352380D01*
X100130952Y-56495238D01*
X100035714Y-56590476D01*
X99940476Y-56638095D01*
X102857142Y-54427380D02*
X102523809Y-53951190D01*
X102285714Y-54427380D02*
X102285714Y-53427380D01*
X102666666Y-53427380D01*
X102761904Y-53475000D01*
X102809523Y-53522619D01*
X102857142Y-53617857D01*
X102857142Y-53760714D01*
X102809523Y-53855952D01*
X102761904Y-53903571D01*
X102666666Y-53951190D01*
X102285714Y-53951190D01*
X103761904Y-53427380D02*
X103285714Y-53427380D01*
X103238095Y-53903571D01*
X103285714Y-53855952D01*
X103380952Y-53808333D01*
X103619047Y-53808333D01*
X103714285Y-53855952D01*
X103761904Y-53903571D01*
X103809523Y-53998809D01*
X103809523Y-54236904D01*
X103761904Y-54332142D01*
X103714285Y-54379761D01*
X103619047Y-54427380D01*
X103380952Y-54427380D01*
X103285714Y-54379761D01*
X103238095Y-54332142D01*
X104428571Y-53427380D02*
X104523809Y-53427380D01*
X104619047Y-53475000D01*
X104666666Y-53522619D01*
X104714285Y-53617857D01*
X104761904Y-53808333D01*
X104761904Y-54046428D01*
X104714285Y-54236904D01*
X104666666Y-54332142D01*
X104619047Y-54379761D01*
X104523809Y-54427380D01*
X104428571Y-54427380D01*
X104333333Y-54379761D01*
X104285714Y-54332142D01*
X104238095Y-54236904D01*
X104190476Y-54046428D01*
X104190476Y-53808333D01*
X104238095Y-53617857D01*
X104285714Y-53522619D01*
X104333333Y-53475000D01*
X104428571Y-53427380D01*
X110357142Y-57702380D02*
X110023809Y-57226190D01*
X109785714Y-57702380D02*
X109785714Y-56702380D01*
X110166666Y-56702380D01*
X110261904Y-56750000D01*
X110309523Y-56797619D01*
X110357142Y-56892857D01*
X110357142Y-57035714D01*
X110309523Y-57130952D01*
X110261904Y-57178571D01*
X110166666Y-57226190D01*
X109785714Y-57226190D01*
X111214285Y-57035714D02*
X111214285Y-57702380D01*
X110976190Y-56654761D02*
X110738095Y-57369047D01*
X111357142Y-57369047D01*
X111785714Y-57702380D02*
X111976190Y-57702380D01*
X112071428Y-57654761D01*
X112119047Y-57607142D01*
X112214285Y-57464285D01*
X112261904Y-57273809D01*
X112261904Y-56892857D01*
X112214285Y-56797619D01*
X112166666Y-56750000D01*
X112071428Y-56702380D01*
X111880952Y-56702380D01*
X111785714Y-56750000D01*
X111738095Y-56797619D01*
X111690476Y-56892857D01*
X111690476Y-57130952D01*
X111738095Y-57226190D01*
X111785714Y-57273809D01*
X111880952Y-57321428D01*
X112071428Y-57321428D01*
X112166666Y-57273809D01*
X112214285Y-57226190D01*
X112261904Y-57130952D01*
X90607142Y-56702380D02*
X90273809Y-56226190D01*
X90035714Y-56702380D02*
X90035714Y-55702380D01*
X90416666Y-55702380D01*
X90511904Y-55750000D01*
X90559523Y-55797619D01*
X90607142Y-55892857D01*
X90607142Y-56035714D01*
X90559523Y-56130952D01*
X90511904Y-56178571D01*
X90416666Y-56226190D01*
X90035714Y-56226190D01*
X90988095Y-55797619D02*
X91035714Y-55750000D01*
X91130952Y-55702380D01*
X91369047Y-55702380D01*
X91464285Y-55750000D01*
X91511904Y-55797619D01*
X91559523Y-55892857D01*
X91559523Y-55988095D01*
X91511904Y-56130952D01*
X90940476Y-56702380D01*
X91559523Y-56702380D01*
X91892857Y-55702380D02*
X92559523Y-55702380D01*
X92130952Y-56702380D01*
X110607142Y-60952380D02*
X110273809Y-60476190D01*
X110035714Y-60952380D02*
X110035714Y-59952380D01*
X110416666Y-59952380D01*
X110511904Y-60000000D01*
X110559523Y-60047619D01*
X110607142Y-60142857D01*
X110607142Y-60285714D01*
X110559523Y-60380952D01*
X110511904Y-60428571D01*
X110416666Y-60476190D01*
X110035714Y-60476190D01*
X110988095Y-60047619D02*
X111035714Y-60000000D01*
X111130952Y-59952380D01*
X111369047Y-59952380D01*
X111464285Y-60000000D01*
X111511904Y-60047619D01*
X111559523Y-60142857D01*
X111559523Y-60238095D01*
X111511904Y-60380952D01*
X110940476Y-60952380D01*
X111559523Y-60952380D01*
X112511904Y-60952380D02*
X111940476Y-60952380D01*
X112226190Y-60952380D02*
X112226190Y-59952380D01*
X112130952Y-60095238D01*
X112035714Y-60190476D01*
X111940476Y-60238095D01*
X95178571Y-56547619D02*
X95083333Y-56500000D01*
X94988095Y-56404761D01*
X94845238Y-56261904D01*
X94750000Y-56214285D01*
X94654761Y-56214285D01*
X94702380Y-56452380D02*
X94607142Y-56404761D01*
X94511904Y-56309523D01*
X94464285Y-56119047D01*
X94464285Y-55785714D01*
X94511904Y-55595238D01*
X94607142Y-55500000D01*
X94702380Y-55452380D01*
X94892857Y-55452380D01*
X94988095Y-55500000D01*
X95083333Y-55595238D01*
X95130952Y-55785714D01*
X95130952Y-56119047D01*
X95083333Y-56309523D01*
X94988095Y-56404761D01*
X94892857Y-56452380D01*
X94702380Y-56452380D01*
X96083333Y-56452380D02*
X95511904Y-56452380D01*
X95797619Y-56452380D02*
X95797619Y-55452380D01*
X95702380Y-55595238D01*
X95607142Y-55690476D01*
X95511904Y-55738095D01*
X96416666Y-55452380D02*
X97035714Y-55452380D01*
X96702380Y-55833333D01*
X96845238Y-55833333D01*
X96940476Y-55880952D01*
X96988095Y-55928571D01*
X97035714Y-56023809D01*
X97035714Y-56261904D01*
X96988095Y-56357142D01*
X96940476Y-56404761D01*
X96845238Y-56452380D01*
X96559523Y-56452380D01*
X96464285Y-56404761D01*
X96416666Y-56357142D01*
X105727619Y-51921428D02*
X105680000Y-52016666D01*
X105584761Y-52111904D01*
X105441904Y-52254761D01*
X105394285Y-52350000D01*
X105394285Y-52445238D01*
X105632380Y-52397619D02*
X105584761Y-52492857D01*
X105489523Y-52588095D01*
X105299047Y-52635714D01*
X104965714Y-52635714D01*
X104775238Y-52588095D01*
X104680000Y-52492857D01*
X104632380Y-52397619D01*
X104632380Y-52207142D01*
X104680000Y-52111904D01*
X104775238Y-52016666D01*
X104965714Y-51969047D01*
X105299047Y-51969047D01*
X105489523Y-52016666D01*
X105584761Y-52111904D01*
X105632380Y-52207142D01*
X105632380Y-52397619D01*
X105632380Y-51016666D02*
X105632380Y-51588095D01*
X105632380Y-51302380D02*
X104632380Y-51302380D01*
X104775238Y-51397619D01*
X104870476Y-51492857D01*
X104918095Y-51588095D01*
X104632380Y-50397619D02*
X104632380Y-50302380D01*
X104680000Y-50207142D01*
X104727619Y-50159523D01*
X104822857Y-50111904D01*
X105013333Y-50064285D01*
X105251428Y-50064285D01*
X105441904Y-50111904D01*
X105537142Y-50159523D01*
X105584761Y-50207142D01*
X105632380Y-50302380D01*
X105632380Y-50397619D01*
X105584761Y-50492857D01*
X105537142Y-50540476D01*
X105441904Y-50588095D01*
X105251428Y-50635714D01*
X105013333Y-50635714D01*
X104822857Y-50588095D01*
X104727619Y-50540476D01*
X104680000Y-50492857D01*
X104632380Y-50397619D01*
X92833333Y-87607142D02*
X92785714Y-87654761D01*
X92642857Y-87702380D01*
X92547619Y-87702380D01*
X92404761Y-87654761D01*
X92309523Y-87559523D01*
X92261904Y-87464285D01*
X92214285Y-87273809D01*
X92214285Y-87130952D01*
X92261904Y-86940476D01*
X92309523Y-86845238D01*
X92404761Y-86750000D01*
X92547619Y-86702380D01*
X92642857Y-86702380D01*
X92785714Y-86750000D01*
X92833333Y-86797619D01*
X93404761Y-87130952D02*
X93309523Y-87083333D01*
X93261904Y-87035714D01*
X93214285Y-86940476D01*
X93214285Y-86892857D01*
X93261904Y-86797619D01*
X93309523Y-86750000D01*
X93404761Y-86702380D01*
X93595238Y-86702380D01*
X93690476Y-86750000D01*
X93738095Y-86797619D01*
X93785714Y-86892857D01*
X93785714Y-86940476D01*
X93738095Y-87035714D01*
X93690476Y-87083333D01*
X93595238Y-87130952D01*
X93404761Y-87130952D01*
X93309523Y-87178571D01*
X93261904Y-87226190D01*
X93214285Y-87321428D01*
X93214285Y-87511904D01*
X93261904Y-87607142D01*
X93309523Y-87654761D01*
X93404761Y-87702380D01*
X93595238Y-87702380D01*
X93690476Y-87654761D01*
X93738095Y-87607142D01*
X93785714Y-87511904D01*
X93785714Y-87321428D01*
X93738095Y-87226190D01*
X93690476Y-87178571D01*
X93595238Y-87130952D01*
X91761904Y-84202380D02*
X91761904Y-83202380D01*
X92000000Y-83202380D01*
X92142857Y-83250000D01*
X92238095Y-83345238D01*
X92285714Y-83440476D01*
X92333333Y-83630952D01*
X92333333Y-83773809D01*
X92285714Y-83964285D01*
X92238095Y-84059523D01*
X92142857Y-84154761D01*
X92000000Y-84202380D01*
X91761904Y-84202380D01*
X92714285Y-83297619D02*
X92761904Y-83250000D01*
X92857142Y-83202380D01*
X93095238Y-83202380D01*
X93190476Y-83250000D01*
X93238095Y-83297619D01*
X93285714Y-83392857D01*
X93285714Y-83488095D01*
X93238095Y-83630952D01*
X92666666Y-84202380D01*
X93285714Y-84202380D01*
X116107142Y-88452380D02*
X115773809Y-87976190D01*
X115535714Y-88452380D02*
X115535714Y-87452380D01*
X115916666Y-87452380D01*
X116011904Y-87500000D01*
X116059523Y-87547619D01*
X116107142Y-87642857D01*
X116107142Y-87785714D01*
X116059523Y-87880952D01*
X116011904Y-87928571D01*
X115916666Y-87976190D01*
X115535714Y-87976190D01*
X116964285Y-87785714D02*
X116964285Y-88452380D01*
X116726190Y-87404761D02*
X116488095Y-88119047D01*
X117107142Y-88119047D01*
X117630952Y-87880952D02*
X117535714Y-87833333D01*
X117488095Y-87785714D01*
X117440476Y-87690476D01*
X117440476Y-87642857D01*
X117488095Y-87547619D01*
X117535714Y-87500000D01*
X117630952Y-87452380D01*
X117821428Y-87452380D01*
X117916666Y-87500000D01*
X117964285Y-87547619D01*
X118011904Y-87642857D01*
X118011904Y-87690476D01*
X117964285Y-87785714D01*
X117916666Y-87833333D01*
X117821428Y-87880952D01*
X117630952Y-87880952D01*
X117535714Y-87928571D01*
X117488095Y-87976190D01*
X117440476Y-88071428D01*
X117440476Y-88261904D01*
X117488095Y-88357142D01*
X117535714Y-88404761D01*
X117630952Y-88452380D01*
X117821428Y-88452380D01*
X117916666Y-88404761D01*
X117964285Y-88357142D01*
X118011904Y-88261904D01*
X118011904Y-88071428D01*
X117964285Y-87976190D01*
X117916666Y-87928571D01*
X117821428Y-87880952D01*
X112352380Y-92417857D02*
X111876190Y-92751190D01*
X112352380Y-92989285D02*
X111352380Y-92989285D01*
X111352380Y-92608333D01*
X111400000Y-92513095D01*
X111447619Y-92465476D01*
X111542857Y-92417857D01*
X111685714Y-92417857D01*
X111780952Y-92465476D01*
X111828571Y-92513095D01*
X111876190Y-92608333D01*
X111876190Y-92989285D01*
X111685714Y-91560714D02*
X112352380Y-91560714D01*
X111304761Y-91798809D02*
X112019047Y-92036904D01*
X112019047Y-91417857D01*
X111352380Y-91132142D02*
X111352380Y-90465476D01*
X112352380Y-90894047D01*
X91307142Y-80952380D02*
X90973809Y-80476190D01*
X90735714Y-80952380D02*
X90735714Y-79952380D01*
X91116666Y-79952380D01*
X91211904Y-80000000D01*
X91259523Y-80047619D01*
X91307142Y-80142857D01*
X91307142Y-80285714D01*
X91259523Y-80380952D01*
X91211904Y-80428571D01*
X91116666Y-80476190D01*
X90735714Y-80476190D01*
X92164285Y-80285714D02*
X92164285Y-80952380D01*
X91926190Y-79904761D02*
X91688095Y-80619047D01*
X92307142Y-80619047D01*
X93116666Y-79952380D02*
X92926190Y-79952380D01*
X92830952Y-80000000D01*
X92783333Y-80047619D01*
X92688095Y-80190476D01*
X92640476Y-80380952D01*
X92640476Y-80761904D01*
X92688095Y-80857142D01*
X92735714Y-80904761D01*
X92830952Y-80952380D01*
X93021428Y-80952380D01*
X93116666Y-80904761D01*
X93164285Y-80857142D01*
X93211904Y-80761904D01*
X93211904Y-80523809D01*
X93164285Y-80428571D01*
X93116666Y-80380952D01*
X93021428Y-80333333D01*
X92830952Y-80333333D01*
X92735714Y-80380952D01*
X92688095Y-80428571D01*
X92640476Y-80523809D01*
X91682142Y-77702380D02*
X91348809Y-77226190D01*
X91110714Y-77702380D02*
X91110714Y-76702380D01*
X91491666Y-76702380D01*
X91586904Y-76750000D01*
X91634523Y-76797619D01*
X91682142Y-76892857D01*
X91682142Y-77035714D01*
X91634523Y-77130952D01*
X91586904Y-77178571D01*
X91491666Y-77226190D01*
X91110714Y-77226190D01*
X92539285Y-77035714D02*
X92539285Y-77702380D01*
X92301190Y-76654761D02*
X92063095Y-77369047D01*
X92682142Y-77369047D01*
X93539285Y-76702380D02*
X93063095Y-76702380D01*
X93015476Y-77178571D01*
X93063095Y-77130952D01*
X93158333Y-77083333D01*
X93396428Y-77083333D01*
X93491666Y-77130952D01*
X93539285Y-77178571D01*
X93586904Y-77273809D01*
X93586904Y-77511904D01*
X93539285Y-77607142D01*
X93491666Y-77654761D01*
X93396428Y-77702380D01*
X93158333Y-77702380D01*
X93063095Y-77654761D01*
X93015476Y-77607142D01*
X106154761Y-108797619D02*
X106059523Y-108750000D01*
X105964285Y-108654761D01*
X105821428Y-108511904D01*
X105726190Y-108464285D01*
X105630952Y-108464285D01*
X105678571Y-108702380D02*
X105583333Y-108654761D01*
X105488095Y-108559523D01*
X105440476Y-108369047D01*
X105440476Y-108035714D01*
X105488095Y-107845238D01*
X105583333Y-107750000D01*
X105678571Y-107702380D01*
X105869047Y-107702380D01*
X105964285Y-107750000D01*
X106059523Y-107845238D01*
X106107142Y-108035714D01*
X106107142Y-108369047D01*
X106059523Y-108559523D01*
X105964285Y-108654761D01*
X105869047Y-108702380D01*
X105678571Y-108702380D01*
X106488095Y-107797619D02*
X106535714Y-107750000D01*
X106630952Y-107702380D01*
X106869047Y-107702380D01*
X106964285Y-107750000D01*
X107011904Y-107797619D01*
X107059523Y-107892857D01*
X107059523Y-107988095D01*
X107011904Y-108130952D01*
X106440476Y-108702380D01*
X107059523Y-108702380D01*
X115690476Y-71902380D02*
X115690476Y-72616666D01*
X115642857Y-72759523D01*
X115547619Y-72854761D01*
X115404761Y-72902380D01*
X115309523Y-72902380D01*
X116690476Y-72902380D02*
X116119047Y-72902380D01*
X116404761Y-72902380D02*
X116404761Y-71902380D01*
X116309523Y-72045238D01*
X116214285Y-72140476D01*
X116119047Y-72188095D01*
X117023809Y-71902380D02*
X117642857Y-71902380D01*
X117309523Y-72283333D01*
X117452380Y-72283333D01*
X117547619Y-72330952D01*
X117595238Y-72378571D01*
X117642857Y-72473809D01*
X117642857Y-72711904D01*
X117595238Y-72807142D01*
X117547619Y-72854761D01*
X117452380Y-72902380D01*
X117166666Y-72902380D01*
X117071428Y-72854761D01*
X117023809Y-72807142D01*
X61032380Y-113809523D02*
X61746666Y-113809523D01*
X61889523Y-113857142D01*
X61984761Y-113952380D01*
X62032380Y-114095238D01*
X62032380Y-114190476D01*
X62032380Y-112809523D02*
X62032380Y-113380952D01*
X62032380Y-113095238D02*
X61032380Y-113095238D01*
X61175238Y-113190476D01*
X61270476Y-113285714D01*
X61318095Y-113380952D01*
X61127619Y-112428571D02*
X61080000Y-112380952D01*
X61032380Y-112285714D01*
X61032380Y-112047619D01*
X61080000Y-111952380D01*
X61127619Y-111904761D01*
X61222857Y-111857142D01*
X61318095Y-111857142D01*
X61460952Y-111904761D01*
X62032380Y-112476190D01*
X62032380Y-111857142D01*
X60702380Y-90761904D02*
X61511904Y-90761904D01*
X61607142Y-90714285D01*
X61654761Y-90666666D01*
X61702380Y-90571428D01*
X61702380Y-90380952D01*
X61654761Y-90285714D01*
X61607142Y-90238095D01*
X61511904Y-90190476D01*
X60702380Y-90190476D01*
X60702380Y-89809523D02*
X60702380Y-89190476D01*
X61083333Y-89523809D01*
X61083333Y-89380952D01*
X61130952Y-89285714D01*
X61178571Y-89238095D01*
X61273809Y-89190476D01*
X61511904Y-89190476D01*
X61607142Y-89238095D01*
X61654761Y-89285714D01*
X61702380Y-89380952D01*
X61702380Y-89666666D01*
X61654761Y-89761904D01*
X61607142Y-89809523D01*
X46732142Y-59602380D02*
X46398809Y-59126190D01*
X46160714Y-59602380D02*
X46160714Y-58602380D01*
X46541666Y-58602380D01*
X46636904Y-58650000D01*
X46684523Y-58697619D01*
X46732142Y-58792857D01*
X46732142Y-58935714D01*
X46684523Y-59030952D01*
X46636904Y-59078571D01*
X46541666Y-59126190D01*
X46160714Y-59126190D01*
X47589285Y-58935714D02*
X47589285Y-59602380D01*
X47351190Y-58554761D02*
X47113095Y-59269047D01*
X47732142Y-59269047D01*
X48541666Y-58935714D02*
X48541666Y-59602380D01*
X48303571Y-58554761D02*
X48065476Y-59269047D01*
X48684523Y-59269047D01*
X51202380Y-73059523D02*
X51916666Y-73059523D01*
X52059523Y-73107142D01*
X52154761Y-73202380D01*
X52202380Y-73345238D01*
X52202380Y-73440476D01*
X52202380Y-72059523D02*
X52202380Y-72630952D01*
X52202380Y-72345238D02*
X51202380Y-72345238D01*
X51345238Y-72440476D01*
X51440476Y-72535714D01*
X51488095Y-72630952D01*
X52202380Y-71107142D02*
X52202380Y-71678571D01*
X52202380Y-71392857D02*
X51202380Y-71392857D01*
X51345238Y-71488095D01*
X51440476Y-71583333D01*
X51488095Y-71678571D01*
X87428571Y-54597619D02*
X87333333Y-54550000D01*
X87238095Y-54454761D01*
X87095238Y-54311904D01*
X87000000Y-54264285D01*
X86904761Y-54264285D01*
X86952380Y-54502380D02*
X86857142Y-54454761D01*
X86761904Y-54359523D01*
X86714285Y-54169047D01*
X86714285Y-53835714D01*
X86761904Y-53645238D01*
X86857142Y-53550000D01*
X86952380Y-53502380D01*
X87142857Y-53502380D01*
X87238095Y-53550000D01*
X87333333Y-53645238D01*
X87380952Y-53835714D01*
X87380952Y-54169047D01*
X87333333Y-54359523D01*
X87238095Y-54454761D01*
X87142857Y-54502380D01*
X86952380Y-54502380D01*
X88333333Y-54502380D02*
X87761904Y-54502380D01*
X88047619Y-54502380D02*
X88047619Y-53502380D01*
X87952380Y-53645238D01*
X87857142Y-53740476D01*
X87761904Y-53788095D01*
X88714285Y-53597619D02*
X88761904Y-53550000D01*
X88857142Y-53502380D01*
X89095238Y-53502380D01*
X89190476Y-53550000D01*
X89238095Y-53597619D01*
X89285714Y-53692857D01*
X89285714Y-53788095D01*
X89238095Y-53930952D01*
X88666666Y-54502380D01*
X89285714Y-54502380D01*
X93528571Y-63427619D02*
X93433333Y-63380000D01*
X93338095Y-63284761D01*
X93195238Y-63141904D01*
X93100000Y-63094285D01*
X93004761Y-63094285D01*
X93052380Y-63332380D02*
X92957142Y-63284761D01*
X92861904Y-63189523D01*
X92814285Y-62999047D01*
X92814285Y-62665714D01*
X92861904Y-62475238D01*
X92957142Y-62380000D01*
X93052380Y-62332380D01*
X93242857Y-62332380D01*
X93338095Y-62380000D01*
X93433333Y-62475238D01*
X93480952Y-62665714D01*
X93480952Y-62999047D01*
X93433333Y-63189523D01*
X93338095Y-63284761D01*
X93242857Y-63332380D01*
X93052380Y-63332380D01*
X94433333Y-63332380D02*
X93861904Y-63332380D01*
X94147619Y-63332380D02*
X94147619Y-62332380D01*
X94052380Y-62475238D01*
X93957142Y-62570476D01*
X93861904Y-62618095D01*
X95385714Y-63332380D02*
X94814285Y-63332380D01*
X95100000Y-63332380D02*
X95100000Y-62332380D01*
X95004761Y-62475238D01*
X94909523Y-62570476D01*
X94814285Y-62618095D01*
X107154761Y-81797619D02*
X107059523Y-81750000D01*
X106964285Y-81654761D01*
X106821428Y-81511904D01*
X106726190Y-81464285D01*
X106630952Y-81464285D01*
X106678571Y-81702380D02*
X106583333Y-81654761D01*
X106488095Y-81559523D01*
X106440476Y-81369047D01*
X106440476Y-81035714D01*
X106488095Y-80845238D01*
X106583333Y-80750000D01*
X106678571Y-80702380D01*
X106869047Y-80702380D01*
X106964285Y-80750000D01*
X107059523Y-80845238D01*
X107107142Y-81035714D01*
X107107142Y-81369047D01*
X107059523Y-81559523D01*
X106964285Y-81654761D01*
X106869047Y-81702380D01*
X106678571Y-81702380D01*
X107583333Y-81702380D02*
X107773809Y-81702380D01*
X107869047Y-81654761D01*
X107916666Y-81607142D01*
X108011904Y-81464285D01*
X108059523Y-81273809D01*
X108059523Y-80892857D01*
X108011904Y-80797619D01*
X107964285Y-80750000D01*
X107869047Y-80702380D01*
X107678571Y-80702380D01*
X107583333Y-80750000D01*
X107535714Y-80797619D01*
X107488095Y-80892857D01*
X107488095Y-81130952D01*
X107535714Y-81226190D01*
X107583333Y-81273809D01*
X107678571Y-81321428D01*
X107869047Y-81321428D01*
X107964285Y-81273809D01*
X108011904Y-81226190D01*
X108059523Y-81130952D01*
X95314761Y-68007619D02*
X95219523Y-67960000D01*
X95124285Y-67864761D01*
X94981428Y-67721904D01*
X94886190Y-67674285D01*
X94790952Y-67674285D01*
X94838571Y-67912380D02*
X94743333Y-67864761D01*
X94648095Y-67769523D01*
X94600476Y-67579047D01*
X94600476Y-67245714D01*
X94648095Y-67055238D01*
X94743333Y-66960000D01*
X94838571Y-66912380D01*
X95029047Y-66912380D01*
X95124285Y-66960000D01*
X95219523Y-67055238D01*
X95267142Y-67245714D01*
X95267142Y-67579047D01*
X95219523Y-67769523D01*
X95124285Y-67864761D01*
X95029047Y-67912380D01*
X94838571Y-67912380D01*
X95838571Y-67340952D02*
X95743333Y-67293333D01*
X95695714Y-67245714D01*
X95648095Y-67150476D01*
X95648095Y-67102857D01*
X95695714Y-67007619D01*
X95743333Y-66960000D01*
X95838571Y-66912380D01*
X96029047Y-66912380D01*
X96124285Y-66960000D01*
X96171904Y-67007619D01*
X96219523Y-67102857D01*
X96219523Y-67150476D01*
X96171904Y-67245714D01*
X96124285Y-67293333D01*
X96029047Y-67340952D01*
X95838571Y-67340952D01*
X95743333Y-67388571D01*
X95695714Y-67436190D01*
X95648095Y-67531428D01*
X95648095Y-67721904D01*
X95695714Y-67817142D01*
X95743333Y-67864761D01*
X95838571Y-67912380D01*
X96029047Y-67912380D01*
X96124285Y-67864761D01*
X96171904Y-67817142D01*
X96219523Y-67721904D01*
X96219523Y-67531428D01*
X96171904Y-67436190D01*
X96124285Y-67388571D01*
X96029047Y-67340952D01*
X100434761Y-84687619D02*
X100339523Y-84640000D01*
X100244285Y-84544761D01*
X100101428Y-84401904D01*
X100006190Y-84354285D01*
X99910952Y-84354285D01*
X99958571Y-84592380D02*
X99863333Y-84544761D01*
X99768095Y-84449523D01*
X99720476Y-84259047D01*
X99720476Y-83925714D01*
X99768095Y-83735238D01*
X99863333Y-83640000D01*
X99958571Y-83592380D01*
X100149047Y-83592380D01*
X100244285Y-83640000D01*
X100339523Y-83735238D01*
X100387142Y-83925714D01*
X100387142Y-84259047D01*
X100339523Y-84449523D01*
X100244285Y-84544761D01*
X100149047Y-84592380D01*
X99958571Y-84592380D01*
X100720476Y-83592380D02*
X101387142Y-83592380D01*
X100958571Y-84592380D01*
X101904761Y-95797619D02*
X101809523Y-95750000D01*
X101714285Y-95654761D01*
X101571428Y-95511904D01*
X101476190Y-95464285D01*
X101380952Y-95464285D01*
X101428571Y-95702380D02*
X101333333Y-95654761D01*
X101238095Y-95559523D01*
X101190476Y-95369047D01*
X101190476Y-95035714D01*
X101238095Y-94845238D01*
X101333333Y-94750000D01*
X101428571Y-94702380D01*
X101619047Y-94702380D01*
X101714285Y-94750000D01*
X101809523Y-94845238D01*
X101857142Y-95035714D01*
X101857142Y-95369047D01*
X101809523Y-95559523D01*
X101714285Y-95654761D01*
X101619047Y-95702380D01*
X101428571Y-95702380D01*
X102714285Y-94702380D02*
X102523809Y-94702380D01*
X102428571Y-94750000D01*
X102380952Y-94797619D01*
X102285714Y-94940476D01*
X102238095Y-95130952D01*
X102238095Y-95511904D01*
X102285714Y-95607142D01*
X102333333Y-95654761D01*
X102428571Y-95702380D01*
X102619047Y-95702380D01*
X102714285Y-95654761D01*
X102761904Y-95607142D01*
X102809523Y-95511904D01*
X102809523Y-95273809D01*
X102761904Y-95178571D01*
X102714285Y-95130952D01*
X102619047Y-95083333D01*
X102428571Y-95083333D01*
X102333333Y-95130952D01*
X102285714Y-95178571D01*
X102238095Y-95273809D01*
X79894761Y-98957619D02*
X79799523Y-98910000D01*
X79704285Y-98814761D01*
X79561428Y-98671904D01*
X79466190Y-98624285D01*
X79370952Y-98624285D01*
X79418571Y-98862380D02*
X79323333Y-98814761D01*
X79228095Y-98719523D01*
X79180476Y-98529047D01*
X79180476Y-98195714D01*
X79228095Y-98005238D01*
X79323333Y-97910000D01*
X79418571Y-97862380D01*
X79609047Y-97862380D01*
X79704285Y-97910000D01*
X79799523Y-98005238D01*
X79847142Y-98195714D01*
X79847142Y-98529047D01*
X79799523Y-98719523D01*
X79704285Y-98814761D01*
X79609047Y-98862380D01*
X79418571Y-98862380D01*
X80751904Y-97862380D02*
X80275714Y-97862380D01*
X80228095Y-98338571D01*
X80275714Y-98290952D01*
X80370952Y-98243333D01*
X80609047Y-98243333D01*
X80704285Y-98290952D01*
X80751904Y-98338571D01*
X80799523Y-98433809D01*
X80799523Y-98671904D01*
X80751904Y-98767142D01*
X80704285Y-98814761D01*
X80609047Y-98862380D01*
X80370952Y-98862380D01*
X80275714Y-98814761D01*
X80228095Y-98767142D01*
X110464761Y-103207619D02*
X110369523Y-103160000D01*
X110274285Y-103064761D01*
X110131428Y-102921904D01*
X110036190Y-102874285D01*
X109940952Y-102874285D01*
X109988571Y-103112380D02*
X109893333Y-103064761D01*
X109798095Y-102969523D01*
X109750476Y-102779047D01*
X109750476Y-102445714D01*
X109798095Y-102255238D01*
X109893333Y-102160000D01*
X109988571Y-102112380D01*
X110179047Y-102112380D01*
X110274285Y-102160000D01*
X110369523Y-102255238D01*
X110417142Y-102445714D01*
X110417142Y-102779047D01*
X110369523Y-102969523D01*
X110274285Y-103064761D01*
X110179047Y-103112380D01*
X109988571Y-103112380D01*
X111274285Y-102445714D02*
X111274285Y-103112380D01*
X111036190Y-102064761D02*
X110798095Y-102779047D01*
X111417142Y-102779047D01*
X94404761Y-103547619D02*
X94309523Y-103500000D01*
X94214285Y-103404761D01*
X94071428Y-103261904D01*
X93976190Y-103214285D01*
X93880952Y-103214285D01*
X93928571Y-103452380D02*
X93833333Y-103404761D01*
X93738095Y-103309523D01*
X93690476Y-103119047D01*
X93690476Y-102785714D01*
X93738095Y-102595238D01*
X93833333Y-102500000D01*
X93928571Y-102452380D01*
X94119047Y-102452380D01*
X94214285Y-102500000D01*
X94309523Y-102595238D01*
X94357142Y-102785714D01*
X94357142Y-103119047D01*
X94309523Y-103309523D01*
X94214285Y-103404761D01*
X94119047Y-103452380D01*
X93928571Y-103452380D01*
X94690476Y-102452380D02*
X95309523Y-102452380D01*
X94976190Y-102833333D01*
X95119047Y-102833333D01*
X95214285Y-102880952D01*
X95261904Y-102928571D01*
X95309523Y-103023809D01*
X95309523Y-103261904D01*
X95261904Y-103357142D01*
X95214285Y-103404761D01*
X95119047Y-103452380D01*
X94833333Y-103452380D01*
X94738095Y-103404761D01*
X94690476Y-103357142D01*
X94354761Y-111447619D02*
X94259523Y-111400000D01*
X94164285Y-111304761D01*
X94021428Y-111161904D01*
X93926190Y-111114285D01*
X93830952Y-111114285D01*
X93878571Y-111352380D02*
X93783333Y-111304761D01*
X93688095Y-111209523D01*
X93640476Y-111019047D01*
X93640476Y-110685714D01*
X93688095Y-110495238D01*
X93783333Y-110400000D01*
X93878571Y-110352380D01*
X94069047Y-110352380D01*
X94164285Y-110400000D01*
X94259523Y-110495238D01*
X94307142Y-110685714D01*
X94307142Y-111019047D01*
X94259523Y-111209523D01*
X94164285Y-111304761D01*
X94069047Y-111352380D01*
X93878571Y-111352380D01*
X95259523Y-111352380D02*
X94688095Y-111352380D01*
X94973809Y-111352380D02*
X94973809Y-110352380D01*
X94878571Y-110495238D01*
X94783333Y-110590476D01*
X94688095Y-110638095D01*
X59333809Y-93716190D02*
X59333809Y-94192380D01*
X59000476Y-93192380D02*
X59333809Y-93716190D01*
X59667142Y-93192380D01*
X60524285Y-94192380D02*
X59952857Y-94192380D01*
X60238571Y-94192380D02*
X60238571Y-93192380D01*
X60143333Y-93335238D01*
X60048095Y-93430476D01*
X59952857Y-93478095D01*
X67202380Y-57931904D02*
X68011904Y-57931904D01*
X68107142Y-57884285D01*
X68154761Y-57836666D01*
X68202380Y-57741428D01*
X68202380Y-57550952D01*
X68154761Y-57455714D01*
X68107142Y-57408095D01*
X68011904Y-57360476D01*
X67202380Y-57360476D01*
X67297619Y-56931904D02*
X67250000Y-56884285D01*
X67202380Y-56789047D01*
X67202380Y-56550952D01*
X67250000Y-56455714D01*
X67297619Y-56408095D01*
X67392857Y-56360476D01*
X67488095Y-56360476D01*
X67630952Y-56408095D01*
X68202380Y-56979523D01*
X68202380Y-56360476D01*
X40026666Y-108284761D02*
X40169523Y-108332380D01*
X40407619Y-108332380D01*
X40502857Y-108284761D01*
X40550476Y-108237142D01*
X40598095Y-108141904D01*
X40598095Y-108046666D01*
X40550476Y-107951428D01*
X40502857Y-107903809D01*
X40407619Y-107856190D01*
X40217142Y-107808571D01*
X40121904Y-107760952D01*
X40074285Y-107713333D01*
X40026666Y-107618095D01*
X40026666Y-107522857D01*
X40074285Y-107427619D01*
X40121904Y-107380000D01*
X40217142Y-107332380D01*
X40455238Y-107332380D01*
X40598095Y-107380000D01*
X40931428Y-107332380D02*
X41169523Y-108332380D01*
X41360000Y-107618095D01*
X41550476Y-108332380D01*
X41788571Y-107332380D01*
X42121904Y-107427619D02*
X42169523Y-107380000D01*
X42264761Y-107332380D01*
X42502857Y-107332380D01*
X42598095Y-107380000D01*
X42645714Y-107427619D01*
X42693333Y-107522857D01*
X42693333Y-107618095D01*
X42645714Y-107760952D01*
X42074285Y-108332380D01*
X42693333Y-108332380D01*
X44756666Y-108374761D02*
X44899523Y-108422380D01*
X45137619Y-108422380D01*
X45232857Y-108374761D01*
X45280476Y-108327142D01*
X45328095Y-108231904D01*
X45328095Y-108136666D01*
X45280476Y-108041428D01*
X45232857Y-107993809D01*
X45137619Y-107946190D01*
X44947142Y-107898571D01*
X44851904Y-107850952D01*
X44804285Y-107803333D01*
X44756666Y-107708095D01*
X44756666Y-107612857D01*
X44804285Y-107517619D01*
X44851904Y-107470000D01*
X44947142Y-107422380D01*
X45185238Y-107422380D01*
X45328095Y-107470000D01*
X45661428Y-107422380D02*
X45899523Y-108422380D01*
X46090000Y-107708095D01*
X46280476Y-108422380D01*
X46518571Y-107422380D01*
X47423333Y-108422380D02*
X46851904Y-108422380D01*
X47137619Y-108422380D02*
X47137619Y-107422380D01*
X47042380Y-107565238D01*
X46947142Y-107660476D01*
X46851904Y-107708095D01*
X62112380Y-57337857D02*
X61636190Y-57671190D01*
X62112380Y-57909285D02*
X61112380Y-57909285D01*
X61112380Y-57528333D01*
X61160000Y-57433095D01*
X61207619Y-57385476D01*
X61302857Y-57337857D01*
X61445714Y-57337857D01*
X61540952Y-57385476D01*
X61588571Y-57433095D01*
X61636190Y-57528333D01*
X61636190Y-57909285D01*
X61445714Y-56480714D02*
X62112380Y-56480714D01*
X61064761Y-56718809D02*
X61779047Y-56956904D01*
X61779047Y-56337857D01*
X61112380Y-56052142D02*
X61112380Y-55433095D01*
X61493333Y-55766428D01*
X61493333Y-55623571D01*
X61540952Y-55528333D01*
X61588571Y-55480714D01*
X61683809Y-55433095D01*
X61921904Y-55433095D01*
X62017142Y-55480714D01*
X62064761Y-55528333D01*
X62112380Y-55623571D01*
X62112380Y-55909285D01*
X62064761Y-56004523D01*
X62017142Y-56052142D01*
X74532380Y-103472857D02*
X74056190Y-103806190D01*
X74532380Y-104044285D02*
X73532380Y-104044285D01*
X73532380Y-103663333D01*
X73580000Y-103568095D01*
X73627619Y-103520476D01*
X73722857Y-103472857D01*
X73865714Y-103472857D01*
X73960952Y-103520476D01*
X74008571Y-103568095D01*
X74056190Y-103663333D01*
X74056190Y-104044285D01*
X73865714Y-102615714D02*
X74532380Y-102615714D01*
X73484761Y-102853809D02*
X74199047Y-103091904D01*
X74199047Y-102472857D01*
X73627619Y-102139523D02*
X73580000Y-102091904D01*
X73532380Y-101996666D01*
X73532380Y-101758571D01*
X73580000Y-101663333D01*
X73627619Y-101615714D01*
X73722857Y-101568095D01*
X73818095Y-101568095D01*
X73960952Y-101615714D01*
X74532380Y-102187142D01*
X74532380Y-101568095D01*
X111357142Y-114202380D02*
X111023809Y-113726190D01*
X110785714Y-114202380D02*
X110785714Y-113202380D01*
X111166666Y-113202380D01*
X111261904Y-113250000D01*
X111309523Y-113297619D01*
X111357142Y-113392857D01*
X111357142Y-113535714D01*
X111309523Y-113630952D01*
X111261904Y-113678571D01*
X111166666Y-113726190D01*
X110785714Y-113726190D01*
X112214285Y-113535714D02*
X112214285Y-114202380D01*
X111976190Y-113154761D02*
X111738095Y-113869047D01*
X112357142Y-113869047D01*
X113261904Y-114202380D02*
X112690476Y-114202380D01*
X112976190Y-114202380D02*
X112976190Y-113202380D01*
X112880952Y-113345238D01*
X112785714Y-113440476D01*
X112690476Y-113488095D01*
X71332380Y-103372857D02*
X70856190Y-103706190D01*
X71332380Y-103944285D02*
X70332380Y-103944285D01*
X70332380Y-103563333D01*
X70380000Y-103468095D01*
X70427619Y-103420476D01*
X70522857Y-103372857D01*
X70665714Y-103372857D01*
X70760952Y-103420476D01*
X70808571Y-103468095D01*
X70856190Y-103563333D01*
X70856190Y-103944285D01*
X70665714Y-102515714D02*
X71332380Y-102515714D01*
X70284761Y-102753809D02*
X70999047Y-102991904D01*
X70999047Y-102372857D01*
X70332380Y-101801428D02*
X70332380Y-101706190D01*
X70380000Y-101610952D01*
X70427619Y-101563333D01*
X70522857Y-101515714D01*
X70713333Y-101468095D01*
X70951428Y-101468095D01*
X71141904Y-101515714D01*
X71237142Y-101563333D01*
X71284761Y-101610952D01*
X71332380Y-101706190D01*
X71332380Y-101801428D01*
X71284761Y-101896666D01*
X71237142Y-101944285D01*
X71141904Y-101991904D01*
X70951428Y-102039523D01*
X70713333Y-102039523D01*
X70522857Y-101991904D01*
X70427619Y-101944285D01*
X70380000Y-101896666D01*
X70332380Y-101801428D01*
X115107142Y-113952380D02*
X114773809Y-113476190D01*
X114535714Y-113952380D02*
X114535714Y-112952380D01*
X114916666Y-112952380D01*
X115011904Y-113000000D01*
X115059523Y-113047619D01*
X115107142Y-113142857D01*
X115107142Y-113285714D01*
X115059523Y-113380952D01*
X115011904Y-113428571D01*
X114916666Y-113476190D01*
X114535714Y-113476190D01*
X115440476Y-112952380D02*
X116059523Y-112952380D01*
X115726190Y-113333333D01*
X115869047Y-113333333D01*
X115964285Y-113380952D01*
X116011904Y-113428571D01*
X116059523Y-113523809D01*
X116059523Y-113761904D01*
X116011904Y-113857142D01*
X115964285Y-113904761D01*
X115869047Y-113952380D01*
X115583333Y-113952380D01*
X115488095Y-113904761D01*
X115440476Y-113857142D01*
X116535714Y-113952380D02*
X116726190Y-113952380D01*
X116821428Y-113904761D01*
X116869047Y-113857142D01*
X116964285Y-113714285D01*
X117011904Y-113523809D01*
X117011904Y-113142857D01*
X116964285Y-113047619D01*
X116916666Y-113000000D01*
X116821428Y-112952380D01*
X116630952Y-112952380D01*
X116535714Y-113000000D01*
X116488095Y-113047619D01*
X116440476Y-113142857D01*
X116440476Y-113380952D01*
X116488095Y-113476190D01*
X116535714Y-113523809D01*
X116630952Y-113571428D01*
X116821428Y-113571428D01*
X116916666Y-113523809D01*
X116964285Y-113476190D01*
X117011904Y-113380952D01*
X90357142Y-51402380D02*
X90023809Y-50926190D01*
X89785714Y-51402380D02*
X89785714Y-50402380D01*
X90166666Y-50402380D01*
X90261904Y-50450000D01*
X90309523Y-50497619D01*
X90357142Y-50592857D01*
X90357142Y-50735714D01*
X90309523Y-50830952D01*
X90261904Y-50878571D01*
X90166666Y-50926190D01*
X89785714Y-50926190D01*
X90690476Y-50402380D02*
X91309523Y-50402380D01*
X90976190Y-50783333D01*
X91119047Y-50783333D01*
X91214285Y-50830952D01*
X91261904Y-50878571D01*
X91309523Y-50973809D01*
X91309523Y-51211904D01*
X91261904Y-51307142D01*
X91214285Y-51354761D01*
X91119047Y-51402380D01*
X90833333Y-51402380D01*
X90738095Y-51354761D01*
X90690476Y-51307142D01*
X91880952Y-50830952D02*
X91785714Y-50783333D01*
X91738095Y-50735714D01*
X91690476Y-50640476D01*
X91690476Y-50592857D01*
X91738095Y-50497619D01*
X91785714Y-50450000D01*
X91880952Y-50402380D01*
X92071428Y-50402380D01*
X92166666Y-50450000D01*
X92214285Y-50497619D01*
X92261904Y-50592857D01*
X92261904Y-50640476D01*
X92214285Y-50735714D01*
X92166666Y-50783333D01*
X92071428Y-50830952D01*
X91880952Y-50830952D01*
X91785714Y-50878571D01*
X91738095Y-50926190D01*
X91690476Y-51021428D01*
X91690476Y-51211904D01*
X91738095Y-51307142D01*
X91785714Y-51354761D01*
X91880952Y-51402380D01*
X92071428Y-51402380D01*
X92166666Y-51354761D01*
X92214285Y-51307142D01*
X92261904Y-51211904D01*
X92261904Y-51021428D01*
X92214285Y-50926190D01*
X92166666Y-50878571D01*
X92071428Y-50830952D01*
X68132380Y-103422857D02*
X67656190Y-103756190D01*
X68132380Y-103994285D02*
X67132380Y-103994285D01*
X67132380Y-103613333D01*
X67180000Y-103518095D01*
X67227619Y-103470476D01*
X67322857Y-103422857D01*
X67465714Y-103422857D01*
X67560952Y-103470476D01*
X67608571Y-103518095D01*
X67656190Y-103613333D01*
X67656190Y-103994285D01*
X67132380Y-103089523D02*
X67132380Y-102470476D01*
X67513333Y-102803809D01*
X67513333Y-102660952D01*
X67560952Y-102565714D01*
X67608571Y-102518095D01*
X67703809Y-102470476D01*
X67941904Y-102470476D01*
X68037142Y-102518095D01*
X68084761Y-102565714D01*
X68132380Y-102660952D01*
X68132380Y-102946666D01*
X68084761Y-103041904D01*
X68037142Y-103089523D01*
X67132380Y-102137142D02*
X67132380Y-101470476D01*
X68132380Y-101899047D01*
X84182380Y-52072857D02*
X83706190Y-52406190D01*
X84182380Y-52644285D02*
X83182380Y-52644285D01*
X83182380Y-52263333D01*
X83230000Y-52168095D01*
X83277619Y-52120476D01*
X83372857Y-52072857D01*
X83515714Y-52072857D01*
X83610952Y-52120476D01*
X83658571Y-52168095D01*
X83706190Y-52263333D01*
X83706190Y-52644285D01*
X83182380Y-51739523D02*
X83182380Y-51120476D01*
X83563333Y-51453809D01*
X83563333Y-51310952D01*
X83610952Y-51215714D01*
X83658571Y-51168095D01*
X83753809Y-51120476D01*
X83991904Y-51120476D01*
X84087142Y-51168095D01*
X84134761Y-51215714D01*
X84182380Y-51310952D01*
X84182380Y-51596666D01*
X84134761Y-51691904D01*
X84087142Y-51739523D01*
X83182380Y-50263333D02*
X83182380Y-50453809D01*
X83230000Y-50549047D01*
X83277619Y-50596666D01*
X83420476Y-50691904D01*
X83610952Y-50739523D01*
X83991904Y-50739523D01*
X84087142Y-50691904D01*
X84134761Y-50644285D01*
X84182380Y-50549047D01*
X84182380Y-50358571D01*
X84134761Y-50263333D01*
X84087142Y-50215714D01*
X83991904Y-50168095D01*
X83753809Y-50168095D01*
X83658571Y-50215714D01*
X83610952Y-50263333D01*
X83563333Y-50358571D01*
X83563333Y-50549047D01*
X83610952Y-50644285D01*
X83658571Y-50691904D01*
X83753809Y-50739523D01*
X81332380Y-51747857D02*
X80856190Y-52081190D01*
X81332380Y-52319285D02*
X80332380Y-52319285D01*
X80332380Y-51938333D01*
X80380000Y-51843095D01*
X80427619Y-51795476D01*
X80522857Y-51747857D01*
X80665714Y-51747857D01*
X80760952Y-51795476D01*
X80808571Y-51843095D01*
X80856190Y-51938333D01*
X80856190Y-52319285D01*
X80332380Y-51414523D02*
X80332380Y-50795476D01*
X80713333Y-51128809D01*
X80713333Y-50985952D01*
X80760952Y-50890714D01*
X80808571Y-50843095D01*
X80903809Y-50795476D01*
X81141904Y-50795476D01*
X81237142Y-50843095D01*
X81284761Y-50890714D01*
X81332380Y-50985952D01*
X81332380Y-51271666D01*
X81284761Y-51366904D01*
X81237142Y-51414523D01*
X80332380Y-49890714D02*
X80332380Y-50366904D01*
X80808571Y-50414523D01*
X80760952Y-50366904D01*
X80713333Y-50271666D01*
X80713333Y-50033571D01*
X80760952Y-49938333D01*
X80808571Y-49890714D01*
X80903809Y-49843095D01*
X81141904Y-49843095D01*
X81237142Y-49890714D01*
X81284761Y-49938333D01*
X81332380Y-50033571D01*
X81332380Y-50271666D01*
X81284761Y-50366904D01*
X81237142Y-50414523D01*
X57882142Y-51502380D02*
X57548809Y-51026190D01*
X57310714Y-51502380D02*
X57310714Y-50502380D01*
X57691666Y-50502380D01*
X57786904Y-50550000D01*
X57834523Y-50597619D01*
X57882142Y-50692857D01*
X57882142Y-50835714D01*
X57834523Y-50930952D01*
X57786904Y-50978571D01*
X57691666Y-51026190D01*
X57310714Y-51026190D01*
X58215476Y-50502380D02*
X58834523Y-50502380D01*
X58501190Y-50883333D01*
X58644047Y-50883333D01*
X58739285Y-50930952D01*
X58786904Y-50978571D01*
X58834523Y-51073809D01*
X58834523Y-51311904D01*
X58786904Y-51407142D01*
X58739285Y-51454761D01*
X58644047Y-51502380D01*
X58358333Y-51502380D01*
X58263095Y-51454761D01*
X58215476Y-51407142D01*
X59691666Y-50835714D02*
X59691666Y-51502380D01*
X59453571Y-50454761D02*
X59215476Y-51169047D01*
X59834523Y-51169047D01*
X55682142Y-55102380D02*
X55348809Y-54626190D01*
X55110714Y-55102380D02*
X55110714Y-54102380D01*
X55491666Y-54102380D01*
X55586904Y-54150000D01*
X55634523Y-54197619D01*
X55682142Y-54292857D01*
X55682142Y-54435714D01*
X55634523Y-54530952D01*
X55586904Y-54578571D01*
X55491666Y-54626190D01*
X55110714Y-54626190D01*
X56015476Y-54102380D02*
X56634523Y-54102380D01*
X56301190Y-54483333D01*
X56444047Y-54483333D01*
X56539285Y-54530952D01*
X56586904Y-54578571D01*
X56634523Y-54673809D01*
X56634523Y-54911904D01*
X56586904Y-55007142D01*
X56539285Y-55054761D01*
X56444047Y-55102380D01*
X56158333Y-55102380D01*
X56063095Y-55054761D01*
X56015476Y-55007142D01*
X56967857Y-54102380D02*
X57586904Y-54102380D01*
X57253571Y-54483333D01*
X57396428Y-54483333D01*
X57491666Y-54530952D01*
X57539285Y-54578571D01*
X57586904Y-54673809D01*
X57586904Y-54911904D01*
X57539285Y-55007142D01*
X57491666Y-55054761D01*
X57396428Y-55102380D01*
X57110714Y-55102380D01*
X57015476Y-55054761D01*
X56967857Y-55007142D01*
X109312142Y-76452380D02*
X108978809Y-75976190D01*
X108740714Y-76452380D02*
X108740714Y-75452380D01*
X109121666Y-75452380D01*
X109216904Y-75500000D01*
X109264523Y-75547619D01*
X109312142Y-75642857D01*
X109312142Y-75785714D01*
X109264523Y-75880952D01*
X109216904Y-75928571D01*
X109121666Y-75976190D01*
X108740714Y-75976190D01*
X109645476Y-75452380D02*
X110264523Y-75452380D01*
X109931190Y-75833333D01*
X110074047Y-75833333D01*
X110169285Y-75880952D01*
X110216904Y-75928571D01*
X110264523Y-76023809D01*
X110264523Y-76261904D01*
X110216904Y-76357142D01*
X110169285Y-76404761D01*
X110074047Y-76452380D01*
X109788333Y-76452380D01*
X109693095Y-76404761D01*
X109645476Y-76357142D01*
X110645476Y-75547619D02*
X110693095Y-75500000D01*
X110788333Y-75452380D01*
X111026428Y-75452380D01*
X111121666Y-75500000D01*
X111169285Y-75547619D01*
X111216904Y-75642857D01*
X111216904Y-75738095D01*
X111169285Y-75880952D01*
X110597857Y-76452380D01*
X111216904Y-76452380D01*
X52732142Y-51502380D02*
X52398809Y-51026190D01*
X52160714Y-51502380D02*
X52160714Y-50502380D01*
X52541666Y-50502380D01*
X52636904Y-50550000D01*
X52684523Y-50597619D01*
X52732142Y-50692857D01*
X52732142Y-50835714D01*
X52684523Y-50930952D01*
X52636904Y-50978571D01*
X52541666Y-51026190D01*
X52160714Y-51026190D01*
X53065476Y-50502380D02*
X53684523Y-50502380D01*
X53351190Y-50883333D01*
X53494047Y-50883333D01*
X53589285Y-50930952D01*
X53636904Y-50978571D01*
X53684523Y-51073809D01*
X53684523Y-51311904D01*
X53636904Y-51407142D01*
X53589285Y-51454761D01*
X53494047Y-51502380D01*
X53208333Y-51502380D01*
X53113095Y-51454761D01*
X53065476Y-51407142D01*
X54636904Y-51502380D02*
X54065476Y-51502380D01*
X54351190Y-51502380D02*
X54351190Y-50502380D01*
X54255952Y-50645238D01*
X54160714Y-50740476D01*
X54065476Y-50788095D01*
X50132142Y-55002380D02*
X49798809Y-54526190D01*
X49560714Y-55002380D02*
X49560714Y-54002380D01*
X49941666Y-54002380D01*
X50036904Y-54050000D01*
X50084523Y-54097619D01*
X50132142Y-54192857D01*
X50132142Y-54335714D01*
X50084523Y-54430952D01*
X50036904Y-54478571D01*
X49941666Y-54526190D01*
X49560714Y-54526190D01*
X50465476Y-54002380D02*
X51084523Y-54002380D01*
X50751190Y-54383333D01*
X50894047Y-54383333D01*
X50989285Y-54430952D01*
X51036904Y-54478571D01*
X51084523Y-54573809D01*
X51084523Y-54811904D01*
X51036904Y-54907142D01*
X50989285Y-54954761D01*
X50894047Y-55002380D01*
X50608333Y-55002380D01*
X50513095Y-54954761D01*
X50465476Y-54907142D01*
X51703571Y-54002380D02*
X51798809Y-54002380D01*
X51894047Y-54050000D01*
X51941666Y-54097619D01*
X51989285Y-54192857D01*
X52036904Y-54383333D01*
X52036904Y-54621428D01*
X51989285Y-54811904D01*
X51941666Y-54907142D01*
X51894047Y-54954761D01*
X51798809Y-55002380D01*
X51703571Y-55002380D01*
X51608333Y-54954761D01*
X51560714Y-54907142D01*
X51513095Y-54811904D01*
X51465476Y-54621428D01*
X51465476Y-54383333D01*
X51513095Y-54192857D01*
X51560714Y-54097619D01*
X51608333Y-54050000D01*
X51703571Y-54002380D01*
X104252380Y-73992857D02*
X103776190Y-74326190D01*
X104252380Y-74564285D02*
X103252380Y-74564285D01*
X103252380Y-74183333D01*
X103300000Y-74088095D01*
X103347619Y-74040476D01*
X103442857Y-73992857D01*
X103585714Y-73992857D01*
X103680952Y-74040476D01*
X103728571Y-74088095D01*
X103776190Y-74183333D01*
X103776190Y-74564285D01*
X103347619Y-73611904D02*
X103300000Y-73564285D01*
X103252380Y-73469047D01*
X103252380Y-73230952D01*
X103300000Y-73135714D01*
X103347619Y-73088095D01*
X103442857Y-73040476D01*
X103538095Y-73040476D01*
X103680952Y-73088095D01*
X104252380Y-73659523D01*
X104252380Y-73040476D01*
X104252380Y-72564285D02*
X104252380Y-72373809D01*
X104204761Y-72278571D01*
X104157142Y-72230952D01*
X104014285Y-72135714D01*
X103823809Y-72088095D01*
X103442857Y-72088095D01*
X103347619Y-72135714D01*
X103300000Y-72183333D01*
X103252380Y-72278571D01*
X103252380Y-72469047D01*
X103300000Y-72564285D01*
X103347619Y-72611904D01*
X103442857Y-72659523D01*
X103680952Y-72659523D01*
X103776190Y-72611904D01*
X103823809Y-72564285D01*
X103871428Y-72469047D01*
X103871428Y-72278571D01*
X103823809Y-72183333D01*
X103776190Y-72135714D01*
X103680952Y-72088095D01*
X99557142Y-88052380D02*
X99223809Y-87576190D01*
X98985714Y-88052380D02*
X98985714Y-87052380D01*
X99366666Y-87052380D01*
X99461904Y-87100000D01*
X99509523Y-87147619D01*
X99557142Y-87242857D01*
X99557142Y-87385714D01*
X99509523Y-87480952D01*
X99461904Y-87528571D01*
X99366666Y-87576190D01*
X98985714Y-87576190D01*
X99938095Y-87147619D02*
X99985714Y-87100000D01*
X100080952Y-87052380D01*
X100319047Y-87052380D01*
X100414285Y-87100000D01*
X100461904Y-87147619D01*
X100509523Y-87242857D01*
X100509523Y-87338095D01*
X100461904Y-87480952D01*
X99890476Y-88052380D01*
X100509523Y-88052380D01*
X101080952Y-87480952D02*
X100985714Y-87433333D01*
X100938095Y-87385714D01*
X100890476Y-87290476D01*
X100890476Y-87242857D01*
X100938095Y-87147619D01*
X100985714Y-87100000D01*
X101080952Y-87052380D01*
X101271428Y-87052380D01*
X101366666Y-87100000D01*
X101414285Y-87147619D01*
X101461904Y-87242857D01*
X101461904Y-87290476D01*
X101414285Y-87385714D01*
X101366666Y-87433333D01*
X101271428Y-87480952D01*
X101080952Y-87480952D01*
X100985714Y-87528571D01*
X100938095Y-87576190D01*
X100890476Y-87671428D01*
X100890476Y-87861904D01*
X100938095Y-87957142D01*
X100985714Y-88004761D01*
X101080952Y-88052380D01*
X101271428Y-88052380D01*
X101366666Y-88004761D01*
X101414285Y-87957142D01*
X101461904Y-87861904D01*
X101461904Y-87671428D01*
X101414285Y-87576190D01*
X101366666Y-87528571D01*
X101271428Y-87480952D01*
X47332142Y-51402380D02*
X46998809Y-50926190D01*
X46760714Y-51402380D02*
X46760714Y-50402380D01*
X47141666Y-50402380D01*
X47236904Y-50450000D01*
X47284523Y-50497619D01*
X47332142Y-50592857D01*
X47332142Y-50735714D01*
X47284523Y-50830952D01*
X47236904Y-50878571D01*
X47141666Y-50926190D01*
X46760714Y-50926190D01*
X47713095Y-50497619D02*
X47760714Y-50450000D01*
X47855952Y-50402380D01*
X48094047Y-50402380D01*
X48189285Y-50450000D01*
X48236904Y-50497619D01*
X48284523Y-50592857D01*
X48284523Y-50688095D01*
X48236904Y-50830952D01*
X47665476Y-51402380D01*
X48284523Y-51402380D01*
X49141666Y-50402380D02*
X48951190Y-50402380D01*
X48855952Y-50450000D01*
X48808333Y-50497619D01*
X48713095Y-50640476D01*
X48665476Y-50830952D01*
X48665476Y-51211904D01*
X48713095Y-51307142D01*
X48760714Y-51354761D01*
X48855952Y-51402380D01*
X49046428Y-51402380D01*
X49141666Y-51354761D01*
X49189285Y-51307142D01*
X49236904Y-51211904D01*
X49236904Y-50973809D01*
X49189285Y-50878571D01*
X49141666Y-50830952D01*
X49046428Y-50783333D01*
X48855952Y-50783333D01*
X48760714Y-50830952D01*
X48713095Y-50878571D01*
X48665476Y-50973809D01*
X95482380Y-71582857D02*
X95006190Y-71916190D01*
X95482380Y-72154285D02*
X94482380Y-72154285D01*
X94482380Y-71773333D01*
X94530000Y-71678095D01*
X94577619Y-71630476D01*
X94672857Y-71582857D01*
X94815714Y-71582857D01*
X94910952Y-71630476D01*
X94958571Y-71678095D01*
X95006190Y-71773333D01*
X95006190Y-72154285D01*
X94577619Y-71201904D02*
X94530000Y-71154285D01*
X94482380Y-71059047D01*
X94482380Y-70820952D01*
X94530000Y-70725714D01*
X94577619Y-70678095D01*
X94672857Y-70630476D01*
X94768095Y-70630476D01*
X94910952Y-70678095D01*
X95482380Y-71249523D01*
X95482380Y-70630476D01*
X94482380Y-69725714D02*
X94482380Y-70201904D01*
X94958571Y-70249523D01*
X94910952Y-70201904D01*
X94863333Y-70106666D01*
X94863333Y-69868571D01*
X94910952Y-69773333D01*
X94958571Y-69725714D01*
X95053809Y-69678095D01*
X95291904Y-69678095D01*
X95387142Y-69725714D01*
X95434761Y-69773333D01*
X95482380Y-69868571D01*
X95482380Y-70106666D01*
X95434761Y-70201904D01*
X95387142Y-70249523D01*
X110032380Y-65432857D02*
X109556190Y-65766190D01*
X110032380Y-66004285D02*
X109032380Y-66004285D01*
X109032380Y-65623333D01*
X109080000Y-65528095D01*
X109127619Y-65480476D01*
X109222857Y-65432857D01*
X109365714Y-65432857D01*
X109460952Y-65480476D01*
X109508571Y-65528095D01*
X109556190Y-65623333D01*
X109556190Y-66004285D01*
X109127619Y-65051904D02*
X109080000Y-65004285D01*
X109032380Y-64909047D01*
X109032380Y-64670952D01*
X109080000Y-64575714D01*
X109127619Y-64528095D01*
X109222857Y-64480476D01*
X109318095Y-64480476D01*
X109460952Y-64528095D01*
X110032380Y-65099523D01*
X110032380Y-64480476D01*
X109365714Y-63623333D02*
X110032380Y-63623333D01*
X108984761Y-63861428D02*
X109699047Y-64099523D01*
X109699047Y-63480476D01*
X99732142Y-80792380D02*
X99398809Y-80316190D01*
X99160714Y-80792380D02*
X99160714Y-79792380D01*
X99541666Y-79792380D01*
X99636904Y-79840000D01*
X99684523Y-79887619D01*
X99732142Y-79982857D01*
X99732142Y-80125714D01*
X99684523Y-80220952D01*
X99636904Y-80268571D01*
X99541666Y-80316190D01*
X99160714Y-80316190D01*
X100113095Y-79887619D02*
X100160714Y-79840000D01*
X100255952Y-79792380D01*
X100494047Y-79792380D01*
X100589285Y-79840000D01*
X100636904Y-79887619D01*
X100684523Y-79982857D01*
X100684523Y-80078095D01*
X100636904Y-80220952D01*
X100065476Y-80792380D01*
X100684523Y-80792380D01*
X101017857Y-79792380D02*
X101636904Y-79792380D01*
X101303571Y-80173333D01*
X101446428Y-80173333D01*
X101541666Y-80220952D01*
X101589285Y-80268571D01*
X101636904Y-80363809D01*
X101636904Y-80601904D01*
X101589285Y-80697142D01*
X101541666Y-80744761D01*
X101446428Y-80792380D01*
X101160714Y-80792380D01*
X101065476Y-80744761D01*
X101017857Y-80697142D01*
X106357142Y-88202380D02*
X106023809Y-87726190D01*
X105785714Y-88202380D02*
X105785714Y-87202380D01*
X106166666Y-87202380D01*
X106261904Y-87250000D01*
X106309523Y-87297619D01*
X106357142Y-87392857D01*
X106357142Y-87535714D01*
X106309523Y-87630952D01*
X106261904Y-87678571D01*
X106166666Y-87726190D01*
X105785714Y-87726190D01*
X106738095Y-87297619D02*
X106785714Y-87250000D01*
X106880952Y-87202380D01*
X107119047Y-87202380D01*
X107214285Y-87250000D01*
X107261904Y-87297619D01*
X107309523Y-87392857D01*
X107309523Y-87488095D01*
X107261904Y-87630952D01*
X106690476Y-88202380D01*
X107309523Y-88202380D01*
X107690476Y-87297619D02*
X107738095Y-87250000D01*
X107833333Y-87202380D01*
X108071428Y-87202380D01*
X108166666Y-87250000D01*
X108214285Y-87297619D01*
X108261904Y-87392857D01*
X108261904Y-87488095D01*
X108214285Y-87630952D01*
X107642857Y-88202380D01*
X108261904Y-88202380D01*
X108422380Y-74072857D02*
X107946190Y-74406190D01*
X108422380Y-74644285D02*
X107422380Y-74644285D01*
X107422380Y-74263333D01*
X107470000Y-74168095D01*
X107517619Y-74120476D01*
X107612857Y-74072857D01*
X107755714Y-74072857D01*
X107850952Y-74120476D01*
X107898571Y-74168095D01*
X107946190Y-74263333D01*
X107946190Y-74644285D01*
X107517619Y-73691904D02*
X107470000Y-73644285D01*
X107422380Y-73549047D01*
X107422380Y-73310952D01*
X107470000Y-73215714D01*
X107517619Y-73168095D01*
X107612857Y-73120476D01*
X107708095Y-73120476D01*
X107850952Y-73168095D01*
X108422380Y-73739523D01*
X108422380Y-73120476D01*
X107422380Y-72501428D02*
X107422380Y-72406190D01*
X107470000Y-72310952D01*
X107517619Y-72263333D01*
X107612857Y-72215714D01*
X107803333Y-72168095D01*
X108041428Y-72168095D01*
X108231904Y-72215714D01*
X108327142Y-72263333D01*
X108374761Y-72310952D01*
X108422380Y-72406190D01*
X108422380Y-72501428D01*
X108374761Y-72596666D01*
X108327142Y-72644285D01*
X108231904Y-72691904D01*
X108041428Y-72739523D01*
X107803333Y-72739523D01*
X107612857Y-72691904D01*
X107517619Y-72644285D01*
X107470000Y-72596666D01*
X107422380Y-72501428D01*
X99622142Y-77792380D02*
X99288809Y-77316190D01*
X99050714Y-77792380D02*
X99050714Y-76792380D01*
X99431666Y-76792380D01*
X99526904Y-76840000D01*
X99574523Y-76887619D01*
X99622142Y-76982857D01*
X99622142Y-77125714D01*
X99574523Y-77220952D01*
X99526904Y-77268571D01*
X99431666Y-77316190D01*
X99050714Y-77316190D01*
X100574523Y-77792380D02*
X100003095Y-77792380D01*
X100288809Y-77792380D02*
X100288809Y-76792380D01*
X100193571Y-76935238D01*
X100098333Y-77030476D01*
X100003095Y-77078095D01*
X101050714Y-77792380D02*
X101241190Y-77792380D01*
X101336428Y-77744761D01*
X101384047Y-77697142D01*
X101479285Y-77554285D01*
X101526904Y-77363809D01*
X101526904Y-76982857D01*
X101479285Y-76887619D01*
X101431666Y-76840000D01*
X101336428Y-76792380D01*
X101145952Y-76792380D01*
X101050714Y-76840000D01*
X101003095Y-76887619D01*
X100955476Y-76982857D01*
X100955476Y-77220952D01*
X101003095Y-77316190D01*
X101050714Y-77363809D01*
X101145952Y-77411428D01*
X101336428Y-77411428D01*
X101431666Y-77363809D01*
X101479285Y-77316190D01*
X101526904Y-77220952D01*
X97857142Y-102952380D02*
X97523809Y-102476190D01*
X97285714Y-102952380D02*
X97285714Y-101952380D01*
X97666666Y-101952380D01*
X97761904Y-102000000D01*
X97809523Y-102047619D01*
X97857142Y-102142857D01*
X97857142Y-102285714D01*
X97809523Y-102380952D01*
X97761904Y-102428571D01*
X97666666Y-102476190D01*
X97285714Y-102476190D01*
X98809523Y-102952380D02*
X98238095Y-102952380D01*
X98523809Y-102952380D02*
X98523809Y-101952380D01*
X98428571Y-102095238D01*
X98333333Y-102190476D01*
X98238095Y-102238095D01*
X99380952Y-102380952D02*
X99285714Y-102333333D01*
X99238095Y-102285714D01*
X99190476Y-102190476D01*
X99190476Y-102142857D01*
X99238095Y-102047619D01*
X99285714Y-102000000D01*
X99380952Y-101952380D01*
X99571428Y-101952380D01*
X99666666Y-102000000D01*
X99714285Y-102047619D01*
X99761904Y-102142857D01*
X99761904Y-102190476D01*
X99714285Y-102285714D01*
X99666666Y-102333333D01*
X99571428Y-102380952D01*
X99380952Y-102380952D01*
X99285714Y-102428571D01*
X99238095Y-102476190D01*
X99190476Y-102571428D01*
X99190476Y-102761904D01*
X99238095Y-102857142D01*
X99285714Y-102904761D01*
X99380952Y-102952380D01*
X99571428Y-102952380D01*
X99666666Y-102904761D01*
X99714285Y-102857142D01*
X99761904Y-102761904D01*
X99761904Y-102571428D01*
X99714285Y-102476190D01*
X99666666Y-102428571D01*
X99571428Y-102380952D01*
X79497142Y-101732380D02*
X79163809Y-101256190D01*
X78925714Y-101732380D02*
X78925714Y-100732380D01*
X79306666Y-100732380D01*
X79401904Y-100780000D01*
X79449523Y-100827619D01*
X79497142Y-100922857D01*
X79497142Y-101065714D01*
X79449523Y-101160952D01*
X79401904Y-101208571D01*
X79306666Y-101256190D01*
X78925714Y-101256190D01*
X80449523Y-101732380D02*
X79878095Y-101732380D01*
X80163809Y-101732380D02*
X80163809Y-100732380D01*
X80068571Y-100875238D01*
X79973333Y-100970476D01*
X79878095Y-101018095D01*
X80782857Y-100732380D02*
X81449523Y-100732380D01*
X81020952Y-101732380D01*
X109447142Y-97412380D02*
X109113809Y-96936190D01*
X108875714Y-97412380D02*
X108875714Y-96412380D01*
X109256666Y-96412380D01*
X109351904Y-96460000D01*
X109399523Y-96507619D01*
X109447142Y-96602857D01*
X109447142Y-96745714D01*
X109399523Y-96840952D01*
X109351904Y-96888571D01*
X109256666Y-96936190D01*
X108875714Y-96936190D01*
X110399523Y-97412380D02*
X109828095Y-97412380D01*
X110113809Y-97412380D02*
X110113809Y-96412380D01*
X110018571Y-96555238D01*
X109923333Y-96650476D01*
X109828095Y-96698095D01*
X111256666Y-96412380D02*
X111066190Y-96412380D01*
X110970952Y-96460000D01*
X110923333Y-96507619D01*
X110828095Y-96650476D01*
X110780476Y-96840952D01*
X110780476Y-97221904D01*
X110828095Y-97317142D01*
X110875714Y-97364761D01*
X110970952Y-97412380D01*
X111161428Y-97412380D01*
X111256666Y-97364761D01*
X111304285Y-97317142D01*
X111351904Y-97221904D01*
X111351904Y-96983809D01*
X111304285Y-96888571D01*
X111256666Y-96840952D01*
X111161428Y-96793333D01*
X110970952Y-96793333D01*
X110875714Y-96840952D01*
X110828095Y-96888571D01*
X110780476Y-96983809D01*
X90857142Y-95202380D02*
X90523809Y-94726190D01*
X90285714Y-95202380D02*
X90285714Y-94202380D01*
X90666666Y-94202380D01*
X90761904Y-94250000D01*
X90809523Y-94297619D01*
X90857142Y-94392857D01*
X90857142Y-94535714D01*
X90809523Y-94630952D01*
X90761904Y-94678571D01*
X90666666Y-94726190D01*
X90285714Y-94726190D01*
X91809523Y-95202380D02*
X91238095Y-95202380D01*
X91523809Y-95202380D02*
X91523809Y-94202380D01*
X91428571Y-94345238D01*
X91333333Y-94440476D01*
X91238095Y-94488095D01*
X92714285Y-94202380D02*
X92238095Y-94202380D01*
X92190476Y-94678571D01*
X92238095Y-94630952D01*
X92333333Y-94583333D01*
X92571428Y-94583333D01*
X92666666Y-94630952D01*
X92714285Y-94678571D01*
X92761904Y-94773809D01*
X92761904Y-95011904D01*
X92714285Y-95107142D01*
X92666666Y-95154761D01*
X92571428Y-95202380D01*
X92333333Y-95202380D01*
X92238095Y-95154761D01*
X92190476Y-95107142D01*
X41892142Y-99632380D02*
X41558809Y-99156190D01*
X41320714Y-99632380D02*
X41320714Y-98632380D01*
X41701666Y-98632380D01*
X41796904Y-98680000D01*
X41844523Y-98727619D01*
X41892142Y-98822857D01*
X41892142Y-98965714D01*
X41844523Y-99060952D01*
X41796904Y-99108571D01*
X41701666Y-99156190D01*
X41320714Y-99156190D01*
X42844523Y-99632380D02*
X42273095Y-99632380D01*
X42558809Y-99632380D02*
X42558809Y-98632380D01*
X42463571Y-98775238D01*
X42368333Y-98870476D01*
X42273095Y-98918095D01*
X43701666Y-98965714D02*
X43701666Y-99632380D01*
X43463571Y-98584761D02*
X43225476Y-99299047D01*
X43844523Y-99299047D01*
X109697142Y-100132380D02*
X109363809Y-99656190D01*
X109125714Y-100132380D02*
X109125714Y-99132380D01*
X109506666Y-99132380D01*
X109601904Y-99180000D01*
X109649523Y-99227619D01*
X109697142Y-99322857D01*
X109697142Y-99465714D01*
X109649523Y-99560952D01*
X109601904Y-99608571D01*
X109506666Y-99656190D01*
X109125714Y-99656190D01*
X110649523Y-100132380D02*
X110078095Y-100132380D01*
X110363809Y-100132380D02*
X110363809Y-99132380D01*
X110268571Y-99275238D01*
X110173333Y-99370476D01*
X110078095Y-99418095D01*
X110982857Y-99132380D02*
X111601904Y-99132380D01*
X111268571Y-99513333D01*
X111411428Y-99513333D01*
X111506666Y-99560952D01*
X111554285Y-99608571D01*
X111601904Y-99703809D01*
X111601904Y-99941904D01*
X111554285Y-100037142D01*
X111506666Y-100084761D01*
X111411428Y-100132380D01*
X111125714Y-100132380D01*
X111030476Y-100084761D01*
X110982857Y-100037142D01*
X94107142Y-100552380D02*
X93773809Y-100076190D01*
X93535714Y-100552380D02*
X93535714Y-99552380D01*
X93916666Y-99552380D01*
X94011904Y-99600000D01*
X94059523Y-99647619D01*
X94107142Y-99742857D01*
X94107142Y-99885714D01*
X94059523Y-99980952D01*
X94011904Y-100028571D01*
X93916666Y-100076190D01*
X93535714Y-100076190D01*
X95059523Y-100552380D02*
X94488095Y-100552380D01*
X94773809Y-100552380D02*
X94773809Y-99552380D01*
X94678571Y-99695238D01*
X94583333Y-99790476D01*
X94488095Y-99838095D01*
X95440476Y-99647619D02*
X95488095Y-99600000D01*
X95583333Y-99552380D01*
X95821428Y-99552380D01*
X95916666Y-99600000D01*
X95964285Y-99647619D01*
X96011904Y-99742857D01*
X96011904Y-99838095D01*
X95964285Y-99980952D01*
X95392857Y-100552380D01*
X96011904Y-100552380D01*
X110022142Y-106982380D02*
X109688809Y-106506190D01*
X109450714Y-106982380D02*
X109450714Y-105982380D01*
X109831666Y-105982380D01*
X109926904Y-106030000D01*
X109974523Y-106077619D01*
X110022142Y-106172857D01*
X110022142Y-106315714D01*
X109974523Y-106410952D01*
X109926904Y-106458571D01*
X109831666Y-106506190D01*
X109450714Y-106506190D01*
X110974523Y-106982380D02*
X110403095Y-106982380D01*
X110688809Y-106982380D02*
X110688809Y-105982380D01*
X110593571Y-106125238D01*
X110498333Y-106220476D01*
X110403095Y-106268095D01*
X111926904Y-106982380D02*
X111355476Y-106982380D01*
X111641190Y-106982380D02*
X111641190Y-105982380D01*
X111545952Y-106125238D01*
X111450714Y-106220476D01*
X111355476Y-106268095D01*
X52352380Y-99127857D02*
X51876190Y-99461190D01*
X52352380Y-99699285D02*
X51352380Y-99699285D01*
X51352380Y-99318333D01*
X51400000Y-99223095D01*
X51447619Y-99175476D01*
X51542857Y-99127857D01*
X51685714Y-99127857D01*
X51780952Y-99175476D01*
X51828571Y-99223095D01*
X51876190Y-99318333D01*
X51876190Y-99699285D01*
X52352380Y-98175476D02*
X52352380Y-98746904D01*
X52352380Y-98461190D02*
X51352380Y-98461190D01*
X51495238Y-98556428D01*
X51590476Y-98651666D01*
X51638095Y-98746904D01*
X51352380Y-97556428D02*
X51352380Y-97461190D01*
X51400000Y-97365952D01*
X51447619Y-97318333D01*
X51542857Y-97270714D01*
X51733333Y-97223095D01*
X51971428Y-97223095D01*
X52161904Y-97270714D01*
X52257142Y-97318333D01*
X52304761Y-97365952D01*
X52352380Y-97461190D01*
X52352380Y-97556428D01*
X52304761Y-97651666D01*
X52257142Y-97699285D01*
X52161904Y-97746904D01*
X51971428Y-97794523D01*
X51733333Y-97794523D01*
X51542857Y-97746904D01*
X51447619Y-97699285D01*
X51400000Y-97651666D01*
X51352380Y-97556428D01*
X94338333Y-108027380D02*
X94005000Y-107551190D01*
X93766904Y-108027380D02*
X93766904Y-107027380D01*
X94147857Y-107027380D01*
X94243095Y-107075000D01*
X94290714Y-107122619D01*
X94338333Y-107217857D01*
X94338333Y-107360714D01*
X94290714Y-107455952D01*
X94243095Y-107503571D01*
X94147857Y-107551190D01*
X93766904Y-107551190D01*
X94814523Y-108027380D02*
X95005000Y-108027380D01*
X95100238Y-107979761D01*
X95147857Y-107932142D01*
X95243095Y-107789285D01*
X95290714Y-107598809D01*
X95290714Y-107217857D01*
X95243095Y-107122619D01*
X95195476Y-107075000D01*
X95100238Y-107027380D01*
X94909761Y-107027380D01*
X94814523Y-107075000D01*
X94766904Y-107122619D01*
X94719285Y-107217857D01*
X94719285Y-107455952D01*
X94766904Y-107551190D01*
X94814523Y-107598809D01*
X94909761Y-107646428D01*
X95100238Y-107646428D01*
X95195476Y-107598809D01*
X95243095Y-107551190D01*
X95290714Y-107455952D01*
X102002380Y-113346666D02*
X101526190Y-113680000D01*
X102002380Y-113918095D02*
X101002380Y-113918095D01*
X101002380Y-113537142D01*
X101050000Y-113441904D01*
X101097619Y-113394285D01*
X101192857Y-113346666D01*
X101335714Y-113346666D01*
X101430952Y-113394285D01*
X101478571Y-113441904D01*
X101526190Y-113537142D01*
X101526190Y-113918095D01*
X101430952Y-112775238D02*
X101383333Y-112870476D01*
X101335714Y-112918095D01*
X101240476Y-112965714D01*
X101192857Y-112965714D01*
X101097619Y-112918095D01*
X101050000Y-112870476D01*
X101002380Y-112775238D01*
X101002380Y-112584761D01*
X101050000Y-112489523D01*
X101097619Y-112441904D01*
X101192857Y-112394285D01*
X101240476Y-112394285D01*
X101335714Y-112441904D01*
X101383333Y-112489523D01*
X101430952Y-112584761D01*
X101430952Y-112775238D01*
X101478571Y-112870476D01*
X101526190Y-112918095D01*
X101621428Y-112965714D01*
X101811904Y-112965714D01*
X101907142Y-112918095D01*
X101954761Y-112870476D01*
X102002380Y-112775238D01*
X102002380Y-112584761D01*
X101954761Y-112489523D01*
X101907142Y-112441904D01*
X101811904Y-112394285D01*
X101621428Y-112394285D01*
X101526190Y-112441904D01*
X101478571Y-112489523D01*
X101430952Y-112584761D01*
X96333333Y-105452380D02*
X96000000Y-104976190D01*
X95761904Y-105452380D02*
X95761904Y-104452380D01*
X96142857Y-104452380D01*
X96238095Y-104500000D01*
X96285714Y-104547619D01*
X96333333Y-104642857D01*
X96333333Y-104785714D01*
X96285714Y-104880952D01*
X96238095Y-104928571D01*
X96142857Y-104976190D01*
X95761904Y-104976190D01*
X96666666Y-104452380D02*
X97333333Y-104452380D01*
X96904761Y-105452380D01*
X48858333Y-65802380D02*
X48525000Y-65326190D01*
X48286904Y-65802380D02*
X48286904Y-64802380D01*
X48667857Y-64802380D01*
X48763095Y-64850000D01*
X48810714Y-64897619D01*
X48858333Y-64992857D01*
X48858333Y-65135714D01*
X48810714Y-65230952D01*
X48763095Y-65278571D01*
X48667857Y-65326190D01*
X48286904Y-65326190D01*
X49715476Y-64802380D02*
X49525000Y-64802380D01*
X49429761Y-64850000D01*
X49382142Y-64897619D01*
X49286904Y-65040476D01*
X49239285Y-65230952D01*
X49239285Y-65611904D01*
X49286904Y-65707142D01*
X49334523Y-65754761D01*
X49429761Y-65802380D01*
X49620238Y-65802380D01*
X49715476Y-65754761D01*
X49763095Y-65707142D01*
X49810714Y-65611904D01*
X49810714Y-65373809D01*
X49763095Y-65278571D01*
X49715476Y-65230952D01*
X49620238Y-65183333D01*
X49429761Y-65183333D01*
X49334523Y-65230952D01*
X49286904Y-65278571D01*
X49239285Y-65373809D01*
X44208333Y-65802380D02*
X43875000Y-65326190D01*
X43636904Y-65802380D02*
X43636904Y-64802380D01*
X44017857Y-64802380D01*
X44113095Y-64850000D01*
X44160714Y-64897619D01*
X44208333Y-64992857D01*
X44208333Y-65135714D01*
X44160714Y-65230952D01*
X44113095Y-65278571D01*
X44017857Y-65326190D01*
X43636904Y-65326190D01*
X45113095Y-64802380D02*
X44636904Y-64802380D01*
X44589285Y-65278571D01*
X44636904Y-65230952D01*
X44732142Y-65183333D01*
X44970238Y-65183333D01*
X45065476Y-65230952D01*
X45113095Y-65278571D01*
X45160714Y-65373809D01*
X45160714Y-65611904D01*
X45113095Y-65707142D01*
X45065476Y-65754761D01*
X44970238Y-65802380D01*
X44732142Y-65802380D01*
X44636904Y-65754761D01*
X44589285Y-65707142D01*
X85923333Y-113677380D02*
X85590000Y-113201190D01*
X85351904Y-113677380D02*
X85351904Y-112677380D01*
X85732857Y-112677380D01*
X85828095Y-112725000D01*
X85875714Y-112772619D01*
X85923333Y-112867857D01*
X85923333Y-113010714D01*
X85875714Y-113105952D01*
X85828095Y-113153571D01*
X85732857Y-113201190D01*
X85351904Y-113201190D01*
X86780476Y-113010714D02*
X86780476Y-113677380D01*
X86542380Y-112629761D02*
X86304285Y-113344047D01*
X86923333Y-113344047D01*
X80243333Y-105662380D02*
X79910000Y-105186190D01*
X79671904Y-105662380D02*
X79671904Y-104662380D01*
X80052857Y-104662380D01*
X80148095Y-104710000D01*
X80195714Y-104757619D01*
X80243333Y-104852857D01*
X80243333Y-104995714D01*
X80195714Y-105090952D01*
X80148095Y-105138571D01*
X80052857Y-105186190D01*
X79671904Y-105186190D01*
X80576666Y-104662380D02*
X81195714Y-104662380D01*
X80862380Y-105043333D01*
X81005238Y-105043333D01*
X81100476Y-105090952D01*
X81148095Y-105138571D01*
X81195714Y-105233809D01*
X81195714Y-105471904D01*
X81148095Y-105567142D01*
X81100476Y-105614761D01*
X81005238Y-105662380D01*
X80719523Y-105662380D01*
X80624285Y-105614761D01*
X80576666Y-105567142D01*
X98892380Y-113486666D02*
X98416190Y-113820000D01*
X98892380Y-114058095D02*
X97892380Y-114058095D01*
X97892380Y-113677142D01*
X97940000Y-113581904D01*
X97987619Y-113534285D01*
X98082857Y-113486666D01*
X98225714Y-113486666D01*
X98320952Y-113534285D01*
X98368571Y-113581904D01*
X98416190Y-113677142D01*
X98416190Y-114058095D01*
X97987619Y-113105714D02*
X97940000Y-113058095D01*
X97892380Y-112962857D01*
X97892380Y-112724761D01*
X97940000Y-112629523D01*
X97987619Y-112581904D01*
X98082857Y-112534285D01*
X98178095Y-112534285D01*
X98320952Y-112581904D01*
X98892380Y-113153333D01*
X98892380Y-112534285D01*
X83023333Y-113202380D02*
X82690000Y-112726190D01*
X82451904Y-113202380D02*
X82451904Y-112202380D01*
X82832857Y-112202380D01*
X82928095Y-112250000D01*
X82975714Y-112297619D01*
X83023333Y-112392857D01*
X83023333Y-112535714D01*
X82975714Y-112630952D01*
X82928095Y-112678571D01*
X82832857Y-112726190D01*
X82451904Y-112726190D01*
X83975714Y-113202380D02*
X83404285Y-113202380D01*
X83690000Y-113202380D02*
X83690000Y-112202380D01*
X83594761Y-112345238D01*
X83499523Y-112440476D01*
X83404285Y-112488095D01*
X41916666Y-72372380D02*
X41916666Y-73086666D01*
X41869047Y-73229523D01*
X41773809Y-73324761D01*
X41630952Y-73372380D01*
X41535714Y-73372380D01*
X42440476Y-73372380D02*
X42630952Y-73372380D01*
X42726190Y-73324761D01*
X42773809Y-73277142D01*
X42869047Y-73134285D01*
X42916666Y-72943809D01*
X42916666Y-72562857D01*
X42869047Y-72467619D01*
X42821428Y-72420000D01*
X42726190Y-72372380D01*
X42535714Y-72372380D01*
X42440476Y-72420000D01*
X42392857Y-72467619D01*
X42345238Y-72562857D01*
X42345238Y-72800952D01*
X42392857Y-72896190D01*
X42440476Y-72943809D01*
X42535714Y-72991428D01*
X42726190Y-72991428D01*
X42821428Y-72943809D01*
X42869047Y-72896190D01*
X42916666Y-72800952D01*
X75532380Y-113243333D02*
X76246666Y-113243333D01*
X76389523Y-113290952D01*
X76484761Y-113386190D01*
X76532380Y-113529047D01*
X76532380Y-113624285D01*
X75960952Y-112624285D02*
X75913333Y-112719523D01*
X75865714Y-112767142D01*
X75770476Y-112814761D01*
X75722857Y-112814761D01*
X75627619Y-112767142D01*
X75580000Y-112719523D01*
X75532380Y-112624285D01*
X75532380Y-112433809D01*
X75580000Y-112338571D01*
X75627619Y-112290952D01*
X75722857Y-112243333D01*
X75770476Y-112243333D01*
X75865714Y-112290952D01*
X75913333Y-112338571D01*
X75960952Y-112433809D01*
X75960952Y-112624285D01*
X76008571Y-112719523D01*
X76056190Y-112767142D01*
X76151428Y-112814761D01*
X76341904Y-112814761D01*
X76437142Y-112767142D01*
X76484761Y-112719523D01*
X76532380Y-112624285D01*
X76532380Y-112433809D01*
X76484761Y-112338571D01*
X76437142Y-112290952D01*
X76341904Y-112243333D01*
X76151428Y-112243333D01*
X76056190Y-112290952D01*
X76008571Y-112338571D01*
X75960952Y-112433809D01*
X116626666Y-76392380D02*
X116626666Y-77106666D01*
X116579047Y-77249523D01*
X116483809Y-77344761D01*
X116340952Y-77392380D01*
X116245714Y-77392380D01*
X117531428Y-76392380D02*
X117340952Y-76392380D01*
X117245714Y-76440000D01*
X117198095Y-76487619D01*
X117102857Y-76630476D01*
X117055238Y-76820952D01*
X117055238Y-77201904D01*
X117102857Y-77297142D01*
X117150476Y-77344761D01*
X117245714Y-77392380D01*
X117436190Y-77392380D01*
X117531428Y-77344761D01*
X117579047Y-77297142D01*
X117626666Y-77201904D01*
X117626666Y-76963809D01*
X117579047Y-76868571D01*
X117531428Y-76820952D01*
X117436190Y-76773333D01*
X117245714Y-76773333D01*
X117150476Y-76820952D01*
X117102857Y-76868571D01*
X117055238Y-76963809D01*
X44182380Y-46643333D02*
X44896666Y-46643333D01*
X45039523Y-46690952D01*
X45134761Y-46786190D01*
X45182380Y-46929047D01*
X45182380Y-47024285D01*
X44182380Y-45690952D02*
X44182380Y-46167142D01*
X44658571Y-46214761D01*
X44610952Y-46167142D01*
X44563333Y-46071904D01*
X44563333Y-45833809D01*
X44610952Y-45738571D01*
X44658571Y-45690952D01*
X44753809Y-45643333D01*
X44991904Y-45643333D01*
X45087142Y-45690952D01*
X45134761Y-45738571D01*
X45182380Y-45833809D01*
X45182380Y-46071904D01*
X45134761Y-46167142D01*
X45087142Y-46214761D01*
X116566666Y-85442380D02*
X116566666Y-86156666D01*
X116519047Y-86299523D01*
X116423809Y-86394761D01*
X116280952Y-86442380D01*
X116185714Y-86442380D01*
X117471428Y-85775714D02*
X117471428Y-86442380D01*
X117233333Y-85394761D02*
X116995238Y-86109047D01*
X117614285Y-86109047D01*
X110666666Y-115952380D02*
X110666666Y-116666666D01*
X110619047Y-116809523D01*
X110523809Y-116904761D01*
X110380952Y-116952380D01*
X110285714Y-116952380D01*
X111047619Y-115952380D02*
X111666666Y-115952380D01*
X111333333Y-116333333D01*
X111476190Y-116333333D01*
X111571428Y-116380952D01*
X111619047Y-116428571D01*
X111666666Y-116523809D01*
X111666666Y-116761904D01*
X111619047Y-116857142D01*
X111571428Y-116904761D01*
X111476190Y-116952380D01*
X111190476Y-116952380D01*
X111095238Y-116904761D01*
X111047619Y-116857142D01*
X95916666Y-115452380D02*
X95916666Y-116166666D01*
X95869047Y-116309523D01*
X95773809Y-116404761D01*
X95630952Y-116452380D01*
X95535714Y-116452380D01*
X96345238Y-115547619D02*
X96392857Y-115500000D01*
X96488095Y-115452380D01*
X96726190Y-115452380D01*
X96821428Y-115500000D01*
X96869047Y-115547619D01*
X96916666Y-115642857D01*
X96916666Y-115738095D01*
X96869047Y-115880952D01*
X96297619Y-116452380D01*
X96916666Y-116452380D01*
X41476666Y-50062380D02*
X41476666Y-50776666D01*
X41429047Y-50919523D01*
X41333809Y-51014761D01*
X41190952Y-51062380D01*
X41095714Y-51062380D01*
X42476666Y-51062380D02*
X41905238Y-51062380D01*
X42190952Y-51062380D02*
X42190952Y-50062380D01*
X42095714Y-50205238D01*
X42000476Y-50300476D01*
X41905238Y-50348095D01*
X89252380Y-48738095D02*
X88252380Y-48738095D01*
X88252380Y-48500000D01*
X88300000Y-48357142D01*
X88395238Y-48261904D01*
X88490476Y-48214285D01*
X88680952Y-48166666D01*
X88823809Y-48166666D01*
X89014285Y-48214285D01*
X89109523Y-48261904D01*
X89204761Y-48357142D01*
X89252380Y-48500000D01*
X89252380Y-48738095D01*
X89252380Y-47214285D02*
X89252380Y-47785714D01*
X89252380Y-47500000D02*
X88252380Y-47500000D01*
X88395238Y-47595238D01*
X88490476Y-47690476D01*
X88538095Y-47785714D01*
X61177142Y-103166666D02*
X61224761Y-103214285D01*
X61272380Y-103357142D01*
X61272380Y-103452380D01*
X61224761Y-103595238D01*
X61129523Y-103690476D01*
X61034285Y-103738095D01*
X60843809Y-103785714D01*
X60700952Y-103785714D01*
X60510476Y-103738095D01*
X60415238Y-103690476D01*
X60320000Y-103595238D01*
X60272380Y-103452380D01*
X60272380Y-103357142D01*
X60320000Y-103214285D01*
X60367619Y-103166666D01*
X60272380Y-102833333D02*
X60272380Y-102166666D01*
X61272380Y-102595238D01*
X56177142Y-103166666D02*
X56224761Y-103214285D01*
X56272380Y-103357142D01*
X56272380Y-103452380D01*
X56224761Y-103595238D01*
X56129523Y-103690476D01*
X56034285Y-103738095D01*
X55843809Y-103785714D01*
X55700952Y-103785714D01*
X55510476Y-103738095D01*
X55415238Y-103690476D01*
X55320000Y-103595238D01*
X55272380Y-103452380D01*
X55272380Y-103357142D01*
X55320000Y-103214285D01*
X55367619Y-103166666D01*
X55272380Y-102309523D02*
X55272380Y-102500000D01*
X55320000Y-102595238D01*
X55367619Y-102642857D01*
X55510476Y-102738095D01*
X55700952Y-102785714D01*
X56081904Y-102785714D01*
X56177142Y-102738095D01*
X56224761Y-102690476D01*
X56272380Y-102595238D01*
X56272380Y-102404761D01*
X56224761Y-102309523D01*
X56177142Y-102261904D01*
X56081904Y-102214285D01*
X55843809Y-102214285D01*
X55748571Y-102261904D01*
X55700952Y-102309523D01*
X55653333Y-102404761D01*
X55653333Y-102595238D01*
X55700952Y-102690476D01*
X55748571Y-102738095D01*
X55843809Y-102785714D01*
X86583333Y-61837142D02*
X86535714Y-61884761D01*
X86392857Y-61932380D01*
X86297619Y-61932380D01*
X86154761Y-61884761D01*
X86059523Y-61789523D01*
X86011904Y-61694285D01*
X85964285Y-61503809D01*
X85964285Y-61360952D01*
X86011904Y-61170476D01*
X86059523Y-61075238D01*
X86154761Y-60980000D01*
X86297619Y-60932380D01*
X86392857Y-60932380D01*
X86535714Y-60980000D01*
X86583333Y-61027619D01*
X87488095Y-60932380D02*
X87011904Y-60932380D01*
X86964285Y-61408571D01*
X87011904Y-61360952D01*
X87107142Y-61313333D01*
X87345238Y-61313333D01*
X87440476Y-61360952D01*
X87488095Y-61408571D01*
X87535714Y-61503809D01*
X87535714Y-61741904D01*
X87488095Y-61837142D01*
X87440476Y-61884761D01*
X87345238Y-61932380D01*
X87107142Y-61932380D01*
X87011904Y-61884761D01*
X86964285Y-61837142D01*
X86913333Y-65297142D02*
X86865714Y-65344761D01*
X86722857Y-65392380D01*
X86627619Y-65392380D01*
X86484761Y-65344761D01*
X86389523Y-65249523D01*
X86341904Y-65154285D01*
X86294285Y-64963809D01*
X86294285Y-64820952D01*
X86341904Y-64630476D01*
X86389523Y-64535238D01*
X86484761Y-64440000D01*
X86627619Y-64392380D01*
X86722857Y-64392380D01*
X86865714Y-64440000D01*
X86913333Y-64487619D01*
X87770476Y-64725714D02*
X87770476Y-65392380D01*
X87532380Y-64344761D02*
X87294285Y-65059047D01*
X87913333Y-65059047D01*
X86673333Y-58737142D02*
X86625714Y-58784761D01*
X86482857Y-58832380D01*
X86387619Y-58832380D01*
X86244761Y-58784761D01*
X86149523Y-58689523D01*
X86101904Y-58594285D01*
X86054285Y-58403809D01*
X86054285Y-58260952D01*
X86101904Y-58070476D01*
X86149523Y-57975238D01*
X86244761Y-57880000D01*
X86387619Y-57832380D01*
X86482857Y-57832380D01*
X86625714Y-57880000D01*
X86673333Y-57927619D01*
X87006666Y-57832380D02*
X87625714Y-57832380D01*
X87292380Y-58213333D01*
X87435238Y-58213333D01*
X87530476Y-58260952D01*
X87578095Y-58308571D01*
X87625714Y-58403809D01*
X87625714Y-58641904D01*
X87578095Y-58737142D01*
X87530476Y-58784761D01*
X87435238Y-58832380D01*
X87149523Y-58832380D01*
X87054285Y-58784761D01*
X87006666Y-58737142D01*
X72058333Y-52007142D02*
X72010714Y-52054761D01*
X71867857Y-52102380D01*
X71772619Y-52102380D01*
X71629761Y-52054761D01*
X71534523Y-51959523D01*
X71486904Y-51864285D01*
X71439285Y-51673809D01*
X71439285Y-51530952D01*
X71486904Y-51340476D01*
X71534523Y-51245238D01*
X71629761Y-51150000D01*
X71772619Y-51102380D01*
X71867857Y-51102380D01*
X72010714Y-51150000D01*
X72058333Y-51197619D01*
X72439285Y-51197619D02*
X72486904Y-51150000D01*
X72582142Y-51102380D01*
X72820238Y-51102380D01*
X72915476Y-51150000D01*
X72963095Y-51197619D01*
X73010714Y-51292857D01*
X73010714Y-51388095D01*
X72963095Y-51530952D01*
X72391666Y-52102380D01*
X73010714Y-52102380D01*
X52227142Y-103391666D02*
X52274761Y-103439285D01*
X52322380Y-103582142D01*
X52322380Y-103677380D01*
X52274761Y-103820238D01*
X52179523Y-103915476D01*
X52084285Y-103963095D01*
X51893809Y-104010714D01*
X51750952Y-104010714D01*
X51560476Y-103963095D01*
X51465238Y-103915476D01*
X51370000Y-103820238D01*
X51322380Y-103677380D01*
X51322380Y-103582142D01*
X51370000Y-103439285D01*
X51417619Y-103391666D01*
X52322380Y-102439285D02*
X52322380Y-103010714D01*
X52322380Y-102725000D02*
X51322380Y-102725000D01*
X51465238Y-102820238D01*
X51560476Y-102915476D01*
X51608095Y-103010714D01*
M02*
